STARTFONT 2.1
COMMENT
COMMENT Converted from OpenType font "MigMix-1M-Regular.ttf" by "otf2bdf 3.0".
COMMENT
FONT -FreeType-MigMix 1M-Medium-R-Normal--17-120-100-100-P-144-ISO10646-1
SIZE 12 100 100
FONTBOUNDINGBOX 17 25 0 -6
STARTPROPERTIES 19
FOUNDRY "FreeType"
FAMILY_NAME "MigMix 1M"
WEIGHT_NAME "Medium"
SLANT "R"
SETWIDTH_NAME "Normal"
ADD_STYLE_NAME ""
PIXEL_SIZE 17
POINT_SIZE 120
RESOLUTION_X 100
RESOLUTION_Y 100
SPACING "P"
AVERAGE_WIDTH 144
CHARSET_REGISTRY "ISO10646"
CHARSET_ENCODING "1"
FONT_ASCENT 18
FONT_DESCENT 5
COPYRIGHT "Copyright(c) 2010 M+ FONTS PROJECT  Copyright(c) Information-technology Promotion Agency, Japan (IPA), 2003-2009. You must accept "http://ipafont.ipa.go.jp/ipa_font_license_v1.html" to use this product."
_OTF_FONTFILE "MigMix-1M-Regular.ttf"
_OTF_PSNAME "MigMix-1M-Regular"
ENDPROPERTIES
CHARS 12108
STARTCHAR 0000
ENCODING 0
SWIDTH 0 0
DWIDTH 0 0
BBX 0 0 0 0
BITMAP
ENDCHAR
STARTCHAR 0020
ENCODING 32
SWIDTH 540 0
DWIDTH 9 0
BBX 0 0 0 0
BITMAP
ENDCHAR
STARTCHAR 0021
ENCODING 33
SWIDTH 540 0
DWIDTH 9 0
BBX 2 12 3 1
BITMAP
C0
C0
C0
C0
C0
40
40
40
00
00
C0
C0
ENDCHAR
STARTCHAR 0022
ENCODING 34
SWIDTH 540 0
DWIDTH 9 0
BBX 4 5 2 9
BITMAP
D0
D0
D0
D0
90
ENDCHAR
STARTCHAR 0023
ENCODING 35
SWIDTH 540 0
DWIDTH 9 0
BBX 7 12 1 1
BITMAP
24
2C
FE
FE
68
68
68
48
FC
58
58
D8
ENDCHAR
STARTCHAR 0024
ENCODING 36
SWIDTH 540 0
DWIDTH 9 0
BBX 6 15 1 -2
BITMAP
10
10
7C
54
D0
D0
50
78
1C
14
14
94
FC
38
10
ENDCHAR
STARTCHAR 0025
ENCODING 37
SWIDTH 540 0
DWIDTH 9 0
BBX 8 13 0 -1
BITMAP
20
78
48
C8
5A
76
0C
30
6E
49
09
09
0E
ENDCHAR
STARTCHAR 0026
ENCODING 38
SWIDTH 540 0
DWIDTH 9 0
BBX 8 13 0 -1
BITMAP
18
7C
66
66
64
3C
1B
3B
4B
C7
C7
46
7D
ENDCHAR
STARTCHAR 0027
ENCODING 39
SWIDTH 540 0
DWIDTH 9 0
BBX 2 5 3 9
BITMAP
C0
C0
40
40
40
ENDCHAR
STARTCHAR 0028
ENCODING 40
SWIDTH 540 0
DWIDTH 9 0
BBX 5 16 2 -2
BITMAP
18
20
60
40
40
C0
80
80
80
C0
C0
40
60
20
10
08
ENDCHAR
STARTCHAR 0029
ENCODING 41
SWIDTH 540 0
DWIDTH 9 0
BBX 4 16 2 -2
BITMAP
C0
40
20
30
10
10
10
10
10
10
10
30
20
60
40
80
ENDCHAR
STARTCHAR 002A
ENCODING 42
SWIDTH 540 0
DWIDTH 9 0
BBX 7 7 1 5
BITMAP
10
10
92
FC
30
68
4C
ENDCHAR
STARTCHAR 002B
ENCODING 43
SWIDTH 540 0
DWIDTH 9 0
BBX 6 8 1 1
BITMAP
10
10
10
FC
10
10
10
10
ENDCHAR
STARTCHAR 002C
ENCODING 44
SWIDTH 540 0
DWIDTH 9 0
BBX 3 5 3 -3
BITMAP
60
C0
C0
80
80
ENDCHAR
STARTCHAR 002D
ENCODING 45
SWIDTH 540 0
DWIDTH 9 0
BBX 5 2 2 4
BITMAP
F8
F8
ENDCHAR
STARTCHAR 002E
ENCODING 46
SWIDTH 540 0
DWIDTH 9 0
BBX 2 3 3 0
BITMAP
C0
C0
C0
ENDCHAR
STARTCHAR 002F
ENCODING 47
SWIDTH 540 0
DWIDTH 9 0
BBX 7 13 1 0
BITMAP
06
04
08
08
18
10
30
20
20
40
40
C0
80
ENDCHAR
STARTCHAR 0030
ENCODING 48
SWIDTH 540 0
DWIDTH 9 0
BBX 6 13 1 -1
BITMAP
30
78
44
CC
8C
94
94
A4
A4
C4
C4
4C
78
ENDCHAR
STARTCHAR 0031
ENCODING 49
SWIDTH 540 0
DWIDTH 9 0
BBX 5 12 1 1
BITMAP
38
F8
98
18
18
18
18
18
18
18
18
18
ENDCHAR
STARTCHAR 0032
ENCODING 50
SWIDTH 540 0
DWIDTH 9 0
BBX 6 13 1 0
BITMAP
30
FC
8C
04
04
0C
08
18
10
30
60
40
FC
ENDCHAR
STARTCHAR 0033
ENCODING 51
SWIDTH 540 0
DWIDTH 9 0
BBX 6 12 1 0
BITMAP
FC
0C
18
10
20
38
04
04
04
04
8C
78
ENDCHAR
STARTCHAR 0034
ENCODING 52
SWIDTH 540 0
DWIDTH 9 0
BBX 7 12 1 1
BITMAP
18
18
38
28
68
48
C8
88
FE
08
08
08
ENDCHAR
STARTCHAR 0035
ENCODING 53
SWIDTH 540 0
DWIDTH 9 0
BBX 6 12 1 0
BITMAP
7C
40
40
40
78
6C
04
04
04
04
8C
78
ENDCHAR
STARTCHAR 0036
ENCODING 54
SWIDTH 540 0
DWIDTH 9 0
BBX 6 13 1 -1
BITMAP
18
7C
40
40
C0
FC
C4
C4
C4
C4
C4
44
78
ENDCHAR
STARTCHAR 0037
ENCODING 55
SWIDTH 540 0
DWIDTH 9 0
BBX 6 12 1 1
BITMAP
FC
04
0C
08
18
10
10
30
30
20
20
60
ENDCHAR
STARTCHAR 0038
ENCODING 56
SWIDTH 540 0
DWIDTH 9 0
BBX 7 13 1 -1
BITMAP
30
7C
C4
84
C4
4C
38
4C
84
86
86
C4
7C
ENDCHAR
STARTCHAR 0039
ENCODING 57
SWIDTH 540 0
DWIDTH 9 0
BBX 6 13 1 -1
BITMAP
30
7C
C4
84
84
84
C4
4C
34
04
0C
88
78
ENDCHAR
STARTCHAR 003A
ENCODING 58
SWIDTH 540 0
DWIDTH 9 0
BBX 2 9 3 1
BITMAP
C0
C0
00
00
00
00
C0
C0
C0
ENDCHAR
STARTCHAR 003B
ENCODING 59
SWIDTH 540 0
DWIDTH 9 0
BBX 3 12 2 -2
BITMAP
60
60
00
00
00
00
60
60
60
40
40
80
ENDCHAR
STARTCHAR 003C
ENCODING 60
SWIDTH 540 0
DWIDTH 9 0
BBX 6 10 1 1
BITMAP
04
0C
30
60
80
C0
60
18
04
04
ENDCHAR
STARTCHAR 003D
ENCODING 61
SWIDTH 540 0
DWIDTH 9 0
BBX 6 5 1 2
BITMAP
FC
FC
00
00
FC
ENDCHAR
STARTCHAR 003E
ENCODING 62
SWIDTH 540 0
DWIDTH 9 0
BBX 7 9 1 1
BITMAP
80
C0
30
0C
06
06
18
60
C0
ENDCHAR
STARTCHAR 003F
ENCODING 63
SWIDTH 540 0
DWIDTH 9 0
BBX 7 13 1 0
BITMAP
30
FC
06
06
04
0C
18
10
30
00
00
30
30
ENDCHAR
STARTCHAR 0040
ENCODING 64
SWIDTH 540 0
DWIDTH 9 0
BBX 7 13 1 -2
BITMAP
38
6C
C6
9E
A6
A6
A6
A6
A6
9C
C0
64
3C
ENDCHAR
STARTCHAR 0041
ENCODING 65
SWIDTH 540 0
DWIDTH 9 0
BBX 8 12 0 1
BITMAP
18
1C
14
34
24
26
26
7E
62
43
43
C1
ENDCHAR
STARTCHAR 0042
ENCODING 66
SWIDTH 540 0
DWIDTH 9 0
BBX 7 13 1 -1
BITMAP
70
FC
C4
C4
C4
CC
F8
C4
C6
C6
C6
C4
F8
ENDCHAR
STARTCHAR 0043
ENCODING 67
SWIDTH 540 0
DWIDTH 9 0
BBX 6 13 1 -1
BITMAP
18
7C
40
C0
80
80
80
80
80
C0
C0
64
3C
ENDCHAR
STARTCHAR 0044
ENCODING 68
SWIDTH 540 0
DWIDTH 9 0
BBX 7 13 1 -1
BITMAP
60
FC
C4
C6
C6
C6
C2
C2
C6
C6
C4
CC
F8
ENDCHAR
STARTCHAR 0045
ENCODING 69
SWIDTH 540 0
DWIDTH 9 0
BBX 6 12 1 1
BITMAP
FC
C0
C0
C0
C0
FC
C0
C0
C0
C0
C0
FC
ENDCHAR
STARTCHAR 0046
ENCODING 70
SWIDTH 540 0
DWIDTH 9 0
BBX 5 12 2 1
BITMAP
F8
80
80
80
80
F8
80
80
80
80
80
80
ENDCHAR
STARTCHAR 0047
ENCODING 71
SWIDTH 540 0
DWIDTH 9 0
BBX 7 13 1 -1
BITMAP
18
7C
C0
80
80
80
9E
86
86
86
C6
46
3E
ENDCHAR
STARTCHAR 0048
ENCODING 72
SWIDTH 540 0
DWIDTH 9 0
BBX 6 12 1 1
BITMAP
84
84
84
84
84
FC
84
84
84
84
84
84
ENDCHAR
STARTCHAR 0049
ENCODING 73
SWIDTH 540 0
DWIDTH 9 0
BBX 5 12 2 1
BITMAP
F8
20
20
20
20
20
20
20
20
20
20
F8
ENDCHAR
STARTCHAR 004A
ENCODING 74
SWIDTH 540 0
DWIDTH 9 0
BBX 6 12 1 0
BITMAP
3C
0C
0C
0C
0C
0C
0C
0C
0C
0C
8C
F8
ENDCHAR
STARTCHAR 004B
ENCODING 75
SWIDTH 540 0
DWIDTH 9 0
BBX 7 12 1 1
BITMAP
C6
CC
D8
D0
F0
E0
F0
D0
D8
C8
CC
C6
ENDCHAR
STARTCHAR 004C
ENCODING 76
SWIDTH 540 0
DWIDTH 9 0
BBX 5 12 2 1
BITMAP
80
80
80
80
80
80
80
80
80
80
80
F8
ENDCHAR
STARTCHAR 004D
ENCODING 77
SWIDTH 540 0
DWIDTH 9 0
BBX 7 12 1 1
BITMAP
86
C6
C6
CE
EE
AE
B6
B6
96
86
86
86
ENDCHAR
STARTCHAR 004E
ENCODING 78
SWIDTH 540 0
DWIDTH 9 0
BBX 6 12 1 1
BITMAP
C4
C4
E4
E4
E4
D4
D4
D4
CC
CC
CC
C4
ENDCHAR
STARTCHAR 004F
ENCODING 79
SWIDTH 540 0
DWIDTH 9 0
BBX 7 13 1 -1
BITMAP
30
7C
C4
86
86
86
86
86
86
86
84
CC
78
ENDCHAR
STARTCHAR 0050
ENCODING 80
SWIDTH 540 0
DWIDTH 9 0
BBX 7 13 1 0
BITMAP
70
FC
C6
C6
C6
C6
CC
F8
C0
C0
C0
C0
C0
ENDCHAR
STARTCHAR 0051
ENCODING 81
SWIDTH 540 0
DWIDTH 9 0
BBX 7 16 1 -3
BITMAP
30
7C
C4
86
86
86
86
86
86
86
84
CC
78
0C
06
02
ENDCHAR
STARTCHAR 0052
ENCODING 82
SWIDTH 540 0
DWIDTH 9 0
BBX 7 13 1 0
BITMAP
70
FC
C4
C6
C6
C4
FC
F8
CC
C4
C4
C6
C6
ENDCHAR
STARTCHAR 0053
ENCODING 83
SWIDTH 540 0
DWIDTH 9 0
BBX 6 13 1 -1
BITMAP
18
7C
C4
C0
C0
60
30
0C
04
04
04
84
78
ENDCHAR
STARTCHAR 0054
ENCODING 84
SWIDTH 540 0
DWIDTH 9 0
BBX 7 12 1 1
BITMAP
FE
10
10
10
10
10
10
10
10
10
10
10
ENDCHAR
STARTCHAR 0055
ENCODING 85
SWIDTH 540 0
DWIDTH 9 0
BBX 6 12 1 0
BITMAP
84
84
84
84
84
84
84
84
84
C4
C4
7C
ENDCHAR
STARTCHAR 0056
ENCODING 86
SWIDTH 540 0
DWIDTH 9 0
BBX 8 12 0 1
BITMAP
C3
43
62
62
22
26
24
34
14
14
18
18
ENDCHAR
STARTCHAR 0057
ENCODING 87
SWIDTH 540 0
DWIDTH 9 0
BBX 8 12 0 1
BITMAP
C1
49
59
59
5B
57
57
56
56
76
66
66
ENDCHAR
STARTCHAR 0058
ENCODING 88
SWIDTH 540 0
DWIDTH 9 0
BBX 7 12 1 1
BITMAP
C6
4C
48
28
38
30
30
38
68
4C
C4
84
ENDCHAR
STARTCHAR 0059
ENCODING 89
SWIDTH 540 0
DWIDTH 9 0
BBX 8 12 0 1
BITMAP
C3
62
26
24
14
1C
18
08
08
08
08
08
ENDCHAR
STARTCHAR 005A
ENCODING 90
SWIDTH 540 0
DWIDTH 9 0
BBX 6 12 1 1
BITMAP
FC
0C
08
08
18
10
30
20
60
40
C0
FC
ENDCHAR
STARTCHAR 005B
ENCODING 91
SWIDTH 540 0
DWIDTH 9 0
BBX 5 15 2 -2
BITMAP
F8
C0
C0
C0
C0
C0
C0
C0
C0
C0
C0
C0
C0
C0
F8
ENDCHAR
STARTCHAR 005C
ENCODING 92
SWIDTH 540 0
DWIDTH 9 0
BBX 7 13 1 0
BITMAP
80
40
40
60
20
30
10
10
08
08
04
04
06
ENDCHAR
STARTCHAR 005D
ENCODING 93
SWIDTH 540 0
DWIDTH 9 0
BBX 4 15 2 -2
BITMAP
F0
10
10
10
10
10
10
10
10
10
10
10
10
10
F0
ENDCHAR
STARTCHAR 005E
ENCODING 94
SWIDTH 540 0
DWIDTH 9 0
BBX 8 8 0 5
BITMAP
18
14
24
26
22
42
43
80
ENDCHAR
STARTCHAR 005F
ENCODING 95
SWIDTH 540 0
DWIDTH 9 0
BBX 7 1 1 -3
BITMAP
FE
ENDCHAR
STARTCHAR 0060
ENCODING 96
SWIDTH 540 0
DWIDTH 9 0
BBX 4 5 2 9
BITMAP
C0
60
60
20
30
ENDCHAR
STARTCHAR 0061
ENCODING 97
SWIDTH 540 0
DWIDTH 9 0
BBX 6 9 1 -1
BITMAP
78
84
04
3C
64
84
84
CC
74
ENDCHAR
STARTCHAR 0062
ENCODING 98
SWIDTH 540 0
DWIDTH 9 0
BBX 7 13 1 -1
BITMAP
80
80
80
80
B8
EC
C6
C6
86
86
C6
CC
B8
ENDCHAR
STARTCHAR 0063
ENCODING 99
SWIDTH 540 0
DWIDTH 9 0
BBX 6 9 1 -1
BITMAP
3C
64
40
C0
C0
C0
40
64
3C
ENDCHAR
STARTCHAR 0064
ENCODING 100
SWIDTH 540 0
DWIDTH 9 0
BBX 6 13 1 -1
BITMAP
04
04
04
04
74
CC
84
84
84
84
84
CC
74
ENDCHAR
STARTCHAR 0065
ENCODING 101
SWIDTH 540 0
DWIDTH 9 0
BBX 6 9 1 -1
BITMAP
78
4C
C4
84
FC
80
C0
44
7C
ENDCHAR
STARTCHAR 0066
ENCODING 102
SWIDTH 540 0
DWIDTH 9 0
BBX 6 13 1 0
BITMAP
0C
1C
30
30
3C
FC
30
30
30
30
30
30
30
ENDCHAR
STARTCHAR 0067
ENCODING 103
SWIDTH 540 0
DWIDTH 9 0
BBX 6 13 1 -4
BITMAP
74
CC
84
84
84
84
84
CC
74
04
04
4C
78
ENDCHAR
STARTCHAR 0068
ENCODING 104
SWIDTH 540 0
DWIDTH 9 0
BBX 6 13 1 0
BITMAP
C0
C0
C0
C0
FC
E4
C4
C4
C4
C4
C4
C4
C4
ENDCHAR
STARTCHAR 0069
ENCODING 105
SWIDTH 540 0
DWIDTH 9 0
BBX 5 13 2 0
BITMAP
20
20
00
00
E0
20
20
20
20
20
20
20
F8
ENDCHAR
STARTCHAR 006A
ENCODING 106
SWIDTH 540 0
DWIDTH 9 0
BBX 4 17 2 -4
BITMAP
30
30
00
00
F0
30
30
30
30
30
30
30
30
30
30
20
E0
ENDCHAR
STARTCHAR 006B
ENCODING 107
SWIDTH 540 0
DWIDTH 9 0
BBX 7 13 1 0
BITMAP
C0
C0
C0
C0
C6
CC
D8
F0
E0
F0
D8
CC
C4
ENDCHAR
STARTCHAR 006C
ENCODING 108
SWIDTH 540 0
DWIDTH 9 0
BBX 6 12 1 0
BITMAP
F0
30
30
30
30
30
30
30
30
30
30
1C
ENDCHAR
STARTCHAR 006D
ENCODING 109
SWIDTH 540 0
DWIDTH 9 0
BBX 8 9 0 1
BITMAP
F7
DD
C9
C9
C9
C9
C9
C9
C9
ENDCHAR
STARTCHAR 006E
ENCODING 110
SWIDTH 540 0
DWIDTH 9 0
BBX 6 9 1 0
BITMAP
BC
E4
C4
C4
C4
C4
C4
C4
C4
ENDCHAR
STARTCHAR 006F
ENCODING 111
SWIDTH 540 0
DWIDTH 9 0
BBX 7 9 1 -1
BITMAP
78
CC
84
86
86
86
84
C4
78
ENDCHAR
STARTCHAR 0070
ENCODING 112
SWIDTH 540 0
DWIDTH 9 0
BBX 7 13 1 -4
BITMAP
B8
EC
C4
86
86
86
C4
CC
B8
80
80
80
80
ENDCHAR
STARTCHAR 0071
ENCODING 113
SWIDTH 540 0
DWIDTH 9 0
BBX 6 13 1 -4
BITMAP
74
CC
84
84
84
84
84
CC
7C
04
04
04
04
ENDCHAR
STARTCHAR 0072
ENCODING 114
SWIDTH 540 0
DWIDTH 9 0
BBX 5 9 2 0
BITMAP
B8
E0
C0
80
80
80
80
80
80
ENDCHAR
STARTCHAR 0073
ENCODING 115
SWIDTH 540 0
DWIDTH 9 0
BBX 6 9 1 -1
BITMAP
7C
C4
C0
40
38
0C
04
84
FC
ENDCHAR
STARTCHAR 0074
ENCODING 116
SWIDTH 540 0
DWIDTH 9 0
BBX 6 12 1 -1
BITMAP
20
20
20
3C
FC
20
20
20
20
20
20
3C
ENDCHAR
STARTCHAR 0075
ENCODING 117
SWIDTH 540 0
DWIDTH 9 0
BBX 6 9 1 -1
BITMAP
84
84
84
84
84
84
84
CC
74
ENDCHAR
STARTCHAR 0076
ENCODING 118
SWIDTH 540 0
DWIDTH 9 0
BBX 7 9 1 0
BITMAP
86
C4
C4
4C
48
68
28
38
30
ENDCHAR
STARTCHAR 0077
ENCODING 119
SWIDTH 540 0
DWIDTH 9 0
BBX 8 9 0 0
BITMAP
D9
59
59
5F
56
56
56
66
26
ENDCHAR
STARTCHAR 0078
ENCODING 120
SWIDTH 540 0
DWIDTH 9 0
BBX 7 9 1 0
BITMAP
C6
4C
68
38
30
38
68
4C
C4
ENDCHAR
STARTCHAR 0079
ENCODING 121
SWIDTH 540 0
DWIDTH 9 0
BBX 7 13 1 -4
BITMAP
86
C4
44
4C
68
28
28
38
10
10
30
20
20
ENDCHAR
STARTCHAR 007A
ENCODING 122
SWIDTH 540 0
DWIDTH 9 0
BBX 6 9 1 0
BITMAP
FC
0C
08
18
10
20
60
40
FC
ENDCHAR
STARTCHAR 007B
ENCODING 123
SWIDTH 540 0
DWIDTH 9 0
BBX 6 15 1 -2
BITMAP
1C
10
10
10
10
10
30
E0
20
30
10
10
10
10
1C
ENDCHAR
STARTCHAR 007C
ENCODING 124
SWIDTH 540 0
DWIDTH 9 0
BBX 1 18 4 -4
BITMAP
80
80
80
80
80
80
80
80
80
80
80
80
80
80
80
80
80
80
ENDCHAR
STARTCHAR 007D
ENCODING 125
SWIDTH 540 0
DWIDTH 9 0
BBX 6 15 1 -2
BITMAP
E0
10
10
10
10
10
10
0C
10
10
10
10
10
10
F0
ENDCHAR
STARTCHAR 007E
ENCODING 126
SWIDTH 540 0
DWIDTH 9 0
BBX 7 2 1 5
BITMAP
F2
9C
ENDCHAR
STARTCHAR 00A0
ENCODING 160
SWIDTH 540 0
DWIDTH 9 0
BBX 0 0 0 0
BITMAP
ENDCHAR
STARTCHAR 00A1
ENCODING 161
SWIDTH 540 0
DWIDTH 9 0
BBX 2 13 3 -4
BITMAP
C0
C0
C0
00
40
40
40
C0
C0
C0
C0
C0
C0
ENDCHAR
STARTCHAR 00A2
ENCODING 162
SWIDTH 540 0
DWIDTH 9 0
BBX 6 15 1 -4
BITMAP
10
10
10
3C
74
50
D0
D0
D0
50
74
3C
10
10
10
ENDCHAR
STARTCHAR 00A3
ENCODING 163
SWIDTH 540 0
DWIDTH 9 0
BBX 6 13 1 0
BITMAP
08
3C
20
60
60
60
FC
60
60
60
60
40
FC
ENDCHAR
STARTCHAR 00A4
ENCODING 164
SWIDTH 540 0
DWIDTH 9 0
BBX 7 7 1 2
BITMAP
82
FC
C4
84
84
4C
BE
ENDCHAR
STARTCHAR 00A5
ENCODING 165
SWIDTH 540 0
DWIDTH 9 0
BBX 8 12 0 1
BITMAP
C3
62
26
24
14
1C
7E
08
08
7E
08
08
ENDCHAR
STARTCHAR 00A6
ENCODING 166
SWIDTH 540 0
DWIDTH 9 0
BBX 1 14 4 -2
BITMAP
80
80
80
80
80
80
00
00
80
80
80
80
80
80
ENDCHAR
STARTCHAR 00A7
ENCODING 167
SWIDTH 540 0
DWIDTH 9 0
BBX 6 16 1 -3
BITMAP
30
7C
C0
80
C0
78
CC
84
84
6C
38
0C
04
04
FC
30
ENDCHAR
STARTCHAR 00A8
ENCODING 168
SWIDTH 540 0
DWIDTH 9 0
BBX 4 3 2 10
BITMAP
D0
D0
D0
ENDCHAR
STARTCHAR 00A9
ENCODING 169
SWIDTH 540 0
DWIDTH 9 0
BBX 8 12 0 0
BITMAP
1C
62
5D
91
A1
A1
A1
A1
9D
42
36
08
ENDCHAR
STARTCHAR 00AA
ENCODING 170
SWIDTH 540 0
DWIDTH 9 0
BBX 6 10 1 3
BITMAP
10
68
04
3C
44
4C
4C
74
00
FC
ENDCHAR
STARTCHAR 00AB
ENCODING 171
SWIDTH 540 0
DWIDTH 9 0
BBX 7 8 1 0
BITMAP
22
26
4C
98
98
4C
26
22
ENDCHAR
STARTCHAR 00AC
ENCODING 172
SWIDTH 540 0
DWIDTH 9 0
BBX 6 5 1 2
BITMAP
FC
FC
04
04
04
ENDCHAR
STARTCHAR 00AD
ENCODING 173
SWIDTH 540 0
DWIDTH 9 0
BBX 5 2 2 4
BITMAP
F8
F8
ENDCHAR
STARTCHAR 00AE
ENCODING 174
SWIDTH 540 0
DWIDTH 9 0
BBX 8 12 0 0
BITMAP
1C
62
59
95
95
95
9D
95
95
42
36
08
ENDCHAR
STARTCHAR 00AF
ENCODING 175
SWIDTH 540 0
DWIDTH 9 0
BBX 6 1 1 12
BITMAP
FC
ENDCHAR
STARTCHAR 00B0
ENCODING 176
SWIDTH 540 0
DWIDTH 9 0
BBX 5 5 2 7
BITMAP
20
F0
98
98
70
ENDCHAR
STARTCHAR 00B1
ENCODING 177
SWIDTH 540 0
DWIDTH 9 0
BBX 7 12 1 0
BITMAP
10
10
10
10
FE
10
10
10
00
00
FE
FE
ENDCHAR
STARTCHAR 00B2
ENCODING 178
SWIDTH 540 0
DWIDTH 9 0
BBX 4 8 2 4
BITMAP
60
90
10
10
20
20
40
F0
ENDCHAR
STARTCHAR 00B3
ENCODING 179
SWIDTH 540 0
DWIDTH 9 0
BBX 4 7 2 5
BITMAP
F0
20
40
30
10
10
70
ENDCHAR
STARTCHAR 00B4
ENCODING 180
SWIDTH 540 0
DWIDTH 9 0
BBX 3 3 3 10
BITMAP
60
C0
80
ENDCHAR
STARTCHAR 00B5
ENCODING 181
SWIDTH 540 0
DWIDTH 9 0
BBX 6 13 1 -4
BITMAP
C4
C4
C4
C4
C4
C4
C4
CC
F4
C0
C0
C0
C0
ENDCHAR
STARTCHAR 00B6
ENCODING 182
SWIDTH 540 0
DWIDTH 9 0
BBX 6 14 1 -2
BITMAP
7C
F4
F4
F4
F4
F4
74
14
14
14
14
14
14
14
ENDCHAR
STARTCHAR 00B7
ENCODING 183
SWIDTH 540 0
DWIDTH 9 0
BBX 2 2 3 4
BITMAP
C0
C0
ENDCHAR
STARTCHAR 00B8
ENCODING 184
SWIDTH 540 0
DWIDTH 9 0
BBX 4 4 2 -3
BITMAP
30
10
B0
E0
ENDCHAR
STARTCHAR 00B9
ENCODING 185
SWIDTH 540 0
DWIDTH 9 0
BBX 3 7 2 5
BITMAP
60
A0
20
20
20
20
20
ENDCHAR
STARTCHAR 00BA
ENCODING 186
SWIDTH 540 0
DWIDTH 9 0
BBX 6 10 1 3
BITMAP
30
68
44
44
44
44
4C
38
00
FC
ENDCHAR
STARTCHAR 00BB
ENCODING 187
SWIDTH 540 0
DWIDTH 9 0
BBX 8 8 0 0
BITMAP
88
4C
26
13
13
26
6C
48
ENDCHAR
STARTCHAR 00BC
ENCODING 188
SWIDTH 540 0
DWIDTH 9 0
BBX 8 16 0 -3
BITMAP
60
A0
20
20
20
23
24
08
12
22
46
86
0A
0F
02
02
ENDCHAR
STARTCHAR 00BD
ENCODING 189
SWIDTH 540 0
DWIDTH 9 0
BBX 8 16 0 -3
BITMAP
60
A0
20
20
20
23
24
08
16
29
41
81
02
02
04
0F
ENDCHAR
STARTCHAR 00BE
ENCODING 190
SWIDTH 540 0
DWIDTH 9 0
BBX 8 16 0 -3
BITMAP
70
20
40
30
10
13
74
08
12
22
46
86
0A
0F
02
02
ENDCHAR
STARTCHAR 00BF
ENCODING 191
SWIDTH 540 0
DWIDTH 9 0
BBX 6 13 1 -4
BITMAP
10
10
10
00
10
10
30
60
C0
80
80
CC
7C
ENDCHAR
STARTCHAR 00C0
ENCODING 192
SWIDTH 540 0
DWIDTH 9 0
BBX 8 16 0 1
BITMAP
38
08
04
00
18
1C
14
34
24
26
26
7E
62
43
43
C1
ENDCHAR
STARTCHAR 00C1
ENCODING 193
SWIDTH 540 0
DWIDTH 9 0
BBX 8 16 0 1
BITMAP
0C
18
10
00
18
1C
14
34
24
26
26
7E
62
43
43
C1
ENDCHAR
STARTCHAR 00C2
ENCODING 194
SWIDTH 540 0
DWIDTH 9 0
BBX 8 16 0 1
BITMAP
1C
36
62
00
18
1C
14
34
24
26
26
7E
62
43
43
C1
ENDCHAR
STARTCHAR 00C3
ENCODING 195
SWIDTH 540 0
DWIDTH 9 0
BBX 8 16 0 1
BITMAP
32
6E
04
00
18
1C
14
34
24
26
26
7E
62
43
43
C1
ENDCHAR
STARTCHAR 00C4
ENCODING 196
SWIDTH 540 0
DWIDTH 9 0
BBX 8 16 0 0
BITMAP
34
34
00
00
18
1C
14
34
24
26
26
7E
62
43
43
C1
ENDCHAR
STARTCHAR 00C5
ENCODING 197
SWIDTH 540 0
DWIDTH 9 0
BBX 8 17 0 1
BITMAP
3C
24
24
1C
00
18
1C
14
34
24
26
26
7E
62
43
43
C1
ENDCHAR
STARTCHAR 00C6
ENCODING 198
SWIDTH 540 0
DWIDTH 9 0
BBX 8 12 0 1
BITMAP
1F
1C
3C
2C
2C
2F
2C
7C
4C
4C
4C
CF
ENDCHAR
STARTCHAR 00C7
ENCODING 199
SWIDTH 540 0
DWIDTH 9 0
BBX 6 17 1 -4
BITMAP
18
7C
40
C0
80
80
80
80
80
C0
C0
64
3C
08
08
58
70
ENDCHAR
STARTCHAR 00C8
ENCODING 200
SWIDTH 540 0
DWIDTH 9 0
BBX 6 16 1 1
BITMAP
70
10
08
00
FC
C0
C0
C0
C0
FC
C0
C0
C0
C0
C0
FC
ENDCHAR
STARTCHAR 00C9
ENCODING 201
SWIDTH 540 0
DWIDTH 9 0
BBX 6 16 1 1
BITMAP
18
30
20
00
FC
C0
C0
C0
C0
FC
C0
C0
C0
C0
C0
FC
ENDCHAR
STARTCHAR 00CA
ENCODING 202
SWIDTH 540 0
DWIDTH 9 0
BBX 6 16 1 1
BITMAP
38
6C
C4
00
FC
C0
C0
C0
C0
FC
C0
C0
C0
C0
C0
FC
ENDCHAR
STARTCHAR 00CB
ENCODING 203
SWIDTH 540 0
DWIDTH 9 0
BBX 6 16 1 0
BITMAP
68
68
00
00
FC
C0
C0
C0
C0
FC
C0
C0
C0
C0
C0
FC
ENDCHAR
STARTCHAR 00CC
ENCODING 204
SWIDTH 540 0
DWIDTH 9 0
BBX 5 16 2 1
BITMAP
E0
20
10
00
F8
20
20
20
20
20
20
20
20
20
20
F8
ENDCHAR
STARTCHAR 00CD
ENCODING 205
SWIDTH 540 0
DWIDTH 9 0
BBX 5 16 2 1
BITMAP
30
60
40
00
F8
20
20
20
20
20
20
20
20
20
20
F8
ENDCHAR
STARTCHAR 00CE
ENCODING 206
SWIDTH 540 0
DWIDTH 9 0
BBX 6 16 1 1
BITMAP
38
6C
C4
00
7C
10
10
10
10
10
10
10
10
10
10
7C
ENDCHAR
STARTCHAR 00CF
ENCODING 207
SWIDTH 540 0
DWIDTH 9 0
BBX 5 16 2 0
BITMAP
D0
D0
00
00
F8
20
20
20
20
20
20
20
20
20
20
F8
ENDCHAR
STARTCHAR 00D0
ENCODING 208
SWIDTH 540 0
DWIDTH 9 0
BBX 8 13 0 -1
BITMAP
38
7E
62
63
63
63
F9
61
63
63
62
66
7C
ENDCHAR
STARTCHAR 00D1
ENCODING 209
SWIDTH 540 0
DWIDTH 9 0
BBX 6 16 1 1
BITMAP
64
DC
08
00
C4
C4
E4
E4
E4
D4
D4
D4
CC
CC
CC
C4
ENDCHAR
STARTCHAR 00D2
ENCODING 210
SWIDTH 540 0
DWIDTH 9 0
BBX 7 16 1 0
BITMAP
70
10
08
30
7C
C4
86
86
86
86
86
86
86
84
CC
78
ENDCHAR
STARTCHAR 00D3
ENCODING 211
SWIDTH 540 0
DWIDTH 9 0
BBX 7 16 1 0
BITMAP
18
30
20
30
7C
C4
86
86
86
86
86
86
86
84
CC
78
ENDCHAR
STARTCHAR 00D4
ENCODING 212
SWIDTH 540 0
DWIDTH 9 0
BBX 7 16 1 0
BITMAP
38
6C
C4
30
7C
C4
86
86
86
86
86
86
86
84
CC
78
ENDCHAR
STARTCHAR 00D5
ENCODING 213
SWIDTH 540 0
DWIDTH 9 0
BBX 7 16 1 0
BITMAP
64
DC
08
30
7C
C4
86
86
86
86
86
86
86
84
CC
78
ENDCHAR
STARTCHAR 00D6
ENCODING 214
SWIDTH 540 0
DWIDTH 9 0
BBX 7 16 1 -1
BITMAP
68
68
00
30
7C
C4
86
86
86
86
86
86
86
84
CC
78
ENDCHAR
STARTCHAR 00D7
ENCODING 215
SWIDTH 540 0
DWIDTH 9 0
BBX 7 8 1 1
BITMAP
C6
4C
68
30
30
78
4C
C6
ENDCHAR
STARTCHAR 00D8
ENCODING 216
SWIDTH 540 0
DWIDTH 9 0
BBX 8 14 0 -1
BITMAP
19
3F
62
47
47
4F
4B
5B
53
73
62
66
7C
80
ENDCHAR
STARTCHAR 00D9
ENCODING 217
SWIDTH 540 0
DWIDTH 9 0
BBX 6 16 1 0
BITMAP
70
10
08
00
84
84
84
84
84
84
84
84
84
C4
C4
7C
ENDCHAR
STARTCHAR 00DA
ENCODING 218
SWIDTH 540 0
DWIDTH 9 0
BBX 6 16 1 0
BITMAP
18
30
20
00
84
84
84
84
84
84
84
84
84
C4
C4
7C
ENDCHAR
STARTCHAR 00DB
ENCODING 219
SWIDTH 540 0
DWIDTH 9 0
BBX 6 16 1 0
BITMAP
38
6C
C4
00
84
84
84
84
84
84
84
84
84
C4
C4
7C
ENDCHAR
STARTCHAR 00DC
ENCODING 220
SWIDTH 540 0
DWIDTH 9 0
BBX 6 16 1 -1
BITMAP
68
68
00
00
84
84
84
84
84
84
84
84
84
C4
C4
7C
ENDCHAR
STARTCHAR 00DD
ENCODING 221
SWIDTH 540 0
DWIDTH 9 0
BBX 8 16 0 1
BITMAP
0C
18
10
00
C3
62
26
24
14
1C
18
08
08
08
08
08
ENDCHAR
STARTCHAR 00DE
ENCODING 222
SWIDTH 540 0
DWIDTH 9 0
BBX 7 12 1 1
BITMAP
C0
C0
FC
C6
C6
C6
C6
C4
FC
C0
C0
C0
ENDCHAR
STARTCHAR 00DF
ENCODING 223
SWIDTH 540 0
DWIDTH 9 0
BBX 7 13 1 -1
BITMAP
78
4C
C4
C4
CC
C8
D8
CC
C4
C6
C6
C6
FC
ENDCHAR
STARTCHAR 00E0
ENCODING 224
SWIDTH 540 0
DWIDTH 9 0
BBX 6 13 1 -1
BITMAP
60
30
18
00
78
84
04
3C
64
84
84
CC
74
ENDCHAR
STARTCHAR 00E1
ENCODING 225
SWIDTH 540 0
DWIDTH 9 0
BBX 6 13 1 -1
BITMAP
18
30
20
00
78
84
04
3C
64
84
84
CC
74
ENDCHAR
STARTCHAR 00E2
ENCODING 226
SWIDTH 540 0
DWIDTH 9 0
BBX 6 13 1 -1
BITMAP
38
68
CC
00
78
84
04
3C
64
84
84
CC
74
ENDCHAR
STARTCHAR 00E3
ENCODING 227
SWIDTH 540 0
DWIDTH 9 0
BBX 6 13 1 -1
BITMAP
40
74
DC
00
78
84
04
3C
64
84
84
CC
74
ENDCHAR
STARTCHAR 00E4
ENCODING 228
SWIDTH 540 0
DWIDTH 9 0
BBX 6 13 1 -1
BITMAP
68
68
68
00
78
84
04
3C
64
84
84
CC
74
ENDCHAR
STARTCHAR 00E5
ENCODING 229
SWIDTH 540 0
DWIDTH 9 0
BBX 6 14 1 -1
BITMAP
30
48
48
68
10
78
84
04
3C
64
84
84
CC
74
ENDCHAR
STARTCHAR 00E6
ENCODING 230
SWIDTH 540 0
DWIDTH 9 0
BBX 8 9 0 0
BITMAP
76
99
09
39
4F
C8
C8
D9
77
ENDCHAR
STARTCHAR 00E7
ENCODING 231
SWIDTH 540 0
DWIDTH 9 0
BBX 6 13 1 -4
BITMAP
3C
64
40
C0
C0
C0
40
64
3C
08
08
58
70
ENDCHAR
STARTCHAR 00E8
ENCODING 232
SWIDTH 540 0
DWIDTH 9 0
BBX 6 13 1 -1
BITMAP
60
30
18
00
78
4C
C4
84
FC
80
C0
44
7C
ENDCHAR
STARTCHAR 00E9
ENCODING 233
SWIDTH 540 0
DWIDTH 9 0
BBX 6 13 1 -1
BITMAP
18
30
20
00
78
4C
C4
84
FC
80
C0
44
7C
ENDCHAR
STARTCHAR 00EA
ENCODING 234
SWIDTH 540 0
DWIDTH 9 0
BBX 6 13 1 -1
BITMAP
38
68
CC
00
78
4C
C4
84
FC
80
C0
44
7C
ENDCHAR
STARTCHAR 00EB
ENCODING 235
SWIDTH 540 0
DWIDTH 9 0
BBX 6 13 1 -1
BITMAP
68
68
68
00
78
4C
C4
84
FC
80
C0
44
7C
ENDCHAR
STARTCHAR 00EC
ENCODING 236
SWIDTH 540 0
DWIDTH 9 0
BBX 5 13 2 0
BITMAP
C0
60
30
00
E0
20
20
20
20
20
20
20
F8
ENDCHAR
STARTCHAR 00ED
ENCODING 237
SWIDTH 540 0
DWIDTH 9 0
BBX 5 13 2 0
BITMAP
30
60
40
00
E0
20
20
20
20
20
20
20
F8
ENDCHAR
STARTCHAR 00EE
ENCODING 238
SWIDTH 540 0
DWIDTH 9 0
BBX 6 13 1 0
BITMAP
38
68
CC
00
70
10
10
10
10
10
10
10
7C
ENDCHAR
STARTCHAR 00EF
ENCODING 239
SWIDTH 540 0
DWIDTH 9 0
BBX 5 13 2 0
BITMAP
D0
D0
D0
00
E0
20
20
20
20
20
20
20
F8
ENDCHAR
STARTCHAR 00F0
ENCODING 240
SWIDTH 540 0
DWIDTH 9 0
BBX 7 13 1 -1
BITMAP
44
7C
78
CC
7C
CC
86
86
86
86
84
C4
78
ENDCHAR
STARTCHAR 00F1
ENCODING 241
SWIDTH 540 0
DWIDTH 9 0
BBX 6 13 1 0
BITMAP
40
74
DC
00
BC
E4
C4
C4
C4
C4
C4
C4
C4
ENDCHAR
STARTCHAR 00F2
ENCODING 242
SWIDTH 540 0
DWIDTH 9 0
BBX 7 13 1 -1
BITMAP
60
30
18
00
78
CC
84
86
86
86
84
C4
78
ENDCHAR
STARTCHAR 00F3
ENCODING 243
SWIDTH 540 0
DWIDTH 9 0
BBX 7 13 1 -1
BITMAP
18
30
20
00
78
CC
84
86
86
86
84
C4
78
ENDCHAR
STARTCHAR 00F4
ENCODING 244
SWIDTH 540 0
DWIDTH 9 0
BBX 7 13 1 -1
BITMAP
38
68
CC
00
78
CC
84
86
86
86
84
C4
78
ENDCHAR
STARTCHAR 00F5
ENCODING 245
SWIDTH 540 0
DWIDTH 9 0
BBX 7 13 1 -1
BITMAP
40
74
DC
00
78
CC
84
86
86
86
84
C4
78
ENDCHAR
STARTCHAR 00F6
ENCODING 246
SWIDTH 540 0
DWIDTH 9 0
BBX 7 13 1 -1
BITMAP
68
68
68
00
78
CC
84
86
86
86
84
C4
78
ENDCHAR
STARTCHAR 00F7
ENCODING 247
SWIDTH 540 0
DWIDTH 9 0
BBX 6 10 1 0
BITMAP
30
30
30
00
FC
FC
00
30
30
30
ENDCHAR
STARTCHAR 00F8
ENCODING 248
SWIDTH 540 0
DWIDTH 9 0
BBX 7 10 1 0
BITMAP
7E
CC
8C
9E
96
A6
E4
C4
F8
80
ENDCHAR
STARTCHAR 00F9
ENCODING 249
SWIDTH 540 0
DWIDTH 9 0
BBX 6 13 1 -1
BITMAP
60
30
18
00
84
84
84
84
84
84
84
CC
74
ENDCHAR
STARTCHAR 00FA
ENCODING 250
SWIDTH 540 0
DWIDTH 9 0
BBX 6 13 1 -1
BITMAP
18
30
20
00
84
84
84
84
84
84
84
CC
74
ENDCHAR
STARTCHAR 00FB
ENCODING 251
SWIDTH 540 0
DWIDTH 9 0
BBX 6 13 1 -1
BITMAP
38
68
CC
00
84
84
84
84
84
84
84
CC
74
ENDCHAR
STARTCHAR 00FC
ENCODING 252
SWIDTH 540 0
DWIDTH 9 0
BBX 6 13 1 -1
BITMAP
68
68
68
00
84
84
84
84
84
84
84
CC
74
ENDCHAR
STARTCHAR 00FD
ENCODING 253
SWIDTH 540 0
DWIDTH 9 0
BBX 7 17 1 -4
BITMAP
18
30
20
00
86
C4
44
4C
6C
28
28
38
10
10
30
20
20
ENDCHAR
STARTCHAR 00FE
ENCODING 254
SWIDTH 540 0
DWIDTH 9 0
BBX 7 17 1 -4
BITMAP
80
80
80
80
B8
EC
C6
C6
C6
C6
C6
C4
FC
C0
C0
C0
C0
ENDCHAR
STARTCHAR 00FF
ENCODING 255
SWIDTH 540 0
DWIDTH 9 0
BBX 7 17 1 -4
BITMAP
68
68
68
00
86
C4
44
4C
6C
28
28
38
10
10
30
20
20
ENDCHAR
STARTCHAR 0100
ENCODING 256
SWIDTH 540 0
DWIDTH 9 0
BBX 8 15 0 1
BITMAP
3E
00
00
18
1C
14
34
24
26
26
7E
62
43
43
C1
ENDCHAR
STARTCHAR 0101
ENCODING 257
SWIDTH 540 0
DWIDTH 9 0
BBX 6 12 1 -1
BITMAP
7C
00
00
78
84
04
3C
64
84
84
CC
74
ENDCHAR
STARTCHAR 0102
ENCODING 258
SWIDTH 540 0
DWIDTH 9 0
BBX 8 16 0 1
BITMAP
62
3E
18
00
18
1C
14
34
24
26
26
7E
62
43
43
C1
ENDCHAR
STARTCHAR 0103
ENCODING 259
SWIDTH 540 0
DWIDTH 9 0
BBX 6 13 1 -1
BITMAP
C4
4C
78
00
78
84
04
3C
64
84
84
CC
74
ENDCHAR
STARTCHAR 0104
ENCODING 260
SWIDTH 540 0
DWIDTH 9 0
BBX 8 16 0 -3
BITMAP
18
1C
14
34
24
26
26
7E
62
43
43
C3
04
08
0D
07
ENDCHAR
STARTCHAR 0105
ENCODING 261
SWIDTH 540 0
DWIDTH 9 0
BBX 7 13 1 -4
BITMAP
78
84
04
3C
64
84
84
CC
74
08
10
1A
0E
ENDCHAR
STARTCHAR 0106
ENCODING 262
SWIDTH 540 0
DWIDTH 9 0
BBX 6 16 1 0
BITMAP
18
30
20
18
7C
40
C0
80
80
80
80
80
C0
C0
64
3C
ENDCHAR
STARTCHAR 0107
ENCODING 263
SWIDTH 540 0
DWIDTH 9 0
BBX 6 13 1 -1
BITMAP
18
30
20
00
3C
64
40
C0
C0
C0
40
64
3C
ENDCHAR
STARTCHAR 0108
ENCODING 264
SWIDTH 540 0
DWIDTH 9 0
BBX 6 16 1 0
BITMAP
38
6C
C4
18
7C
40
C0
80
80
80
80
80
C0
C0
64
3C
ENDCHAR
STARTCHAR 0109
ENCODING 265
SWIDTH 540 0
DWIDTH 9 0
BBX 6 13 1 -1
BITMAP
38
68
CC
00
3C
64
40
C0
C0
C0
40
64
3C
ENDCHAR
STARTCHAR 010A
ENCODING 266
SWIDTH 540 0
DWIDTH 9 0
BBX 6 16 1 -1
BITMAP
10
10
00
18
7C
40
C0
80
80
80
80
80
C0
C0
64
3C
ENDCHAR
STARTCHAR 010B
ENCODING 267
SWIDTH 540 0
DWIDTH 9 0
BBX 6 13 1 -1
BITMAP
10
10
10
00
3C
64
40
C0
C0
C0
40
64
3C
ENDCHAR
STARTCHAR 010C
ENCODING 268
SWIDTH 540 0
DWIDTH 9 0
BBX 6 16 1 0
BITMAP
CC
68
30
18
7C
40
C0
80
80
80
80
80
C0
C0
64
3C
ENDCHAR
STARTCHAR 010D
ENCODING 269
SWIDTH 540 0
DWIDTH 9 0
BBX 6 13 1 -1
BITMAP
CC
68
38
00
3C
64
40
C0
C0
C0
40
64
3C
ENDCHAR
STARTCHAR 010E
ENCODING 270
SWIDTH 540 0
DWIDTH 9 0
BBX 7 16 1 0
BITMAP
CC
68
30
60
FC
C4
C6
C6
C6
C2
C2
C6
C6
C4
CC
F8
ENDCHAR
STARTCHAR 010F
ENCODING 271
SWIDTH 540 0
DWIDTH 9 0
BBX 7 16 1 0
BITMAP
02
02
02
06
04
04
04
74
CC
84
84
84
84
84
CC
74
ENDCHAR
STARTCHAR 0110
ENCODING 272
SWIDTH 540 0
DWIDTH 9 0
BBX 8 13 0 -1
BITMAP
18
3E
22
23
23
21
F9
21
21
23
23
26
3C
ENDCHAR
STARTCHAR 0111
ENCODING 273
SWIDTH 540 0
DWIDTH 9 0
BBX 8 13 0 -1
BITMAP
02
02
3F
02
3A
66
46
42
C2
42
42
66
3A
ENDCHAR
STARTCHAR 0112
ENCODING 274
SWIDTH 540 0
DWIDTH 9 0
BBX 6 15 1 1
BITMAP
7C
00
00
FC
C0
C0
C0
C0
FC
C0
C0
C0
C0
C0
FC
ENDCHAR
STARTCHAR 0113
ENCODING 275
SWIDTH 540 0
DWIDTH 9 0
BBX 6 12 1 -1
BITMAP
7C
00
00
78
4C
C4
84
FC
80
C0
44
7C
ENDCHAR
STARTCHAR 0114
ENCODING 276
SWIDTH 540 0
DWIDTH 9 0
BBX 6 16 1 1
BITMAP
C4
7C
30
00
FC
C0
C0
C0
C0
FC
C0
C0
C0
C0
C0
FC
ENDCHAR
STARTCHAR 0115
ENCODING 277
SWIDTH 540 0
DWIDTH 9 0
BBX 6 13 1 -1
BITMAP
C4
4C
78
00
78
4C
C4
84
FC
80
C0
44
7C
ENDCHAR
STARTCHAR 0116
ENCODING 278
SWIDTH 540 0
DWIDTH 9 0
BBX 6 16 1 0
BITMAP
10
10
00
00
FC
C0
C0
C0
C0
FC
C0
C0
C0
C0
C0
FC
ENDCHAR
STARTCHAR 0117
ENCODING 279
SWIDTH 540 0
DWIDTH 9 0
BBX 6 13 1 -1
BITMAP
10
10
10
00
78
4C
C4
84
FC
80
C0
44
7C
ENDCHAR
STARTCHAR 0118
ENCODING 280
SWIDTH 540 0
DWIDTH 9 0
BBX 6 16 1 -3
BITMAP
FC
C0
C0
C0
C0
FC
C0
C0
C0
C0
C0
FC
20
60
78
38
ENDCHAR
STARTCHAR 0119
ENCODING 281
SWIDTH 540 0
DWIDTH 9 0
BBX 6 13 1 -4
BITMAP
78
4C
C4
84
FC
80
C0
44
7C
60
60
78
38
ENDCHAR
STARTCHAR 011A
ENCODING 282
SWIDTH 540 0
DWIDTH 9 0
BBX 6 16 1 1
BITMAP
CC
68
30
00
FC
C0
C0
C0
C0
FC
C0
C0
C0
C0
C0
FC
ENDCHAR
STARTCHAR 011B
ENCODING 283
SWIDTH 540 0
DWIDTH 9 0
BBX 6 13 1 -1
BITMAP
CC
68
38
00
78
4C
C4
84
FC
80
C0
44
7C
ENDCHAR
STARTCHAR 011C
ENCODING 284
SWIDTH 540 0
DWIDTH 9 0
BBX 7 16 1 0
BITMAP
38
6C
C4
18
7C
C0
80
80
80
9E
86
86
86
C6
46
3E
ENDCHAR
STARTCHAR 011D
ENCODING 285
SWIDTH 540 0
DWIDTH 9 0
BBX 6 17 1 -4
BITMAP
38
68
CC
00
74
CC
84
84
84
84
84
CC
74
04
04
4C
78
ENDCHAR
STARTCHAR 011E
ENCODING 286
SWIDTH 540 0
DWIDTH 9 0
BBX 7 16 1 0
BITMAP
C4
7C
30
18
7C
C0
80
80
80
9E
86
86
86
C6
46
3E
ENDCHAR
STARTCHAR 011F
ENCODING 287
SWIDTH 540 0
DWIDTH 9 0
BBX 6 17 1 -4
BITMAP
C4
4C
78
00
74
CC
84
84
84
84
84
CC
74
04
04
4C
78
ENDCHAR
STARTCHAR 0120
ENCODING 288
SWIDTH 540 0
DWIDTH 9 0
BBX 7 16 1 -1
BITMAP
10
10
00
18
7C
C0
80
80
80
9E
86
86
86
C6
46
3E
ENDCHAR
STARTCHAR 0121
ENCODING 289
SWIDTH 540 0
DWIDTH 9 0
BBX 6 17 1 -4
BITMAP
10
10
10
00
74
CC
84
84
84
84
84
CC
74
04
04
4C
78
ENDCHAR
STARTCHAR 0122
ENCODING 290
SWIDTH 540 0
DWIDTH 9 0
BBX 7 18 1 -5
BITMAP
18
7C
C0
80
80
80
9E
86
86
86
C6
46
3E
00
18
30
30
20
ENDCHAR
STARTCHAR 0123
ENCODING 291
SWIDTH 540 0
DWIDTH 9 0
BBX 6 17 1 -3
BITMAP
18
30
30
00
74
CC
84
84
84
84
84
CC
74
04
04
4C
78
ENDCHAR
STARTCHAR 0124
ENCODING 292
SWIDTH 540 0
DWIDTH 9 0
BBX 6 16 1 1
BITMAP
38
6C
C4
00
84
84
84
84
84
FC
84
84
84
84
84
84
ENDCHAR
STARTCHAR 0125
ENCODING 293
SWIDTH 540 0
DWIDTH 9 0
BBX 6 16 1 1
BITMAP
38
6C
C4
C0
C0
C0
C0
FC
E4
C4
C4
C4
C4
C4
C4
C4
ENDCHAR
STARTCHAR 0126
ENCODING 294
SWIDTH 540 0
DWIDTH 9 0
BBX 8 12 0 1
BITMAP
42
42
FF
42
42
7E
42
42
42
42
42
42
ENDCHAR
STARTCHAR 0127
ENCODING 295
SWIDTH 540 0
DWIDTH 9 0
BBX 7 13 0 0
BITMAP
60
60
FC
60
7E
72
62
62
62
62
62
62
62
ENDCHAR
STARTCHAR 0128
ENCODING 296
SWIDTH 540 0
DWIDTH 9 0
BBX 6 16 1 1
BITMAP
64
DC
08
00
7C
10
10
10
10
10
10
10
10
10
10
7C
ENDCHAR
STARTCHAR 0129
ENCODING 297
SWIDTH 540 0
DWIDTH 9 0
BBX 6 13 1 0
BITMAP
40
74
DC
00
70
10
10
10
10
10
10
10
7C
ENDCHAR
STARTCHAR 012A
ENCODING 298
SWIDTH 540 0
DWIDTH 9 0
BBX 5 15 2 1
BITMAP
F8
00
00
F8
20
20
20
20
20
20
20
20
20
20
F8
ENDCHAR
STARTCHAR 012B
ENCODING 299
SWIDTH 540 0
DWIDTH 9 0
BBX 5 12 2 0
BITMAP
F8
00
00
E0
20
20
20
20
20
20
20
F8
ENDCHAR
STARTCHAR 012C
ENCODING 300
SWIDTH 540 0
DWIDTH 9 0
BBX 6 16 1 1
BITMAP
C4
7C
30
00
7C
10
10
10
10
10
10
10
10
10
10
7C
ENDCHAR
STARTCHAR 012D
ENCODING 301
SWIDTH 540 0
DWIDTH 9 0
BBX 6 13 1 0
BITMAP
C4
4C
78
00
70
10
10
10
10
10
10
10
7C
ENDCHAR
STARTCHAR 012E
ENCODING 302
SWIDTH 540 0
DWIDTH 9 0
BBX 5 16 2 -3
BITMAP
F8
20
20
20
20
20
20
20
20
20
20
F8
40
C0
F0
70
ENDCHAR
STARTCHAR 012F
ENCODING 303
SWIDTH 540 0
DWIDTH 9 0
BBX 5 17 2 -4
BITMAP
20
20
00
00
E0
20
20
20
20
20
20
20
F8
40
C0
F0
70
ENDCHAR
STARTCHAR 0130
ENCODING 304
SWIDTH 540 0
DWIDTH 9 0
BBX 5 16 2 0
BITMAP
20
20
00
00
F8
20
20
20
20
20
20
20
20
20
20
F8
ENDCHAR
STARTCHAR 0131
ENCODING 305
SWIDTH 540 0
DWIDTH 9 0
BBX 5 9 2 0
BITMAP
E0
20
20
20
20
20
20
20
F8
ENDCHAR
STARTCHAR 0132
ENCODING 306
SWIDTH 540 0
DWIDTH 9 0
BBX 8 15 0 -2
BITMAP
FF
21
21
21
21
21
21
21
21
21
21
F9
03
3F
1C
ENDCHAR
STARTCHAR 0133
ENCODING 307
SWIDTH 540 0
DWIDTH 9 0
BBX 8 17 0 -4
BITMAP
33
33
00
00
7F
33
33
33
33
33
33
33
FB
03
03
02
0E
ENDCHAR
STARTCHAR 0134
ENCODING 308
SWIDTH 540 0
DWIDTH 9 0
BBX 6 16 1 0
BITMAP
38
6C
C4
00
3C
0C
0C
0C
0C
0C
0C
0C
0C
0C
8C
F8
ENDCHAR
STARTCHAR 0135
ENCODING 309
SWIDTH 540 0
DWIDTH 9 0
BBX 6 17 1 -4
BITMAP
38
68
CC
00
78
18
18
18
18
18
18
18
18
18
18
10
70
ENDCHAR
STARTCHAR 0136
ENCODING 310
SWIDTH 540 0
DWIDTH 9 0
BBX 7 17 1 -4
BITMAP
C6
CC
D8
D0
F0
E0
F0
D0
D8
C8
CC
C6
00
18
30
30
20
ENDCHAR
STARTCHAR 0137
ENCODING 311
SWIDTH 540 0
DWIDTH 9 0
BBX 7 18 1 -5
BITMAP
C0
C0
C0
C0
C6
CC
D8
F0
E0
F0
D8
CC
C4
02
18
30
30
20
ENDCHAR
STARTCHAR 0138
ENCODING 312
SWIDTH 540 0
DWIDTH 9 0
BBX 7 9 1 0
BITMAP
C6
CC
D8
F0
E0
F0
D8
CC
C4
ENDCHAR
STARTCHAR 0139
ENCODING 313
SWIDTH 540 0
DWIDTH 9 0
BBX 5 16 2 1
BITMAP
30
60
40
00
80
80
80
80
80
80
80
80
80
80
80
F8
ENDCHAR
STARTCHAR 013A
ENCODING 314
SWIDTH 540 0
DWIDTH 9 0
BBX 6 16 1 0
BITMAP
18
30
20
00
F0
30
30
30
30
30
30
30
30
30
30
1C
ENDCHAR
STARTCHAR 013B
ENCODING 315
SWIDTH 540 0
DWIDTH 9 0
BBX 5 17 2 -4
BITMAP
80
80
80
80
80
80
80
80
80
80
80
F8
00
30
60
60
40
ENDCHAR
STARTCHAR 013C
ENCODING 316
SWIDTH 540 0
DWIDTH 9 0
BBX 6 17 1 -4
BITMAP
F0
30
30
30
30
30
30
30
30
30
30
1C
00
18
30
30
20
ENDCHAR
STARTCHAR 013D
ENCODING 317
SWIDTH 540 0
DWIDTH 9 0
BBX 6 12 2 1
BITMAP
9C
98
90
90
80
80
80
80
80
80
80
F8
ENDCHAR
STARTCHAR 013E
ENCODING 318
SWIDTH 540 0
DWIDTH 9 0
BBX 7 12 1 0
BITMAP
E6
24
2C
28
20
20
20
20
20
20
30
3C
ENDCHAR
STARTCHAR 013F
ENCODING 319
SWIDTH 540 0
DWIDTH 9 0
BBX 5 12 2 1
BITMAP
80
80
80
80
98
98
80
80
80
80
80
F8
ENDCHAR
STARTCHAR 0140
ENCODING 320
SWIDTH 540 0
DWIDTH 9 0
BBX 6 12 1 0
BITMAP
E0
20
20
20
24
24
20
20
20
20
30
3C
ENDCHAR
STARTCHAR 0141
ENCODING 321
SWIDTH 540 0
DWIDTH 9 0
BBX 8 12 0 1
BITMAP
30
30
30
34
3C
F0
B0
30
30
30
30
3F
ENDCHAR
STARTCHAR 0142
ENCODING 322
SWIDTH 540 0
DWIDTH 9 0
BBX 6 12 1 0
BITMAP
F0
30
30
34
3C
F0
B0
30
30
30
30
1C
ENDCHAR
STARTCHAR 0143
ENCODING 323
SWIDTH 540 0
DWIDTH 9 0
BBX 6 16 1 1
BITMAP
18
30
20
00
C4
C4
E4
E4
E4
D4
D4
D4
CC
CC
CC
C4
ENDCHAR
STARTCHAR 0144
ENCODING 324
SWIDTH 540 0
DWIDTH 9 0
BBX 6 13 1 0
BITMAP
18
30
20
00
BC
E4
C4
C4
C4
C4
C4
C4
C4
ENDCHAR
STARTCHAR 0145
ENCODING 325
SWIDTH 540 0
DWIDTH 9 0
BBX 6 17 1 -4
BITMAP
C4
C4
E4
E4
E4
D4
D4
D4
CC
CC
CC
C4
00
18
30
30
20
ENDCHAR
STARTCHAR 0146
ENCODING 326
SWIDTH 540 0
DWIDTH 9 0
BBX 6 14 1 -5
BITMAP
BC
E4
C4
C4
C4
C4
C4
C4
C4
00
18
30
30
20
ENDCHAR
STARTCHAR 0147
ENCODING 327
SWIDTH 540 0
DWIDTH 9 0
BBX 6 16 1 1
BITMAP
CC
68
30
00
C4
C4
E4
E4
E4
D4
D4
D4
CC
CC
CC
C4
ENDCHAR
STARTCHAR 0148
ENCODING 328
SWIDTH 540 0
DWIDTH 9 0
BBX 6 13 1 0
BITMAP
CC
68
38
00
BC
E4
C4
C4
C4
C4
C4
C4
C4
ENDCHAR
STARTCHAR 0149
ENCODING 329
SWIDTH 540 0
DWIDTH 9 0
BBX 8 12 0 1
BITMAP
60
40
40
EE
73
63
63
63
63
63
63
63
ENDCHAR
STARTCHAR 014A
ENCODING 330
SWIDTH 540 0
DWIDTH 9 0
BBX 6 16 1 -3
BITMAP
C4
C4
E4
E4
E4
D4
D4
D4
CC
CC
CC
C4
04
04
24
1C
ENDCHAR
STARTCHAR 014B
ENCODING 331
SWIDTH 540 0
DWIDTH 9 0
BBX 6 13 1 -4
BITMAP
BC
E4
C4
C4
C4
C4
C4
C4
C4
04
04
24
1C
ENDCHAR
STARTCHAR 014C
ENCODING 332
SWIDTH 540 0
DWIDTH 9 0
BBX 7 15 1 0
BITMAP
7C
00
30
7C
C4
86
86
86
86
86
86
86
84
CC
78
ENDCHAR
STARTCHAR 014D
ENCODING 333
SWIDTH 540 0
DWIDTH 9 0
BBX 7 12 1 -1
BITMAP
7C
00
00
78
CC
84
86
86
86
84
C4
78
ENDCHAR
STARTCHAR 014E
ENCODING 334
SWIDTH 540 0
DWIDTH 9 0
BBX 7 16 1 0
BITMAP
C4
7C
30
30
7C
C4
86
86
86
86
86
86
86
84
CC
78
ENDCHAR
STARTCHAR 014F
ENCODING 335
SWIDTH 540 0
DWIDTH 9 0
BBX 7 13 1 -1
BITMAP
C4
4C
78
00
78
CC
84
86
86
86
84
C4
78
ENDCHAR
STARTCHAR 0150
ENCODING 336
SWIDTH 540 0
DWIDTH 9 0
BBX 7 16 1 0
BITMAP
7E
48
90
30
7C
C4
86
86
86
86
86
86
86
84
CC
78
ENDCHAR
STARTCHAR 0151
ENCODING 337
SWIDTH 540 0
DWIDTH 9 0
BBX 7 13 1 -1
BITMAP
36
6C
D8
00
78
CC
84
86
86
86
84
C4
78
ENDCHAR
STARTCHAR 0152
ENCODING 338
SWIDTH 540 0
DWIDTH 9 0
BBX 8 13 0 -1
BITMAP
18
3F
6C
4C
4C
4C
4F
CC
4C
4C
4C
6C
3F
ENDCHAR
STARTCHAR 0153
ENCODING 339
SWIDTH 540 0
DWIDTH 9 0
BBX 8 9 0 0
BITMAP
76
59
49
C9
CF
C8
C8
59
77
ENDCHAR
STARTCHAR 0154
ENCODING 340
SWIDTH 540 0
DWIDTH 9 0
BBX 7 16 1 1
BITMAP
18
30
20
70
FC
C4
C6
C6
C4
FC
F8
CC
C4
C4
C6
C6
ENDCHAR
STARTCHAR 0155
ENCODING 341
SWIDTH 540 0
DWIDTH 9 0
BBX 5 13 2 0
BITMAP
30
60
40
00
B8
E0
C0
80
80
80
80
80
80
ENDCHAR
STARTCHAR 0156
ENCODING 342
SWIDTH 540 0
DWIDTH 9 0
BBX 7 18 1 -5
BITMAP
70
FC
C4
C6
C6
C4
FC
F8
CC
C4
C4
C6
C6
00
18
30
30
20
ENDCHAR
STARTCHAR 0157
ENCODING 343
SWIDTH 540 0
DWIDTH 9 0
BBX 5 14 2 -5
BITMAP
B8
E0
C0
80
80
80
80
80
80
00
30
60
60
40
ENDCHAR
STARTCHAR 0158
ENCODING 344
SWIDTH 540 0
DWIDTH 9 0
BBX 7 16 1 1
BITMAP
CC
68
30
70
FC
C4
C6
C6
C4
FC
F8
CC
C4
C4
C6
C6
ENDCHAR
STARTCHAR 0159
ENCODING 345
SWIDTH 540 0
DWIDTH 9 0
BBX 6 13 1 0
BITMAP
CC
68
38
00
5C
70
60
40
40
40
40
40
40
ENDCHAR
STARTCHAR 015A
ENCODING 346
SWIDTH 540 0
DWIDTH 9 0
BBX 6 16 1 0
BITMAP
18
30
20
18
7C
C4
C0
C0
60
30
0C
04
04
04
84
78
ENDCHAR
STARTCHAR 015B
ENCODING 347
SWIDTH 540 0
DWIDTH 9 0
BBX 6 13 1 -1
BITMAP
18
30
20
00
7C
C4
C0
40
38
0C
04
84
FC
ENDCHAR
STARTCHAR 015C
ENCODING 348
SWIDTH 540 0
DWIDTH 9 0
BBX 6 16 1 0
BITMAP
38
6C
C4
18
7C
C4
C0
C0
60
30
0C
04
04
04
84
78
ENDCHAR
STARTCHAR 015D
ENCODING 349
SWIDTH 540 0
DWIDTH 9 0
BBX 6 13 1 -1
BITMAP
38
68
CC
00
7C
C4
C0
40
38
0C
04
84
FC
ENDCHAR
STARTCHAR 015E
ENCODING 350
SWIDTH 540 0
DWIDTH 9 0
BBX 6 17 1 -4
BITMAP
18
7C
C4
C0
C0
60
30
0C
04
04
04
84
78
08
08
58
70
ENDCHAR
STARTCHAR 015F
ENCODING 351
SWIDTH 540 0
DWIDTH 9 0
BBX 6 13 1 -4
BITMAP
7C
C4
C0
40
38
0C
04
84
FC
08
08
58
70
ENDCHAR
STARTCHAR 0160
ENCODING 352
SWIDTH 540 0
DWIDTH 9 0
BBX 6 16 1 0
BITMAP
CC
68
30
18
7C
C4
C0
C0
60
30
0C
04
04
04
84
78
ENDCHAR
STARTCHAR 0161
ENCODING 353
SWIDTH 540 0
DWIDTH 9 0
BBX 6 13 1 -1
BITMAP
CC
68
38
00
7C
C4
C0
40
38
0C
04
84
FC
ENDCHAR
STARTCHAR 0162
ENCODING 354
SWIDTH 540 0
DWIDTH 9 0
BBX 7 16 1 -3
BITMAP
FE
10
10
10
10
10
10
10
10
10
10
10
18
08
58
70
ENDCHAR
STARTCHAR 0163
ENCODING 355
SWIDTH 540 0
DWIDTH 9 0
BBX 6 16 1 -4
BITMAP
20
20
20
3C
FC
20
20
20
20
20
20
3C
08
08
58
70
ENDCHAR
STARTCHAR 0164
ENCODING 356
SWIDTH 540 0
DWIDTH 9 0
BBX 7 16 1 1
BITMAP
CC
68
30
00
FE
10
10
10
10
10
10
10
10
10
10
10
ENDCHAR
STARTCHAR 0165
ENCODING 357
SWIDTH 540 0
DWIDTH 9 0
BBX 7 14 1 -1
BITMAP
06
06
64
6C
60
7C
FC
60
60
60
60
60
20
3C
ENDCHAR
STARTCHAR 0166
ENCODING 358
SWIDTH 540 0
DWIDTH 9 0
BBX 7 12 1 1
BITMAP
FE
10
10
10
10
10
FC
FC
10
10
10
10
ENDCHAR
STARTCHAR 0167
ENCODING 359
SWIDTH 540 0
DWIDTH 9 0
BBX 6 12 1 -1
BITMAP
20
20
20
FC
20
20
FC
FC
20
20
20
3C
ENDCHAR
STARTCHAR 0168
ENCODING 360
SWIDTH 540 0
DWIDTH 9 0
BBX 6 16 1 0
BITMAP
64
DC
08
00
84
84
84
84
84
84
84
84
84
C4
C4
7C
ENDCHAR
STARTCHAR 0169
ENCODING 361
SWIDTH 540 0
DWIDTH 9 0
BBX 6 13 1 -1
BITMAP
40
74
DC
00
84
84
84
84
84
84
84
CC
74
ENDCHAR
STARTCHAR 016A
ENCODING 362
SWIDTH 540 0
DWIDTH 9 0
BBX 6 15 1 0
BITMAP
7C
00
00
84
84
84
84
84
84
84
84
84
C4
C4
7C
ENDCHAR
STARTCHAR 016B
ENCODING 363
SWIDTH 540 0
DWIDTH 9 0
BBX 6 12 1 -1
BITMAP
7C
00
00
84
84
84
84
84
84
84
CC
74
ENDCHAR
STARTCHAR 016C
ENCODING 364
SWIDTH 540 0
DWIDTH 9 0
BBX 6 16 1 0
BITMAP
C4
7C
30
00
84
84
84
84
84
84
84
84
84
C4
C4
7C
ENDCHAR
STARTCHAR 016D
ENCODING 365
SWIDTH 540 0
DWIDTH 9 0
BBX 6 13 1 -1
BITMAP
C4
4C
78
00
84
84
84
84
84
84
84
CC
74
ENDCHAR
STARTCHAR 016E
ENCODING 366
SWIDTH 540 0
DWIDTH 9 0
BBX 6 17 1 0
BITMAP
78
48
48
38
00
84
84
84
84
84
84
84
84
84
C4
C4
7C
ENDCHAR
STARTCHAR 016F
ENCODING 367
SWIDTH 540 0
DWIDTH 9 0
BBX 6 14 1 -1
BITMAP
30
48
48
68
10
84
84
84
84
84
84
84
CC
74
ENDCHAR
STARTCHAR 0170
ENCODING 368
SWIDTH 540 0
DWIDTH 9 0
BBX 7 16 1 0
BITMAP
7E
48
90
00
84
84
84
84
84
84
84
84
84
C4
C4
7C
ENDCHAR
STARTCHAR 0171
ENCODING 369
SWIDTH 540 0
DWIDTH 9 0
BBX 7 13 1 -1
BITMAP
36
6C
D8
00
84
84
84
84
84
84
84
CC
74
ENDCHAR
STARTCHAR 0172
ENCODING 370
SWIDTH 540 0
DWIDTH 9 0
BBX 6 16 1 -3
BITMAP
84
84
84
84
84
84
84
84
84
C4
C4
7C
20
60
78
38
ENDCHAR
STARTCHAR 0173
ENCODING 371
SWIDTH 540 0
DWIDTH 9 0
BBX 7 13 1 -4
BITMAP
84
84
84
84
84
84
84
CC
74
08
10
1A
0E
ENDCHAR
STARTCHAR 0174
ENCODING 372
SWIDTH 540 0
DWIDTH 9 0
BBX 8 16 0 1
BITMAP
1C
36
62
00
C1
49
59
59
5B
57
57
56
56
76
66
66
ENDCHAR
STARTCHAR 0175
ENCODING 373
SWIDTH 540 0
DWIDTH 9 0
BBX 8 13 0 0
BITMAP
1C
34
66
00
D9
59
59
5F
56
56
56
66
26
ENDCHAR
STARTCHAR 0176
ENCODING 374
SWIDTH 540 0
DWIDTH 9 0
BBX 8 16 0 1
BITMAP
1C
36
62
00
C3
62
26
24
14
1C
18
08
08
08
08
08
ENDCHAR
STARTCHAR 0177
ENCODING 375
SWIDTH 540 0
DWIDTH 9 0
BBX 7 17 1 -4
BITMAP
38
68
CC
00
86
C4
44
4C
6C
28
28
38
10
10
30
20
20
ENDCHAR
STARTCHAR 0178
ENCODING 376
SWIDTH 540 0
DWIDTH 9 0
BBX 8 16 0 0
BITMAP
34
34
00
00
C3
62
26
24
14
1C
18
08
08
08
08
08
ENDCHAR
STARTCHAR 0179
ENCODING 377
SWIDTH 540 0
DWIDTH 9 0
BBX 6 16 1 1
BITMAP
18
30
20
00
FC
0C
08
08
18
10
30
20
60
40
C0
FC
ENDCHAR
STARTCHAR 017A
ENCODING 378
SWIDTH 540 0
DWIDTH 9 0
BBX 6 13 1 0
BITMAP
18
30
20
00
FC
0C
08
18
10
20
60
40
FC
ENDCHAR
STARTCHAR 017B
ENCODING 379
SWIDTH 540 0
DWIDTH 9 0
BBX 6 16 1 0
BITMAP
10
10
00
00
FC
0C
08
08
18
10
30
20
60
40
C0
FC
ENDCHAR
STARTCHAR 017C
ENCODING 380
SWIDTH 540 0
DWIDTH 9 0
BBX 6 13 1 0
BITMAP
10
10
10
00
FC
0C
08
18
10
20
60
40
FC
ENDCHAR
STARTCHAR 017D
ENCODING 381
SWIDTH 540 0
DWIDTH 9 0
BBX 6 16 1 1
BITMAP
CC
68
30
00
FC
0C
08
08
18
10
30
20
60
40
C0
FC
ENDCHAR
STARTCHAR 017E
ENCODING 382
SWIDTH 540 0
DWIDTH 9 0
BBX 6 13 1 0
BITMAP
CC
68
38
00
FC
0C
08
18
10
20
60
40
FC
ENDCHAR
STARTCHAR 017F
ENCODING 383
SWIDTH 540 0
DWIDTH 9 0
BBX 4 13 3 0
BITMAP
20
F0
80
80
80
80
80
80
80
80
80
80
80
ENDCHAR
STARTCHAR 018E
ENCODING 398
SWIDTH 540 0
DWIDTH 9 0
BBX 6 12 1 1
BITMAP
FC
04
04
04
04
7C
04
04
04
04
04
FC
ENDCHAR
STARTCHAR 0191
ENCODING 401
SWIDTH 540 0
DWIDTH 9 0
BBX 7 16 0 -3
BITMAP
3E
20
20
20
20
3E
20
20
20
20
20
20
20
20
20
E0
ENDCHAR
STARTCHAR 0192
ENCODING 402
SWIDTH 540 0
DWIDTH 9 0
BBX 7 17 0 -4
BITMAP
06
0E
18
18
1E
7E
18
18
18
18
18
18
18
18
18
90
70
ENDCHAR
STARTCHAR 0193
ENCODING 403
SWIDTH 540 0
DWIDTH 9 0
BBX 7 13 1 1
BITMAP
06
74
4C
C4
84
80
80
9C
9C
84
84
CC
7C
ENDCHAR
STARTCHAR 01A0
ENCODING 416
SWIDTH 540 0
DWIDTH 9 0
BBX 7 13 1 0
BITMAP
32
7A
CE
86
84
84
84
84
84
84
84
CC
78
ENDCHAR
STARTCHAR 01A1
ENCODING 417
SWIDTH 540 0
DWIDTH 9 0
BBX 7 10 1 -1
BITMAP
02
7A
CA
8E
86
84
84
8C
C8
78
ENDCHAR
STARTCHAR 01AF
ENCODING 431
SWIDTH 540 0
DWIDTH 9 0
BBX 7 13 1 0
BITMAP
02
8E
8E
8E
8C
8C
8C
8C
8C
8C
8C
C8
78
ENDCHAR
STARTCHAR 01B0
ENCODING 432
SWIDTH 540 0
DWIDTH 9 0
BBX 7 10 1 -1
BITMAP
02
8E
8E
8E
8E
8C
8C
8C
DC
FC
ENDCHAR
STARTCHAR 01BF
ENCODING 447
SWIDTH 540 0
DWIDTH 9 0
BBX 7 13 1 -3
BITMAP
DC
E6
C6
C6
C6
C6
C4
C8
D8
E0
C0
C0
C0
ENDCHAR
STARTCHAR 01C0
ENCODING 448
SWIDTH 540 0
DWIDTH 9 0
BBX 1 18 4 -4
BITMAP
80
80
80
80
80
80
80
80
80
80
80
80
80
80
80
80
80
80
ENDCHAR
STARTCHAR 01C1
ENCODING 449
SWIDTH 540 0
DWIDTH 9 0
BBX 5 18 2 -4
BITMAP
98
98
98
98
98
98
98
98
98
98
98
98
98
98
98
98
98
98
ENDCHAR
STARTCHAR 01C2
ENCODING 450
SWIDTH 540 0
DWIDTH 9 0
BBX 7 18 1 -4
BITMAP
10
10
10
10
10
10
FE
FE
10
10
FE
FE
10
10
10
10
10
10
ENDCHAR
STARTCHAR 01C3
ENCODING 451
SWIDTH 540 0
DWIDTH 9 0
BBX 2 12 3 1
BITMAP
C0
C0
C0
C0
C0
40
40
40
00
00
C0
C0
ENDCHAR
STARTCHAR 01CD
ENCODING 461
SWIDTH 540 0
DWIDTH 9 0
BBX 8 16 0 1
BITMAP
66
34
18
00
18
1C
14
34
24
26
26
7E
62
43
43
C1
ENDCHAR
STARTCHAR 01CE
ENCODING 462
SWIDTH 540 0
DWIDTH 9 0
BBX 6 13 1 -1
BITMAP
CC
68
38
00
78
84
04
3C
64
84
84
CC
74
ENDCHAR
STARTCHAR 01CF
ENCODING 463
SWIDTH 540 0
DWIDTH 9 0
BBX 6 16 1 1
BITMAP
CC
68
30
00
7C
10
10
10
10
10
10
10
10
10
10
7C
ENDCHAR
STARTCHAR 01D0
ENCODING 464
SWIDTH 540 0
DWIDTH 9 0
BBX 6 13 1 0
BITMAP
CC
68
38
00
70
10
10
10
10
10
10
10
7C
ENDCHAR
STARTCHAR 01D1
ENCODING 465
SWIDTH 540 0
DWIDTH 9 0
BBX 7 16 1 0
BITMAP
CC
68
30
30
7C
C4
86
86
86
86
86
86
86
84
CC
78
ENDCHAR
STARTCHAR 01D2
ENCODING 466
SWIDTH 540 0
DWIDTH 9 0
BBX 7 13 1 -1
BITMAP
CC
68
38
00
78
CC
84
86
86
86
84
C4
78
ENDCHAR
STARTCHAR 01D3
ENCODING 467
SWIDTH 540 0
DWIDTH 9 0
BBX 6 16 1 0
BITMAP
CC
68
30
00
84
84
84
84
84
84
84
84
84
C4
C4
7C
ENDCHAR
STARTCHAR 01D4
ENCODING 468
SWIDTH 540 0
DWIDTH 9 0
BBX 6 13 1 -1
BITMAP
CC
68
38
00
84
84
84
84
84
84
84
CC
74
ENDCHAR
STARTCHAR 01D5
ENCODING 469
SWIDTH 540 0
DWIDTH 9 0
BBX 6 18 1 -1
BITMAP
7C
00
00
68
68
00
84
84
84
84
84
84
84
84
84
C4
C4
7C
ENDCHAR
STARTCHAR 01D6
ENCODING 470
SWIDTH 540 0
DWIDTH 9 0
BBX 6 14 1 0
BITMAP
7C
00
68
68
00
84
84
84
84
84
84
84
CC
74
ENDCHAR
STARTCHAR 01D7
ENCODING 471
SWIDTH 540 0
DWIDTH 9 0
BBX 6 18 1 0
BITMAP
1C
10
20
68
68
00
84
84
84
84
84
84
84
84
84
C4
C4
7C
ENDCHAR
STARTCHAR 01D8
ENCODING 472
SWIDTH 540 0
DWIDTH 9 0
BBX 6 15 1 0
BITMAP
1C
10
20
68
68
00
84
84
84
84
84
84
84
CC
74
ENDCHAR
STARTCHAR 01D9
ENCODING 473
SWIDTH 540 0
DWIDTH 9 0
BBX 6 18 1 0
BITMAP
EC
38
00
68
68
00
84
84
84
84
84
84
84
84
84
C4
C4
7C
ENDCHAR
STARTCHAR 01DA
ENCODING 474
SWIDTH 540 0
DWIDTH 9 0
BBX 6 15 1 0
BITMAP
CC
38
00
68
68
00
84
84
84
84
84
84
84
CC
74
ENDCHAR
STARTCHAR 01DB
ENCODING 475
SWIDTH 540 0
DWIDTH 9 0
BBX 6 18 1 0
BITMAP
E0
30
00
68
68
00
84
84
84
84
84
84
84
84
84
C4
C4
7C
ENDCHAR
STARTCHAR 01DC
ENCODING 476
SWIDTH 540 0
DWIDTH 9 0
BBX 6 15 1 0
BITMAP
E0
30
00
68
68
00
84
84
84
84
84
84
84
CC
74
ENDCHAR
STARTCHAR 01DD
ENCODING 477
SWIDTH 540 0
DWIDTH 9 0
BBX 7 9 1 -1
BITMAP
78
8C
04
06
FE
86
C4
44
78
ENDCHAR
STARTCHAR 01DE
ENCODING 478
SWIDTH 540 0
DWIDTH 9 0
BBX 8 18 0 0
BITMAP
3E
00
00
34
34
00
18
1C
14
34
24
26
26
7E
62
43
43
C1
ENDCHAR
STARTCHAR 01DF
ENCODING 479
SWIDTH 540 0
DWIDTH 9 0
BBX 6 14 1 0
BITMAP
7C
00
68
68
00
78
84
04
3C
64
84
84
CC
74
ENDCHAR
STARTCHAR 01F7
ENCODING 503
SWIDTH 540 0
DWIDTH 9 0
BBX 7 17 1 -4
BITMAP
08
FC
C6
C2
C2
C6
C4
CC
D8
F0
E0
C0
C0
C0
C0
C0
C0
ENDCHAR
STARTCHAR 01F8
ENCODING 504
SWIDTH 540 0
DWIDTH 9 0
BBX 6 16 1 1
BITMAP
70
10
08
00
C4
C4
E4
E4
E4
D4
D4
D4
CC
CC
CC
C4
ENDCHAR
STARTCHAR 01F9
ENCODING 505
SWIDTH 540 0
DWIDTH 9 0
BBX 6 13 1 0
BITMAP
60
30
18
00
BC
E4
C4
C4
C4
C4
C4
C4
C4
ENDCHAR
STARTCHAR 01FA
ENCODING 506
SWIDTH 540 0
DWIDTH 9 0
BBX 8 18 0 1
BITMAP
0E
18
18
24
24
34
18
1C
14
34
24
26
26
7E
62
43
43
C1
ENDCHAR
STARTCHAR 01FB
ENCODING 507
SWIDTH 540 0
DWIDTH 9 0
BBX 6 16 1 0
BITMAP
1C
30
38
48
48
78
20
78
84
04
3C
64
84
84
CC
74
ENDCHAR
STARTCHAR 01FC
ENCODING 508
SWIDTH 540 0
DWIDTH 9 0
BBX 8 16 0 1
BITMAP
0C
18
10
00
1F
1C
3C
2C
2C
2F
2C
7C
4C
4C
4C
CF
ENDCHAR
STARTCHAR 01FD
ENCODING 509
SWIDTH 540 0
DWIDTH 9 0
BBX 8 13 0 -1
BITMAP
0C
18
10
00
76
99
09
39
4F
C8
C8
D9
77
ENDCHAR
STARTCHAR 01FE
ENCODING 510
SWIDTH 540 0
DWIDTH 9 0
BBX 8 17 0 0
BITMAP
0C
18
10
19
3F
62
47
47
4F
4B
5B
53
73
62
66
7C
80
ENDCHAR
STARTCHAR 01FF
ENCODING 511
SWIDTH 540 0
DWIDTH 9 0
BBX 7 14 1 -1
BITMAP
18
30
20
00
7E
CC
8C
9E
96
A6
E4
C4
F8
80
ENDCHAR
STARTCHAR 0218
ENCODING 536
SWIDTH 540 0
DWIDTH 9 0
BBX 6 18 1 -5
BITMAP
18
7C
C4
C0
C0
60
30
0C
04
04
04
84
78
00
18
30
30
20
ENDCHAR
STARTCHAR 0219
ENCODING 537
SWIDTH 540 0
DWIDTH 9 0
BBX 6 14 1 -5
BITMAP
7C
C4
C0
40
38
0C
04
84
FC
00
18
30
30
20
ENDCHAR
STARTCHAR 021A
ENCODING 538
SWIDTH 540 0
DWIDTH 9 0
BBX 7 17 1 -4
BITMAP
FE
10
10
10
10
10
10
10
10
10
10
10
00
18
30
30
20
ENDCHAR
STARTCHAR 021B
ENCODING 539
SWIDTH 540 0
DWIDTH 9 0
BBX 6 17 1 -5
BITMAP
20
20
20
3C
FC
20
20
20
20
20
20
3C
00
18
30
30
20
ENDCHAR
STARTCHAR 021C
ENCODING 540
SWIDTH 540 0
DWIDTH 9 0
BBX 6 17 1 -5
BITMAP
10
FC
84
04
04
0C
08
38
6C
84
04
04
04
0C
18
70
C0
ENDCHAR
STARTCHAR 021D
ENCODING 541
SWIDTH 540 0
DWIDTH 9 0
BBX 6 13 1 -5
BITMAP
78
CC
04
0C
08
38
6C
04
04
0C
18
70
C0
ENDCHAR
STARTCHAR 021E
ENCODING 542
SWIDTH 540 0
DWIDTH 9 0
BBX 6 16 1 1
BITMAP
CC
68
30
00
84
84
84
84
84
FC
84
84
84
84
84
84
ENDCHAR
STARTCHAR 021F
ENCODING 543
SWIDTH 540 0
DWIDTH 9 0
BBX 6 16 1 1
BITMAP
CC
68
30
C0
C0
C0
C0
FC
E4
C4
C4
C4
C4
C4
C4
C4
ENDCHAR
STARTCHAR 0230
ENCODING 560
SWIDTH 540 0
DWIDTH 9 0
BBX 7 18 1 -1
BITMAP
7C
00
00
10
10
30
7C
C4
86
86
86
86
86
86
86
84
CC
78
ENDCHAR
STARTCHAR 0231
ENCODING 561
SWIDTH 540 0
DWIDTH 9 0
BBX 7 14 1 0
BITMAP
7C
00
10
10
00
78
CC
84
86
86
86
84
C4
78
ENDCHAR
STARTCHAR 0232
ENCODING 562
SWIDTH 540 0
DWIDTH 9 0
BBX 8 15 0 1
BITMAP
3E
00
00
C3
62
26
24
14
1C
18
08
08
08
08
08
ENDCHAR
STARTCHAR 0233
ENCODING 563
SWIDTH 540 0
DWIDTH 9 0
BBX 7 16 1 -4
BITMAP
7C
00
00
86
C4
44
4C
6C
28
28
38
10
10
30
20
20
ENDCHAR
STARTCHAR 0237
ENCODING 567
SWIDTH 540 0
DWIDTH 9 0
BBX 4 13 2 -4
BITMAP
F0
30
30
30
30
30
30
30
30
30
30
20
E0
ENDCHAR
STARTCHAR 0250
ENCODING 592
SWIDTH 540 0
DWIDTH 9 0
BBX 6 9 1 -1
BITMAP
BC
E4
C4
C4
CC
F8
C0
C4
7C
ENDCHAR
STARTCHAR 0251
ENCODING 593
SWIDTH 540 0
DWIDTH 9 0
BBX 7 9 1 -1
BITMAP
76
CE
C6
86
86
86
86
CE
7E
ENDCHAR
STARTCHAR 0252
ENCODING 594
SWIDTH 540 0
DWIDTH 9 0
BBX 7 9 1 -1
BITMAP
B8
CC
C4
86
86
86
C4
CC
B8
ENDCHAR
STARTCHAR 0253
ENCODING 595
SWIDTH 540 0
DWIDTH 9 0
BBX 7 13 1 -1
BITMAP
70
D0
80
80
B8
EC
C6
C6
86
86
C6
CC
B8
ENDCHAR
STARTCHAR 0254
ENCODING 596
SWIDTH 540 0
DWIDTH 9 0
BBX 6 9 1 -1
BITMAP
78
8C
04
04
04
04
04
8C
78
ENDCHAR
STARTCHAR 0255
ENCODING 597
SWIDTH 540 0
DWIDTH 9 0
BBX 7 11 1 -2
BITMAP
3C
64
40
C0
C0
CC
56
76
3C
30
30
ENDCHAR
STARTCHAR 0256
ENCODING 598
SWIDTH 540 0
DWIDTH 9 0
BBX 7 15 1 -2
BITMAP
0C
0C
0C
0C
7C
DC
8C
8C
8C
8C
8C
CC
7C
06
06
ENDCHAR
STARTCHAR 0257
ENCODING 599
SWIDTH 540 0
DWIDTH 9 0
BBX 7 13 1 -1
BITMAP
06
0C
0C
0C
7C
DC
8C
8C
8C
8C
8C
CC
7C
ENDCHAR
STARTCHAR 0258
ENCODING 600
SWIDTH 540 0
DWIDTH 9 0
BBX 7 9 1 -1
BITMAP
78
4C
C4
86
FE
06
04
8C
78
ENDCHAR
STARTCHAR 0259
ENCODING 601
SWIDTH 540 0
DWIDTH 9 0
BBX 7 9 1 -1
BITMAP
78
8C
04
06
FE
86
C4
44
78
ENDCHAR
STARTCHAR 025A
ENCODING 602
SWIDTH 540 0
DWIDTH 9 0
BBX 7 11 1 -1
BITMAP
04
0C
FC
9E
0A
08
FC
8C
88
88
70
ENDCHAR
STARTCHAR 025B
ENCODING 603
SWIDTH 540 0
DWIDTH 9 0
BBX 6 9 1 -1
BITMAP
7C
C4
C0
60
38
C0
C0
C4
7C
ENDCHAR
STARTCHAR 025C
ENCODING 604
SWIDTH 540 0
DWIDTH 9 0
BBX 6 9 1 -1
BITMAP
F8
8C
04
0C
78
0C
04
04
F8
ENDCHAR
STARTCHAR 025D
ENCODING 605
SWIDTH 540 0
DWIDTH 9 0
BBX 8 11 0 -1
BITMAP
02
06
7E
8F
05
0C
38
04
04
84
78
ENDCHAR
STARTCHAR 025E
ENCODING 606
SWIDTH 540 0
DWIDTH 9 0
BBX 7 9 1 -1
BITMAP
3C
C6
86
84
BC
86
82
C6
7C
ENDCHAR
STARTCHAR 025F
ENCODING 607
SWIDTH 540 0
DWIDTH 9 0
BBX 6 13 1 -4
BITMAP
78
18
18
1C
FC
18
18
18
18
18
18
18
70
ENDCHAR
STARTCHAR 0260
ENCODING 608
SWIDTH 540 0
DWIDTH 9 0
BBX 8 15 0 -4
BITMAP
01
03
3A
6E
46
C2
C2
C2
46
66
3A
02
06
44
78
ENDCHAR
STARTCHAR 0261
ENCODING 609
SWIDTH 540 0
DWIDTH 9 0
BBX 6 13 1 -4
BITMAP
74
CC
84
84
84
84
84
CC
74
04
04
4C
78
ENDCHAR
STARTCHAR 0262
ENCODING 610
SWIDTH 540 0
DWIDTH 9 0
BBX 7 9 1 -1
BITMAP
3C
64
C0
80
9E
86
86
C6
7E
ENDCHAR
STARTCHAR 0263
ENCODING 611
SWIDTH 540 0
DWIDTH 9 0
BBX 7 13 1 -4
BITMAP
86
C4
4C
68
28
30
30
30
38
28
48
68
38
ENDCHAR
STARTCHAR 0264
ENCODING 612
SWIDTH 540 0
DWIDTH 9 0
BBX 8 9 0 0
BITMAP
E7
14
18
18
1C
14
24
34
1C
ENDCHAR
STARTCHAR 0265
ENCODING 613
SWIDTH 540 0
DWIDTH 9 0
BBX 6 13 1 -4
BITMAP
84
84
84
84
84
84
84
CC
74
04
04
04
04
ENDCHAR
STARTCHAR 0266
ENCODING 614
SWIDTH 540 0
DWIDTH 9 0
BBX 6 13 1 0
BITMAP
70
D0
C0
C0
FC
E4
C4
C4
C4
C4
C4
C4
C4
ENDCHAR
STARTCHAR 0267
ENCODING 615
SWIDTH 540 0
DWIDTH 9 0
BBX 6 17 1 -4
BITMAP
70
D0
C0
C0
FC
E4
C4
C4
C4
C4
C4
C4
C4
04
04
24
1C
ENDCHAR
STARTCHAR 0268
ENCODING 616
SWIDTH 540 0
DWIDTH 9 0
BBX 6 13 1 0
BITMAP
10
10
00
00
70
10
10
1C
FC
10
10
10
7C
ENDCHAR
STARTCHAR 0269
ENCODING 617
SWIDTH 540 0
DWIDTH 9 0
BBX 4 9 3 -1
BITMAP
80
80
80
80
80
80
80
C0
F0
ENDCHAR
STARTCHAR 026A
ENCODING 618
SWIDTH 540 0
DWIDTH 9 0
BBX 5 9 2 0
BITMAP
F8
20
20
20
20
20
20
20
F8
ENDCHAR
STARTCHAR 026B
ENCODING 619
SWIDTH 540 0
DWIDTH 9 0
BBX 7 12 1 0
BITMAP
F0
30
30
30
70
F2
BC
30
30
30
30
1C
ENDCHAR
STARTCHAR 026C
ENCODING 620
SWIDTH 540 0
DWIDTH 9 0
BBX 8 12 0 0
BITMAP
78
18
18
78
58
D8
7F
18
18
18
18
0E
ENDCHAR
STARTCHAR 026D
ENCODING 621
SWIDTH 540 0
DWIDTH 9 0
BBX 6 16 1 -3
BITMAP
F0
30
30
30
30
30
30
30
30
30
30
30
30
30
14
1C
ENDCHAR
STARTCHAR 026E
ENCODING 622
SWIDTH 540 0
DWIDTH 9 0
BBX 8 16 0 -3
BITMAP
E0
20
20
3F
23
22
24
2C
2C
26
23
39
01
03
13
1E
ENDCHAR
STARTCHAR 026F
ENCODING 623
SWIDTH 540 0
DWIDTH 9 0
BBX 8 9 0 -1
BITMAP
C9
C9
C9
C9
C9
C9
D9
DB
6D
ENDCHAR
STARTCHAR 0270
ENCODING 624
SWIDTH 540 0
DWIDTH 9 0
BBX 8 13 0 -4
BITMAP
C9
C9
C9
C9
C9
C9
D9
DB
6D
01
01
01
01
ENDCHAR
STARTCHAR 0271
ENCODING 625
SWIDTH 540 0
DWIDTH 9 0
BBX 8 13 0 -3
BITMAP
F7
DD
C9
C9
C9
C9
C9
C9
C9
01
01
13
0E
ENDCHAR
STARTCHAR 0272
ENCODING 626
SWIDTH 540 0
DWIDTH 9 0
BBX 8 13 0 -4
BITMAP
2E
33
31
21
21
21
21
21
21
20
20
20
E0
ENDCHAR
STARTCHAR 0273
ENCODING 627
SWIDTH 540 0
DWIDTH 9 0
BBX 7 13 1 -4
BITMAP
B8
C8
8C
8C
8C
8C
8C
8C
8C
0C
0C
04
06
ENDCHAR
STARTCHAR 0274
ENCODING 628
SWIDTH 540 0
DWIDTH 9 0
BBX 6 9 1 0
BITMAP
C4
C4
E4
E4
D4
D4
CC
CC
C4
ENDCHAR
STARTCHAR 0275
ENCODING 629
SWIDTH 540 0
DWIDTH 9 0
BBX 7 9 1 -1
BITMAP
78
CC
84
86
FE
86
84
C4
78
ENDCHAR
STARTCHAR 0276
ENCODING 630
SWIDTH 540 0
DWIDTH 9 0
BBX 8 9 0 -1
BITMAP
7F
58
48
C8
CF
C8
C8
48
7F
ENDCHAR
STARTCHAR 0277
ENCODING 631
SWIDTH 540 0
DWIDTH 9 0
BBX 8 9 0 -1
BITMAP
3C
66
43
C9
C9
C9
D9
5B
76
ENDCHAR
STARTCHAR 0278
ENCODING 632
SWIDTH 540 0
DWIDTH 9 0
BBX 8 17 0 -4
BITMAP
08
08
08
08
3C
6A
4B
C9
C9
C9
49
6A
3E
08
08
08
08
ENDCHAR
STARTCHAR 0279
ENCODING 633
SWIDTH 540 0
DWIDTH 9 0
BBX 6 9 1 -1
BITMAP
0C
0C
0C
0C
0C
0C
0C
1C
EC
ENDCHAR
STARTCHAR 027A
ENCODING 634
SWIDTH 540 0
DWIDTH 9 0
BBX 6 12 1 0
BITMAP
0C
0C
0C
0C
0C
0C
0C
0C
0C
0C
1C
EC
ENDCHAR
STARTCHAR 027B
ENCODING 635
SWIDTH 540 0
DWIDTH 9 0
BBX 8 11 0 -2
BITMAP
04
04
04
04
04
0C
0C
14
F4
07
07
ENDCHAR
STARTCHAR 027C
ENCODING 636
SWIDTH 540 0
DWIDTH 9 0
BBX 5 13 2 -4
BITMAP
B8
E0
C0
80
80
80
80
80
80
80
80
80
80
ENDCHAR
STARTCHAR 027D
ENCODING 637
SWIDTH 540 0
DWIDTH 9 0
BBX 5 13 2 -4
BITMAP
B8
E0
C0
80
80
80
80
80
80
80
80
D0
70
ENDCHAR
STARTCHAR 027E
ENCODING 638
SWIDTH 540 0
DWIDTH 9 0
BBX 4 9 3 0
BITMAP
70
C0
80
80
80
80
80
80
80
ENDCHAR
STARTCHAR 027F
ENCODING 639
SWIDTH 540 0
DWIDTH 9 0
BBX 3 9 2 1
BITMAP
E0
20
20
20
20
20
20
20
20
ENDCHAR
STARTCHAR 0280
ENCODING 640
SWIDTH 540 0
DWIDTH 9 0
BBX 7 9 1 0
BITMAP
F8
C4
C6
C4
FC
C8
C4
C4
C6
ENDCHAR
STARTCHAR 0281
ENCODING 641
SWIDTH 540 0
DWIDTH 9 0
BBX 7 9 1 -1
BITMAP
C6
C4
C4
C8
F8
C4
C6
C4
FC
ENDCHAR
STARTCHAR 0282
ENCODING 642
SWIDTH 540 0
DWIDTH 9 0
BBX 6 13 1 -4
BITMAP
7C
C4
C0
60
38
0C
C4
C4
FC
C0
C0
50
70
ENDCHAR
STARTCHAR 0283
ENCODING 643
SWIDTH 540 0
DWIDTH 9 0
BBX 8 17 0 -4
BITMAP
06
0F
08
08
08
08
08
08
08
08
08
08
08
08
08
98
70
ENDCHAR
STARTCHAR 0284
ENCODING 644
SWIDTH 540 0
DWIDTH 9 0
BBX 8 17 0 -4
BITMAP
06
0F
08
08
08
08
08
0E
7E
08
08
08
08
08
08
98
70
ENDCHAR
STARTCHAR 0285
ENCODING 645
SWIDTH 540 0
DWIDTH 9 0
BBX 6 9 1 0
BITMAP
E0
30
10
10
10
10
10
10
1C
ENDCHAR
STARTCHAR 0286
ENCODING 646
SWIDTH 540 0
DWIDTH 9 0
BBX 7 17 1 -4
BITMAP
0C
1E
10
10
10
10
10
10
10
10
10
10
10
FE
90
B0
E0
ENDCHAR
STARTCHAR 0287
ENCODING 647
SWIDTH 540 0
DWIDTH 9 0
BBX 6 12 1 -2
BITMAP
F0
18
18
18
18
18
18
FC
FC
18
18
18
ENDCHAR
STARTCHAR 0288
ENCODING 648
SWIDTH 540 0
DWIDTH 9 0
BBX 6 16 1 -4
BITMAP
20
20
20
3C
FC
20
20
20
20
20
20
20
20
20
24
1C
ENDCHAR
STARTCHAR 0289
ENCODING 649
SWIDTH 540 0
DWIDTH 9 0
BBX 8 9 0 -1
BITMAP
62
62
62
63
FF
62
62
66
3A
ENDCHAR
STARTCHAR 028A
ENCODING 650
SWIDTH 540 0
DWIDTH 9 0
BBX 7 9 1 -1
BITMAP
EE
68
C4
84
86
86
86
C4
78
ENDCHAR
STARTCHAR 028B
ENCODING 651
SWIDTH 540 0
DWIDTH 9 0
BBX 6 9 1 -1
BITMAP
CC
C4
C4
C4
C4
C4
C4
CC
78
ENDCHAR
STARTCHAR 028C
ENCODING 652
SWIDTH 540 0
DWIDTH 9 0
BBX 7 9 1 0
BITMAP
30
38
28
68
48
4C
44
C4
86
ENDCHAR
STARTCHAR 028D
ENCODING 653
SWIDTH 540 0
DWIDTH 9 0
BBX 8 9 0 0
BITMAP
26
76
56
56
56
5B
5B
59
D9
ENDCHAR
STARTCHAR 028E
ENCODING 654
SWIDTH 540 0
DWIDTH 9 0
BBX 7 13 1 0
BITMAP
08
18
10
10
30
30
30
68
48
4C
CC
C4
86
ENDCHAR
STARTCHAR 028F
ENCODING 655
SWIDTH 540 0
DWIDTH 9 0
BBX 7 9 1 0
BITMAP
86
C4
4C
28
30
10
10
10
10
ENDCHAR
STARTCHAR 0290
ENCODING 656
SWIDTH 540 0
DWIDTH 9 0
BBX 7 13 1 -4
BITMAP
FC
0C
08
10
30
20
40
C0
F8
08
0C
0E
06
ENDCHAR
STARTCHAR 0291
ENCODING 657
SWIDTH 540 0
DWIDTH 9 0
BBX 7 11 1 -2
BITMAP
FC
0C
18
10
30
6E
5A
D2
FC
10
10
ENDCHAR
STARTCHAR 0292
ENCODING 658
SWIDTH 540 0
DWIDTH 9 0
BBX 6 13 1 -4
BITMAP
FC
04
08
18
30
30
3C
04
04
04
04
4C
78
ENDCHAR
STARTCHAR 0293
ENCODING 659
SWIDTH 540 0
DWIDTH 9 0
BBX 6 14 1 -6
BITMAP
FC
04
08
18
30
30
3C
04
04
E4
B4
DC
78
10
ENDCHAR
STARTCHAR 0294
ENCODING 660
SWIDTH 540 0
DWIDTH 9 0
BBX 8 13 0 0
BITMAP
18
7E
82
03
03
02
06
1C
18
18
18
18
18
ENDCHAR
STARTCHAR 0295
ENCODING 661
SWIDTH 540 0
DWIDTH 9 0
BBX 7 13 1 0
BITMAP
10
7E
C2
80
80
80
C0
70
10
10
10
10
10
ENDCHAR
STARTCHAR 0296
ENCODING 662
SWIDTH 540 0
DWIDTH 9 0
BBX 7 12 1 0
BITMAP
30
30
30
30
30
0C
04
06
06
06
8C
F8
ENDCHAR
STARTCHAR 0297
ENCODING 663
SWIDTH 540 0
DWIDTH 9 0
BBX 6 17 1 -4
BITMAP
18
3C
60
40
40
C0
C0
C0
C0
C0
C0
C0
40
40
40
64
3C
ENDCHAR
STARTCHAR 0298
ENCODING 664
SWIDTH 540 0
DWIDTH 9 0
BBX 7 13 1 -1
BITMAP
30
7C
C4
86
86
86
B6
B6
86
86
84
CC
78
ENDCHAR
STARTCHAR 0299
ENCODING 665
SWIDTH 540 0
DWIDTH 9 0
BBX 7 9 1 -1
BITMAP
F8
CC
C4
CC
F8
C4
C6
C4
FC
ENDCHAR
STARTCHAR 029A
ENCODING 666
SWIDTH 540 0
DWIDTH 9 0
BBX 8 9 0 -1
BITMAP
3C
46
43
63
3B
43
43
C6
7C
ENDCHAR
STARTCHAR 029B
ENCODING 667
SWIDTH 540 0
DWIDTH 9 0
BBX 7 13 1 -1
BITMAP
02
06
0C
0C
3C
C0
80
80
9C
84
84
C4
7C
ENDCHAR
STARTCHAR 029C
ENCODING 668
SWIDTH 540 0
DWIDTH 9 0
BBX 6 9 1 0
BITMAP
84
84
84
84
FC
84
84
84
84
ENDCHAR
STARTCHAR 029D
ENCODING 669
SWIDTH 540 0
DWIDTH 9 0
BBX 7 17 1 -4
BITMAP
18
18
00
00
78
18
18
18
18
18
18
18
18
7E
D8
D0
70
ENDCHAR
STARTCHAR 029E
ENCODING 670
SWIDTH 540 0
DWIDTH 9 0
BBX 6 13 1 -4
BITMAP
C4
44
24
14
1C
14
24
64
C4
04
04
04
04
ENDCHAR
STARTCHAR 029F
ENCODING 671
SWIDTH 540 0
DWIDTH 9 0
BBX 5 9 2 0
BITMAP
80
80
80
80
80
80
80
80
F8
ENDCHAR
STARTCHAR 02A0
ENCODING 672
SWIDTH 540 0
DWIDTH 9 0
BBX 8 15 0 -4
BITMAP
01
03
3A
66
46
C2
C2
C2
46
66
3A
02
02
02
02
ENDCHAR
STARTCHAR 02A1
ENCODING 673
SWIDTH 540 0
DWIDTH 9 0
BBX 8 13 0 0
BITMAP
18
7E
82
03
03
02
06
1C
18
7E
18
18
18
ENDCHAR
STARTCHAR 02A2
ENCODING 674
SWIDTH 540 0
DWIDTH 9 0
BBX 7 13 1 0
BITMAP
10
7E
C2
80
80
80
C0
70
10
FC
10
10
10
ENDCHAR
STARTCHAR 02A3
ENCODING 675
SWIDTH 540 0
DWIDTH 9 0
BBX 8 13 0 -1
BITMAP
08
08
08
08
6F
59
5B
DA
CA
CE
5C
5C
6F
ENDCHAR
STARTCHAR 02A4
ENCODING 676
SWIDTH 540 0
DWIDTH 9 0
BBX 8 17 0 -4
BITMAP
08
08
08
08
6F
59
5A
DE
CC
CE
5B
59
69
01
01
13
0E
ENDCHAR
STARTCHAR 02A5
ENCODING 677
SWIDTH 540 0
DWIDTH 9 0
BBX 8 15 0 -2
BITMAP
18
18
18
18
7F
5B
5A
DA
DE
DF
5D
5D
6F
0C
0C
ENDCHAR
STARTCHAR 02A6
ENCODING 678
SWIDTH 540 0
DWIDTH 9 0
BBX 8 12 0 -1
BITMAP
60
60
60
6F
F9
68
6C
66
63
61
61
3E
ENDCHAR
STARTCHAR 02A7
ENCODING 679
SWIDTH 540 0
DWIDTH 9 0
BBX 8 17 0 -4
BITMAP
03
67
64
64
64
FC
64
64
64
64
64
64
3C
04
04
24
18
ENDCHAR
STARTCHAR 02A8
ENCODING 680
SWIDTH 540 0
DWIDTH 9 0
BBX 8 14 0 -2
BITMAP
40
40
40
77
FD
48
48
48
4B
4D
6D
3E
04
04
ENDCHAR
STARTCHAR 02A9
ENCODING 681
SWIDTH 540 0
DWIDTH 9 0
BBX 8 17 0 -4
BITMAP
10
38
60
60
FE
6B
69
69
69
69
69
69
69
01
01
13
0E
ENDCHAR
STARTCHAR 02AA
ENCODING 682
SWIDTH 540 0
DWIDTH 9 0
BBX 8 12 0 0
BITMAP
E0
20
20
2E
2A
38
28
2E
23
23
23
3E
ENDCHAR
STARTCHAR 02AB
ENCODING 683
SWIDTH 540 0
DWIDTH 9 0
BBX 8 12 0 1
BITMAP
E0
20
20
2F
23
22
22
26
24
24
28
3F
ENDCHAR
STARTCHAR 02AC
ENCODING 684
SWIDTH 540 0
DWIDTH 9 0
BBX 8 13 0 0
BITMAP
D9
59
5B
57
56
76
FF
59
59
57
56
76
26
ENDCHAR
STARTCHAR 02AD
ENCODING 685
SWIDTH 540 0
DWIDTH 9 0
BBX 6 10 1 1
BITMAP
FC
84
84
84
00
00
FC
84
84
84
ENDCHAR
STARTCHAR 02AE
ENCODING 686
SWIDTH 540 0
DWIDTH 9 0
BBX 8 17 0 -4
BITMAP
C0
60
20
20
21
21
21
21
21
23
23
23
3D
01
01
01
01
ENDCHAR
STARTCHAR 02AF
ENCODING 687
SWIDTH 540 0
DWIDTH 9 0
BBX 8 17 0 -5
BITMAP
C0
60
20
20
22
22
22
22
22
22
26
26
3A
02
02
02
03
ENDCHAR
STARTCHAR 02B0
ENCODING 688
SWIDTH 540 0
DWIDTH 9 0
BBX 4 8 2 4
BITMAP
80
80
80
F0
90
90
90
90
ENDCHAR
STARTCHAR 02B1
ENCODING 689
SWIDTH 540 0
DWIDTH 9 0
BBX 4 8 2 4
BITMAP
60
80
80
F0
90
90
90
90
ENDCHAR
STARTCHAR 02B2
ENCODING 690
SWIDTH 540 0
DWIDTH 9 0
BBX 2 11 3 2
BITMAP
40
40
00
C0
40
40
40
40
40
40
80
ENDCHAR
STARTCHAR 02B3
ENCODING 691
SWIDTH 540 0
DWIDTH 9 0
BBX 3 5 3 5
BITMAP
E0
80
80
80
80
ENDCHAR
STARTCHAR 02B4
ENCODING 692
SWIDTH 540 0
DWIDTH 9 0
BBX 4 5 2 5
BITMAP
10
10
10
30
D0
ENDCHAR
STARTCHAR 02B5
ENCODING 693
SWIDTH 540 0
DWIDTH 9 0
BBX 4 6 2 4
BITMAP
20
20
20
20
E0
30
ENDCHAR
STARTCHAR 02B6
ENCODING 694
SWIDTH 540 0
DWIDTH 9 0
BBX 4 5 2 5
BITMAP
90
90
F0
90
F0
ENDCHAR
STARTCHAR 02B7
ENCODING 695
SWIDTH 540 0
DWIDTH 9 0
BBX 5 5 2 5
BITMAP
B8
B0
B0
D0
50
ENDCHAR
STARTCHAR 02B8
ENCODING 696
SWIDTH 540 0
DWIDTH 9 0
BBX 4 7 2 3
BITMAP
90
50
50
60
20
20
40
ENDCHAR
STARTCHAR 02B9
ENCODING 697
SWIDTH 540 0
DWIDTH 9 0
BBX 3 5 3 9
BITMAP
60
C0
C0
80
80
ENDCHAR
STARTCHAR 02BA
ENCODING 698
SWIDTH 540 0
DWIDTH 9 0
BBX 5 5 2 9
BITMAP
D8
D0
D0
B0
A0
ENDCHAR
STARTCHAR 02BB
ENCODING 699
SWIDTH 540 0
DWIDTH 9 0
BBX 3 5 3 9
BITMAP
60
40
C0
C0
C0
ENDCHAR
STARTCHAR 02BC
ENCODING 700
SWIDTH 540 0
DWIDTH 9 0
BBX 3 5 3 9
BITMAP
60
C0
C0
80
80
ENDCHAR
STARTCHAR 02BD
ENCODING 701
SWIDTH 540 0
DWIDTH 9 0
BBX 3 5 3 9
BITMAP
C0
C0
40
60
20
ENDCHAR
STARTCHAR 02BE
ENCODING 702
SWIDTH 540 0
DWIDTH 9 0
BBX 3 5 3 9
BITMAP
C0
40
60
40
80
ENDCHAR
STARTCHAR 02BF
ENCODING 703
SWIDTH 540 0
DWIDTH 9 0
BBX 2 5 3 9
BITMAP
40
80
80
C0
40
ENDCHAR
STARTCHAR 02C0
ENCODING 704
SWIDTH 540 0
DWIDTH 9 0
BBX 4 8 2 4
BITMAP
40
B0
10
10
30
60
60
60
ENDCHAR
STARTCHAR 02C1
ENCODING 705
SWIDTH 540 0
DWIDTH 9 0
BBX 4 8 2 4
BITMAP
20
D0
80
80
40
20
20
20
ENDCHAR
STARTCHAR 02C2
ENCODING 706
SWIDTH 540 0
DWIDTH 9 0
BBX 4 6 2 8
BITMAP
10
70
E0
C0
70
10
ENDCHAR
STARTCHAR 02C3
ENCODING 707
SWIDTH 540 0
DWIDTH 9 0
BBX 5 6 2 8
BITMAP
80
E0
38
18
F0
C0
ENDCHAR
STARTCHAR 02C4
ENCODING 708
SWIDTH 540 0
DWIDTH 9 0
BBX 6 5 1 10
BITMAP
30
38
68
4C
CC
ENDCHAR
STARTCHAR 02C5
ENCODING 709
SWIDTH 540 0
DWIDTH 9 0
BBX 6 5 1 10
BITMAP
CC
68
68
38
30
ENDCHAR
STARTCHAR 02C6
ENCODING 710
SWIDTH 540 0
DWIDTH 9 0
BBX 6 3 1 10
BITMAP
38
68
CC
ENDCHAR
STARTCHAR 02C7
ENCODING 711
SWIDTH 540 0
DWIDTH 9 0
BBX 6 3 1 10
BITMAP
CC
68
38
ENDCHAR
STARTCHAR 02C8
ENCODING 712
SWIDTH 540 0
DWIDTH 9 0
BBX 1 5 4 9
BITMAP
80
80
80
80
80
ENDCHAR
STARTCHAR 02C9
ENCODING 713
SWIDTH 540 0
DWIDTH 9 0
BBX 6 1 1 12
BITMAP
FC
ENDCHAR
STARTCHAR 02CA
ENCODING 714
SWIDTH 540 0
DWIDTH 9 0
BBX 3 3 3 10
BITMAP
60
C0
80
ENDCHAR
STARTCHAR 02CB
ENCODING 715
SWIDTH 540 0
DWIDTH 9 0
BBX 4 3 2 10
BITMAP
C0
60
30
ENDCHAR
STARTCHAR 02CC
ENCODING 716
SWIDTH 540 0
DWIDTH 9 0
BBX 1 5 4 -3
BITMAP
80
80
80
80
80
ENDCHAR
STARTCHAR 02CD
ENCODING 717
SWIDTH 540 0
DWIDTH 9 0
BBX 6 1 1 -2
BITMAP
FC
ENDCHAR
STARTCHAR 02CE
ENCODING 718
SWIDTH 540 0
DWIDTH 9 0
BBX 3 3 3 -3
BITMAP
60
C0
80
ENDCHAR
STARTCHAR 02CF
ENCODING 719
SWIDTH 540 0
DWIDTH 9 0
BBX 4 3 2 -3
BITMAP
E0
60
30
ENDCHAR
STARTCHAR 02D0
ENCODING 720
SWIDTH 540 0
DWIDTH 9 0
BBX 3 9 3 1
BITMAP
E0
40
80
00
00
00
40
40
C0
ENDCHAR
STARTCHAR 02D1
ENCODING 721
SWIDTH 540 0
DWIDTH 9 0
BBX 3 3 3 6
BITMAP
E0
40
80
ENDCHAR
STARTCHAR 02D2
ENCODING 722
SWIDTH 540 0
DWIDTH 9 0
BBX 3 4 3 5
BITMAP
C0
40
60
C0
ENDCHAR
STARTCHAR 02D3
ENCODING 723
SWIDTH 540 0
DWIDTH 9 0
BBX 2 4 3 5
BITMAP
40
80
80
40
ENDCHAR
STARTCHAR 02D4
ENCODING 724
SWIDTH 540 0
DWIDTH 9 0
BBX 5 4 2 3
BITMAP
20
20
F8
F8
ENDCHAR
STARTCHAR 02D5
ENCODING 725
SWIDTH 540 0
DWIDTH 9 0
BBX 5 3 2 4
BITMAP
F8
20
20
ENDCHAR
STARTCHAR 02D6
ENCODING 726
SWIDTH 540 0
DWIDTH 9 0
BBX 5 5 2 3
BITMAP
20
F8
F8
20
20
ENDCHAR
STARTCHAR 02D7
ENCODING 727
SWIDTH 540 0
DWIDTH 9 0
BBX 5 2 2 4
BITMAP
F8
F8
ENDCHAR
STARTCHAR 02D8
ENCODING 728
SWIDTH 540 0
DWIDTH 9 0
BBX 6 3 1 9
BITMAP
C4
4C
78
ENDCHAR
STARTCHAR 02D9
ENCODING 729
SWIDTH 540 0
DWIDTH 9 0
BBX 1 3 4 10
BITMAP
80
80
80
ENDCHAR
STARTCHAR 02DA
ENCODING 730
SWIDTH 540 0
DWIDTH 9 0
BBX 4 5 2 9
BITMAP
60
90
90
D0
20
ENDCHAR
STARTCHAR 02DB
ENCODING 731
SWIDTH 540 0
DWIDTH 9 0
BBX 4 4 2 -3
BITMAP
40
C0
F0
70
ENDCHAR
STARTCHAR 02DC
ENCODING 732
SWIDTH 540 0
DWIDTH 9 0
BBX 6 3 1 9
BITMAP
40
74
DC
ENDCHAR
STARTCHAR 02DD
ENCODING 733
SWIDTH 540 0
DWIDTH 9 0
BBX 7 3 1 10
BITMAP
36
6C
D8
ENDCHAR
STARTCHAR 02DE
ENCODING 734
SWIDTH 540 0
DWIDTH 9 0
BBX 6 5 1 4
BITMAP
30
70
90
14
1C
ENDCHAR
STARTCHAR 02DF
ENCODING 735
SWIDTH 540 0
DWIDTH 9 0
BBX 4 4 2 10
BITMAP
D0
70
70
D0
ENDCHAR
STARTCHAR 02E0
ENCODING 736
SWIDTH 540 0
DWIDTH 9 0
BBX 4 7 2 3
BITMAP
90
50
60
20
60
60
70
ENDCHAR
STARTCHAR 02E1
ENCODING 737
SWIDTH 540 0
DWIDTH 9 0
BBX 4 7 2 5
BITMAP
E0
20
20
20
20
20
30
ENDCHAR
STARTCHAR 02E2
ENCODING 738
SWIDTH 540 0
DWIDTH 9 0
BBX 4 5 2 5
BITMAP
70
C0
70
10
F0
ENDCHAR
STARTCHAR 02E3
ENCODING 739
SWIDTH 540 0
DWIDTH 9 0
BBX 4 5 2 5
BITMAP
D0
60
20
60
D0
ENDCHAR
STARTCHAR 02E4
ENCODING 740
SWIDTH 540 0
DWIDTH 9 0
BBX 4 8 2 4
BITMAP
20
D0
80
80
40
20
20
20
ENDCHAR
STARTCHAR 02E5
ENCODING 741
SWIDTH 540 0
DWIDTH 9 0
BBX 6 12 1 1
BITMAP
FC
0C
0C
0C
0C
0C
0C
0C
0C
0C
0C
0C
ENDCHAR
STARTCHAR 02E6
ENCODING 742
SWIDTH 540 0
DWIDTH 9 0
BBX 6 12 1 1
BITMAP
0C
0C
FC
FC
0C
0C
0C
0C
0C
0C
0C
0C
ENDCHAR
STARTCHAR 02E7
ENCODING 743
SWIDTH 540 0
DWIDTH 9 0
BBX 6 12 1 1
BITMAP
0C
0C
0C
0C
0C
FC
0C
0C
0C
0C
0C
0C
ENDCHAR
STARTCHAR 02E8
ENCODING 744
SWIDTH 540 0
DWIDTH 9 0
BBX 6 12 1 1
BITMAP
0C
0C
0C
0C
0C
0C
0C
0C
FC
0C
0C
0C
ENDCHAR
STARTCHAR 02E9
ENCODING 745
SWIDTH 540 0
DWIDTH 9 0
BBX 6 12 1 1
BITMAP
0C
0C
0C
0C
0C
0C
0C
0C
0C
0C
0C
FC
ENDCHAR
STARTCHAR 02EA
ENCODING 746
SWIDTH 540 0
DWIDTH 9 0
BBX 6 10 2 1
BITMAP
C0
C0
C0
C0
C0
C0
C0
C0
C0
FC
ENDCHAR
STARTCHAR 02EB
ENCODING 747
SWIDTH 540 0
DWIDTH 9 0
BBX 6 10 2 1
BITMAP
C0
C0
C0
C0
FC
FC
C0
C0
C0
C0
ENDCHAR
STARTCHAR 02EC
ENCODING 748
SWIDTH 540 0
DWIDTH 9 0
BBX 6 3 1 -3
BITMAP
CC
68
38
ENDCHAR
STARTCHAR 02ED
ENCODING 749
SWIDTH 540 0
DWIDTH 9 0
BBX 6 3 1 13
BITMAP
FC
00
FC
ENDCHAR
STARTCHAR 02EE
ENCODING 750
SWIDTH 540 0
DWIDTH 9 0
BBX 4 5 2 9
BITMAP
D0
D0
D0
D0
90
ENDCHAR
STARTCHAR 02EF
ENCODING 751
SWIDTH 540 0
DWIDTH 9 0
BBX 6 5 1 -3
BITMAP
CC
6C
68
38
30
ENDCHAR
STARTCHAR 02F0
ENCODING 752
SWIDTH 540 0
DWIDTH 9 0
BBX 6 5 1 -3
BITMAP
30
38
68
6C
CC
ENDCHAR
STARTCHAR 02F1
ENCODING 753
SWIDTH 540 0
DWIDTH 9 0
BBX 4 6 2 -5
BITMAP
10
30
F0
80
F0
30
ENDCHAR
STARTCHAR 02F2
ENCODING 754
SWIDTH 540 0
DWIDTH 9 0
BBX 5 5 2 -4
BITMAP
C0
78
08
F0
C0
ENDCHAR
STARTCHAR 02F3
ENCODING 755
SWIDTH 540 0
DWIDTH 9 0
BBX 4 4 2 -5
BITMAP
F0
90
90
70
ENDCHAR
STARTCHAR 02F4
ENCODING 756
SWIDTH 540 0
DWIDTH 9 0
BBX 4 3 2 5
BITMAP
C0
60
30
ENDCHAR
STARTCHAR 02F5
ENCODING 757
SWIDTH 540 0
DWIDTH 9 0
BBX 6 4 1 5
BITMAP
D8
48
24
10
ENDCHAR
STARTCHAR 02F6
ENCODING 758
SWIDTH 540 0
DWIDTH 9 0
BBX 7 3 1 5
BITMAP
36
6C
D8
ENDCHAR
STARTCHAR 02F7
ENCODING 759
SWIDTH 540 0
DWIDTH 9 0
BBX 6 3 1 -4
BITMAP
64
D4
CC
ENDCHAR
STARTCHAR 02F8
ENCODING 760
SWIDTH 540 0
DWIDTH 9 0
BBX 1 7 4 5
BITMAP
80
80
00
00
00
80
80
ENDCHAR
STARTCHAR 02F9
ENCODING 761
SWIDTH 540 0
DWIDTH 9 0
BBX 4 6 3 8
BITMAP
F0
80
80
80
80
80
ENDCHAR
STARTCHAR 02FA
ENCODING 762
SWIDTH 540 0
DWIDTH 9 0
BBX 4 6 2 8
BITMAP
F0
30
30
30
30
30
ENDCHAR
STARTCHAR 02FB
ENCODING 763
SWIDTH 540 0
DWIDTH 9 0
BBX 4 6 3 0
BITMAP
80
80
80
80
80
F0
ENDCHAR
STARTCHAR 02FC
ENCODING 764
SWIDTH 540 0
DWIDTH 9 0
BBX 4 6 2 0
BITMAP
30
30
30
30
30
F0
ENDCHAR
STARTCHAR 02FD
ENCODING 765
SWIDTH 540 0
DWIDTH 9 0
BBX 6 4 1 -4
BITMAP
84
84
84
FC
ENDCHAR
STARTCHAR 02FE
ENCODING 766
SWIDTH 540 0
DWIDTH 9 0
BBX 6 4 1 -4
BITMAP
80
80
80
FC
ENDCHAR
STARTCHAR 02FF
ENCODING 767
SWIDTH 540 0
DWIDTH 9 0
BBX 8 4 0 -4
BITMAP
20
7F
E0
20
ENDCHAR
STARTCHAR 0300
ENCODING 768
SWIDTH 540 0
DWIDTH 9 0
BBX 3 2 2 13
BITMAP
C0
20
ENDCHAR
STARTCHAR 0301
ENCODING 769
SWIDTH 540 0
DWIDTH 9 0
BBX 3 2 3 13
BITMAP
60
80
ENDCHAR
STARTCHAR 0302
ENCODING 770
SWIDTH 540 0
DWIDTH 9 0
BBX 4 2 2 13
BITMAP
60
90
ENDCHAR
STARTCHAR 0303
ENCODING 771
SWIDTH 540 0
DWIDTH 9 0
BBX 4 2 2 13
BITMAP
50
B0
ENDCHAR
STARTCHAR 0304
ENCODING 772
SWIDTH 540 0
DWIDTH 9 0
BBX 4 1 2 13
BITMAP
F0
ENDCHAR
STARTCHAR 0306
ENCODING 774
SWIDTH 540 0
DWIDTH 9 0
BBX 5 2 2 13
BITMAP
98
60
ENDCHAR
STARTCHAR 0308
ENCODING 776
SWIDTH 540 0
DWIDTH 9 0
BBX 5 2 2 13
BITMAP
98
98
ENDCHAR
STARTCHAR 030B
ENCODING 779
SWIDTH 540 0
DWIDTH 9 0
BBX 5 2 2 13
BITMAP
78
A0
ENDCHAR
STARTCHAR 030C
ENCODING 780
SWIDTH 540 0
DWIDTH 9 0
BBX 5 2 2 13
BITMAP
98
60
ENDCHAR
STARTCHAR 030F
ENCODING 783
SWIDTH 540 0
DWIDTH 9 0
BBX 5 2 1 13
BITMAP
F0
28
ENDCHAR
STARTCHAR 0318
ENCODING 792
SWIDTH 540 0
DWIDTH 9 0
BBX 2 2 3 -1
BITMAP
C0
40
ENDCHAR
STARTCHAR 0319
ENCODING 793
SWIDTH 540 0
DWIDTH 9 0
BBX 3 2 3 -1
BITMAP
60
80
ENDCHAR
STARTCHAR 031A
ENCODING 794
SWIDTH 540 0
DWIDTH 9 0
BBX 3 2 5 12
BITMAP
E0
20
ENDCHAR
STARTCHAR 031C
ENCODING 796
SWIDTH 540 0
DWIDTH 9 0
BBX 2 2 3 -1
BITMAP
C0
C0
ENDCHAR
STARTCHAR 031D
ENCODING 797
SWIDTH 540 0
DWIDTH 9 0
BBX 3 2 3 -1
BITMAP
40
E0
ENDCHAR
STARTCHAR 031E
ENCODING 798
SWIDTH 540 0
DWIDTH 9 0
BBX 3 2 3 -2
BITMAP
E0
40
ENDCHAR
STARTCHAR 031F
ENCODING 799
SWIDTH 540 0
DWIDTH 9 0
BBX 4 2 2 -1
BITMAP
F0
20
ENDCHAR
STARTCHAR 0320
ENCODING 800
SWIDTH 540 0
DWIDTH 9 0
BBX 4 1 2 -2
BITMAP
F0
ENDCHAR
STARTCHAR 0324
ENCODING 804
SWIDTH 540 0
DWIDTH 9 0
BBX 5 2 2 -2
BITMAP
98
98
ENDCHAR
STARTCHAR 0325
ENCODING 805
SWIDTH 540 0
DWIDTH 9 0
BBX 3 3 3 -2
BITMAP
40
A0
C0
ENDCHAR
STARTCHAR 0329
ENCODING 809
SWIDTH 540 0
DWIDTH 9 0
BBX 1 2 4 -1
BITMAP
80
80
ENDCHAR
STARTCHAR 032A
ENCODING 810
SWIDTH 540 0
DWIDTH 9 0
BBX 4 2 2 -2
BITMAP
F0
90
ENDCHAR
STARTCHAR 032C
ENCODING 812
SWIDTH 540 0
DWIDTH 9 0
BBX 5 2 2 -2
BITMAP
98
60
ENDCHAR
STARTCHAR 032F
ENCODING 815
SWIDTH 540 0
DWIDTH 9 0
BBX 4 2 2 -2
BITMAP
60
90
ENDCHAR
STARTCHAR 0330
ENCODING 816
SWIDTH 540 0
DWIDTH 9 0
BBX 4 1 2 -2
BITMAP
F0
ENDCHAR
STARTCHAR 0334
ENCODING 820
SWIDTH 540 0
DWIDTH 9 0
BBX 4 1 2 6
BITMAP
F0
ENDCHAR
STARTCHAR 0339
ENCODING 825
SWIDTH 540 0
DWIDTH 9 0
BBX 1 2 4 -1
BITMAP
80
80
ENDCHAR
STARTCHAR 033A
ENCODING 826
SWIDTH 540 0
DWIDTH 9 0
BBX 4 2 2 -1
BITMAP
90
F0
ENDCHAR
STARTCHAR 033B
ENCODING 827
SWIDTH 540 0
DWIDTH 9 0
BBX 4 2 2 -2
BITMAP
F0
F0
ENDCHAR
STARTCHAR 033C
ENCODING 828
SWIDTH 540 0
DWIDTH 9 0
BBX 6 2 1 -2
BITMAP
7C
90
ENDCHAR
STARTCHAR 033D
ENCODING 829
SWIDTH 540 0
DWIDTH 9 0
BBX 5 2 2 13
BITMAP
F8
D0
ENDCHAR
STARTCHAR 0361
ENCODING 865
SWIDTH 540 0
DWIDTH 9 0
BBX 8 3 0 12
BITMAP
3C
43
80
ENDCHAR
STARTCHAR 0372
ENCODING 882
SWIDTH 540 0
DWIDTH 9 0
BBX 7 12 1 1
BITMAP
FE
96
96
96
96
96
10
10
10
10
10
10
ENDCHAR
STARTCHAR 0373
ENCODING 883
SWIDTH 540 0
DWIDTH 9 0
BBX 7 12 1 1
BITMAP
FE
96
96
96
10
10
10
10
10
10
10
10
ENDCHAR
STARTCHAR 0374
ENCODING 884
SWIDTH 540 0
DWIDTH 9 0
BBX 3 4 3 9
BITMAP
E0
C0
C0
80
ENDCHAR
STARTCHAR 0375
ENCODING 885
SWIDTH 540 0
DWIDTH 9 0
BBX 3 5 3 -3
BITMAP
20
60
40
40
C0
ENDCHAR
STARTCHAR 037A
ENCODING 890
SWIDTH 540 0
DWIDTH 9 0
BBX 3 3 3 -5
BITMAP
80
80
E0
ENDCHAR
STARTCHAR 037E
ENCODING 894
SWIDTH 540 0
DWIDTH 9 0
BBX 3 12 2 -2
BITMAP
60
60
00
00
00
00
60
60
60
40
40
80
ENDCHAR
STARTCHAR 0384
ENCODING 900
SWIDTH 540 0
DWIDTH 9 0
BBX 3 3 3 10
BITMAP
60
C0
80
ENDCHAR
STARTCHAR 0385
ENCODING 901
SWIDTH 540 0
DWIDTH 9 0
BBX 4 6 2 11
BITMAP
30
60
40
D0
D0
D0
ENDCHAR
STARTCHAR 0386
ENCODING 902
SWIDTH 540 0
DWIDTH 9 0
BBX 8 15 0 0
BITMAP
18
30
60
18
1C
14
34
24
26
26
7E
62
43
43
C1
ENDCHAR
STARTCHAR 0387
ENCODING 903
SWIDTH 540 0
DWIDTH 9 0
BBX 2 2 3 4
BITMAP
C0
C0
ENDCHAR
STARTCHAR 0388
ENCODING 904
SWIDTH 540 0
DWIDTH 9 0
BBX 7 15 0 0
BITMAP
30
60
40
BE
20
20
20
20
3E
20
20
20
20
20
3E
ENDCHAR
STARTCHAR 0389
ENCODING 905
SWIDTH 540 0
DWIDTH 9 0
BBX 8 15 0 0
BITMAP
30
60
40
E3
63
63
63
63
7F
63
63
63
63
63
63
ENDCHAR
STARTCHAR 038A
ENCODING 906
SWIDTH 540 0
DWIDTH 9 0
BBX 7 15 0 0
BITMAP
30
60
40
BE
08
08
08
08
08
08
08
08
08
08
3E
ENDCHAR
STARTCHAR 038C
ENCODING 908
SWIDTH 540 0
DWIDTH 9 0
BBX 8 15 0 -1
BITMAP
30
60
48
BE
62
43
43
41
41
41
43
43
63
22
3C
ENDCHAR
STARTCHAR 038E
ENCODING 910
SWIDTH 540 0
DWIDTH 9 0
BBX 8 15 0 0
BITMAP
30
60
40
E3
23
32
16
14
1C
0C
08
08
08
08
08
ENDCHAR
STARTCHAR 038F
ENCODING 911
SWIDTH 540 0
DWIDTH 9 0
BBX 8 15 0 0
BITMAP
30
60
48
BE
62
43
43
41
41
41
43
43
62
36
77
ENDCHAR
STARTCHAR 0390
ENCODING 912
SWIDTH 540 0
DWIDTH 9 0
BBX 5 16 2 0
BITMAP
30
60
40
D0
D0
D0
00
40
40
40
40
40
40
40
60
78
ENDCHAR
STARTCHAR 0391
ENCODING 913
SWIDTH 540 0
DWIDTH 9 0
BBX 8 12 0 1
BITMAP
18
1C
14
34
24
26
26
7E
62
43
43
C1
ENDCHAR
STARTCHAR 0392
ENCODING 914
SWIDTH 540 0
DWIDTH 9 0
BBX 7 13 1 -1
BITMAP
70
FC
C4
C4
C4
CC
F8
C4
C6
C6
C6
C4
F8
ENDCHAR
STARTCHAR 0393
ENCODING 915
SWIDTH 540 0
DWIDTH 9 0
BBX 6 12 2 1
BITMAP
FC
80
80
80
80
80
80
80
80
80
80
80
ENDCHAR
STARTCHAR 0394
ENCODING 916
SWIDTH 540 0
DWIDTH 9 0
BBX 8 12 0 1
BITMAP
18
1C
14
34
24
26
26
62
62
43
43
FF
ENDCHAR
STARTCHAR 0395
ENCODING 917
SWIDTH 540 0
DWIDTH 9 0
BBX 6 12 1 1
BITMAP
FC
C0
C0
C0
C0
FC
C0
C0
C0
C0
C0
FC
ENDCHAR
STARTCHAR 0396
ENCODING 918
SWIDTH 540 0
DWIDTH 9 0
BBX 6 12 1 1
BITMAP
FC
0C
08
08
18
10
30
20
60
40
C0
FC
ENDCHAR
STARTCHAR 0397
ENCODING 919
SWIDTH 540 0
DWIDTH 9 0
BBX 6 12 1 1
BITMAP
84
84
84
84
84
FC
84
84
84
84
84
84
ENDCHAR
STARTCHAR 0398
ENCODING 920
SWIDTH 540 0
DWIDTH 9 0
BBX 7 13 1 -1
BITMAP
30
7C
C4
86
86
86
BE
86
86
86
84
CC
78
ENDCHAR
STARTCHAR 0399
ENCODING 921
SWIDTH 540 0
DWIDTH 9 0
BBX 5 12 2 1
BITMAP
F8
20
20
20
20
20
20
20
20
20
20
F8
ENDCHAR
STARTCHAR 039A
ENCODING 922
SWIDTH 540 0
DWIDTH 9 0
BBX 7 12 1 1
BITMAP
C6
CC
D8
D0
F0
E0
F0
D0
D8
C8
CC
C6
ENDCHAR
STARTCHAR 039B
ENCODING 923
SWIDTH 540 0
DWIDTH 9 0
BBX 8 12 0 1
BITMAP
18
1C
14
34
24
26
26
62
62
43
43
C1
ENDCHAR
STARTCHAR 039C
ENCODING 924
SWIDTH 540 0
DWIDTH 9 0
BBX 7 12 1 1
BITMAP
86
C6
C6
CE
EE
AE
B6
B6
96
86
86
86
ENDCHAR
STARTCHAR 039D
ENCODING 925
SWIDTH 540 0
DWIDTH 9 0
BBX 6 12 1 1
BITMAP
C4
C4
E4
E4
E4
D4
D4
D4
CC
CC
CC
C4
ENDCHAR
STARTCHAR 039E
ENCODING 926
SWIDTH 540 0
DWIDTH 9 0
BBX 6 12 1 1
BITMAP
FC
00
00
00
00
7C
00
00
00
00
00
FC
ENDCHAR
STARTCHAR 039F
ENCODING 927
SWIDTH 540 0
DWIDTH 9 0
BBX 7 13 1 -1
BITMAP
30
7C
C4
86
86
86
86
86
86
86
84
CC
78
ENDCHAR
STARTCHAR 03A0
ENCODING 928
SWIDTH 540 0
DWIDTH 9 0
BBX 6 12 1 1
BITMAP
FC
84
84
84
84
84
84
84
84
84
84
84
ENDCHAR
STARTCHAR 03A1
ENCODING 929
SWIDTH 540 0
DWIDTH 9 0
BBX 7 13 1 0
BITMAP
70
FC
C6
C6
C6
C6
CC
F8
C0
C0
C0
C0
C0
ENDCHAR
STARTCHAR 03A3
ENCODING 931
SWIDTH 540 0
DWIDTH 9 0
BBX 6 12 1 1
BITMAP
FC
40
20
30
10
18
10
30
20
60
40
FC
ENDCHAR
STARTCHAR 03A4
ENCODING 932
SWIDTH 540 0
DWIDTH 9 0
BBX 7 12 1 1
BITMAP
FE
10
10
10
10
10
10
10
10
10
10
10
ENDCHAR
STARTCHAR 03A5
ENCODING 933
SWIDTH 540 0
DWIDTH 9 0
BBX 8 12 0 1
BITMAP
C3
62
26
24
14
1C
18
08
08
08
08
08
ENDCHAR
STARTCHAR 03A6
ENCODING 934
SWIDTH 540 0
DWIDTH 9 0
BBX 8 12 0 1
BITMAP
08
3C
6A
4B
C9
C9
C9
49
4B
3E
08
08
ENDCHAR
STARTCHAR 03A7
ENCODING 935
SWIDTH 540 0
DWIDTH 9 0
BBX 7 12 1 1
BITMAP
C6
4C
48
28
38
30
30
38
68
4C
C4
84
ENDCHAR
STARTCHAR 03A8
ENCODING 936
SWIDTH 540 0
DWIDTH 9 0
BBX 7 12 1 1
BITMAP
96
96
96
96
96
96
96
D4
7C
10
10
10
ENDCHAR
STARTCHAR 03A9
ENCODING 937
SWIDTH 540 0
DWIDTH 9 0
BBX 7 13 1 0
BITMAP
30
7C
C4
86
86
86
86
86
86
86
C4
48
EE
ENDCHAR
STARTCHAR 03AA
ENCODING 938
SWIDTH 540 0
DWIDTH 9 0
BBX 5 16 2 0
BITMAP
D0
D0
00
00
F8
20
20
20
20
20
20
20
20
20
20
F8
ENDCHAR
STARTCHAR 03AB
ENCODING 939
SWIDTH 540 0
DWIDTH 9 0
BBX 8 16 0 0
BITMAP
34
34
00
00
C3
62
26
24
14
1C
18
08
08
08
08
08
ENDCHAR
STARTCHAR 03AC
ENCODING 940
SWIDTH 540 0
DWIDTH 9 0
BBX 7 13 1 -1
BITMAP
18
30
20
00
72
DA
8E
8C
84
84
8E
DE
72
ENDCHAR
STARTCHAR 03AD
ENCODING 941
SWIDTH 540 0
DWIDTH 9 0
BBX 6 13 1 -1
BITMAP
18
30
20
00
7C
C4
C0
60
38
C0
C0
C4
7C
ENDCHAR
STARTCHAR 03AE
ENCODING 942
SWIDTH 540 0
DWIDTH 9 0
BBX 6 17 1 -4
BITMAP
18
30
20
00
BC
E4
C4
C4
C4
C4
C4
C4
C4
04
04
04
04
ENDCHAR
STARTCHAR 03AF
ENCODING 943
SWIDTH 540 0
DWIDTH 9 0
BBX 4 13 3 -1
BITMAP
60
C0
80
00
80
80
80
80
80
80
80
C0
F0
ENDCHAR
STARTCHAR 03B0
ENCODING 944
SWIDTH 540 0
DWIDTH 9 0
BBX 6 16 1 0
BITMAP
18
30
20
68
68
68
00
CC
C4
C4
C4
C4
C4
C4
CC
78
ENDCHAR
STARTCHAR 03B1
ENCODING 945
SWIDTH 540 0
DWIDTH 9 0
BBX 7 9 1 -1
BITMAP
72
DA
8E
8C
84
84
8E
DE
72
ENDCHAR
STARTCHAR 03B2
ENCODING 946
SWIDTH 540 0
DWIDTH 9 0
BBX 7 17 1 -4
BITMAP
30
7C
C4
C4
C4
CC
F8
C4
C6
C6
C6
C4
FC
C0
C0
C0
C0
ENDCHAR
STARTCHAR 03B3
ENCODING 947
SWIDTH 540 0
DWIDTH 9 0
BBX 8 13 0 -4
BITMAP
C3
62
26
26
34
14
18
18
08
08
08
08
08
ENDCHAR
STARTCHAR 03B4
ENCODING 948
SWIDTH 540 0
DWIDTH 9 0
BBX 7 13 1 -1
BITMAP
18
7C
C0
40
78
4C
84
86
86
86
84
C4
78
ENDCHAR
STARTCHAR 03B5
ENCODING 949
SWIDTH 540 0
DWIDTH 9 0
BBX 6 9 1 -1
BITMAP
7C
C4
C0
60
38
C0
C0
C4
7C
ENDCHAR
STARTCHAR 03B6
ENCODING 950
SWIDTH 540 0
DWIDTH 9 0
BBX 7 17 1 -4
BITMAP
FC
0C
10
20
60
40
C0
80
80
80
80
C0
7C
06
02
46
7C
ENDCHAR
STARTCHAR 03B7
ENCODING 951
SWIDTH 540 0
DWIDTH 9 0
BBX 6 13 1 -4
BITMAP
BC
E4
C4
C4
C4
C4
C4
C4
C4
04
04
04
04
ENDCHAR
STARTCHAR 03B8
ENCODING 952
SWIDTH 540 0
DWIDTH 9 0
BBX 7 13 1 -1
BITMAP
30
6C
C4
84
86
86
FE
86
86
84
C4
4C
78
ENDCHAR
STARTCHAR 03B9
ENCODING 953
SWIDTH 540 0
DWIDTH 9 0
BBX 4 9 3 -1
BITMAP
80
80
80
80
80
80
80
C0
F0
ENDCHAR
STARTCHAR 03BA
ENCODING 954
SWIDTH 540 0
DWIDTH 9 0
BBX 7 9 1 0
BITMAP
C6
CC
D8
F0
E0
F0
D8
CC
C4
ENDCHAR
STARTCHAR 03BB
ENCODING 955
SWIDTH 540 0
DWIDTH 9 0
BBX 7 12 1 1
BITMAP
60
20
30
10
30
38
28
68
4C
44
C4
86
ENDCHAR
STARTCHAR 03BC
ENCODING 956
SWIDTH 540 0
DWIDTH 9 0
BBX 6 13 1 -4
BITMAP
C4
C4
C4
C4
C4
C4
C4
CC
F4
C0
C0
C0
C0
ENDCHAR
STARTCHAR 03BD
ENCODING 957
SWIDTH 540 0
DWIDTH 9 0
BBX 7 9 1 0
BITMAP
86
C6
C4
44
44
6C
28
28
30
ENDCHAR
STARTCHAR 03BE
ENCODING 958
SWIDTH 540 0
DWIDTH 9 0
BBX 7 17 1 -4
BITMAP
FC
30
C0
C0
C0
60
3C
C0
80
80
80
C0
7C
06
02
46
7C
ENDCHAR
STARTCHAR 03BF
ENCODING 959
SWIDTH 540 0
DWIDTH 9 0
BBX 7 9 1 -1
BITMAP
78
CC
84
86
86
86
84
C4
78
ENDCHAR
STARTCHAR 03C0
ENCODING 960
SWIDTH 540 0
DWIDTH 9 0
BBX 7 9 1 0
BITMAP
FE
4C
4C
4C
4C
4C
4C
4C
4C
ENDCHAR
STARTCHAR 03C1
ENCODING 961
SWIDTH 540 0
DWIDTH 9 0
BBX 7 13 1 -4
BITMAP
38
6C
C4
86
86
86
C4
CC
B8
80
80
80
80
ENDCHAR
STARTCHAR 03C2
ENCODING 962
SWIDTH 540 0
DWIDTH 9 0
BBX 7 13 1 -4
BITMAP
3C
64
C0
80
80
80
C0
40
7C
06
02
46
7C
ENDCHAR
STARTCHAR 03C3
ENCODING 963
SWIDTH 540 0
DWIDTH 9 0
BBX 7 9 1 -1
BITMAP
7E
CE
84
86
86
86
84
CC
78
ENDCHAR
STARTCHAR 03C4
ENCODING 964
SWIDTH 540 0
DWIDTH 9 0
BBX 7 9 1 0
BITMAP
FE
10
10
10
10
10
10
10
10
ENDCHAR
STARTCHAR 03C5
ENCODING 965
SWIDTH 540 0
DWIDTH 9 0
BBX 6 9 1 -1
BITMAP
CC
C4
C4
C4
C4
C4
C4
CC
78
ENDCHAR
STARTCHAR 03C6
ENCODING 966
SWIDTH 540 0
DWIDTH 9 0
BBX 8 13 0 -4
BITMAP
2E
6B
49
C9
C9
C9
4B
6A
3C
08
08
08
08
ENDCHAR
STARTCHAR 03C7
ENCODING 967
SWIDTH 540 0
DWIDTH 9 0
BBX 7 13 1 -4
BITMAP
C6
C4
4C
68
28
30
30
38
28
48
4C
C4
86
ENDCHAR
STARTCHAR 03C8
ENCODING 968
SWIDTH 540 0
DWIDTH 9 0
BBX 7 16 1 -4
BITMAP
10
10
10
96
96
96
96
96
96
96
D4
78
10
10
10
10
ENDCHAR
STARTCHAR 03C9
ENCODING 969
SWIDTH 540 0
DWIDTH 9 0
BBX 7 9 1 -1
BITMAP
C4
96
96
92
92
92
B2
B6
EC
ENDCHAR
STARTCHAR 03CA
ENCODING 970
SWIDTH 540 0
DWIDTH 9 0
BBX 5 13 2 -1
BITMAP
D0
D0
D0
00
40
40
40
40
40
40
40
60
78
ENDCHAR
STARTCHAR 03CB
ENCODING 971
SWIDTH 540 0
DWIDTH 9 0
BBX 6 13 1 -1
BITMAP
68
68
68
00
CC
C4
C4
C4
C4
C4
C4
CC
78
ENDCHAR
STARTCHAR 03CC
ENCODING 972
SWIDTH 540 0
DWIDTH 9 0
BBX 7 13 1 -1
BITMAP
18
30
20
00
78
CC
84
86
86
86
84
C4
78
ENDCHAR
STARTCHAR 03CD
ENCODING 973
SWIDTH 540 0
DWIDTH 9 0
BBX 6 13 1 -1
BITMAP
18
30
20
00
CC
C4
C4
C4
C4
C4
C4
CC
78
ENDCHAR
STARTCHAR 03CE
ENCODING 974
SWIDTH 540 0
DWIDTH 9 0
BBX 7 13 1 -1
BITMAP
18
30
20
00
C4
96
96
92
92
92
B2
B6
EC
ENDCHAR
STARTCHAR 03CF
ENCODING 975
SWIDTH 540 0
DWIDTH 9 0
BBX 7 17 1 -4
BITMAP
C6
CC
D8
D0
F0
E0
F0
D0
D8
C8
CC
C6
06
04
0C
08
08
ENDCHAR
STARTCHAR 03D0
ENCODING 976
SWIDTH 540 0
DWIDTH 9 0
BBX 7 13 1 -1
BITMAP
30
7C
C4
C4
C4
CC
F8
C4
C6
C6
C6
C4
7C
ENDCHAR
STARTCHAR 03D1
ENCODING 977
SWIDTH 540 0
DWIDTH 9 0
BBX 7 13 1 -1
BITMAP
30
6C
C4
C4
C6
46
7E
86
86
84
C4
4C
78
ENDCHAR
STARTCHAR 03D2
ENCODING 978
SWIDTH 540 0
DWIDTH 9 0
BBX 8 13 0 0
BITMAP
42
F7
1C
18
18
08
08
08
08
08
08
08
08
ENDCHAR
STARTCHAR 03D3
ENCODING 979
SWIDTH 540 0
DWIDTH 9 0
BBX 8 15 0 0
BITMAP
30
20
42
F7
1C
18
18
08
08
08
08
08
08
08
08
ENDCHAR
STARTCHAR 03D4
ENCODING 980
SWIDTH 540 0
DWIDTH 9 0
BBX 8 16 0 0
BITMAP
34
34
00
42
F7
1C
18
18
08
08
08
08
08
08
08
08
ENDCHAR
STARTCHAR 03D5
ENCODING 981
SWIDTH 540 0
DWIDTH 9 0
BBX 8 17 0 -4
BITMAP
08
08
08
08
3C
6A
4B
C9
C9
C9
49
6A
3E
08
08
08
08
ENDCHAR
STARTCHAR 03D6
ENCODING 982
SWIDTH 540 0
DWIDTH 9 0
BBX 8 9 0 -1
BITMAP
FF
42
43
49
49
49
59
5B
76
ENDCHAR
STARTCHAR 03D7
ENCODING 983
SWIDTH 540 0
DWIDTH 9 0
BBX 7 14 1 -5
BITMAP
C6
CC
D8
F0
E0
F0
D8
CC
C4
06
04
0C
08
08
ENDCHAR
STARTCHAR 03D8
ENCODING 984
SWIDTH 540 0
DWIDTH 9 0
BBX 7 17 1 -4
BITMAP
30
7C
C4
86
86
86
86
86
86
86
84
CC
78
10
10
10
10
ENDCHAR
STARTCHAR 03D9
ENCODING 985
SWIDTH 540 0
DWIDTH 9 0
BBX 7 13 1 -4
BITMAP
78
CC
84
86
86
86
84
C4
78
10
10
10
10
ENDCHAR
STARTCHAR 03DA
ENCODING 986
SWIDTH 540 0
DWIDTH 9 0
BBX 7 13 1 -1
BITMAP
10
7E
CC
8C
8C
8C
8C
8C
8C
8C
CC
4C
7C
ENDCHAR
STARTCHAR 03DB
ENCODING 987
SWIDTH 540 0
DWIDTH 9 0
BBX 6 13 1 -4
BITMAP
3C
64
40
C0
C0
C0
40
60
3C
10
10
10
10
ENDCHAR
STARTCHAR 03DC
ENCODING 988
SWIDTH 540 0
DWIDTH 9 0
BBX 5 12 2 1
BITMAP
F8
80
80
80
80
F8
80
80
80
80
80
80
ENDCHAR
STARTCHAR 03DD
ENCODING 989
SWIDTH 540 0
DWIDTH 9 0
BBX 5 13 2 -4
BITMAP
F8
80
80
80
80
F8
F8
80
80
80
80
80
80
ENDCHAR
STARTCHAR 03DE
ENCODING 990
SWIDTH 540 0
DWIDTH 9 0
BBX 8 15 0 -2
BITMAP
60
30
10
10
30
23
67
7A
76
C6
04
0C
0C
0E
02
ENDCHAR
STARTCHAR 03DF
ENCODING 991
SWIDTH 540 0
DWIDTH 9 0
BBX 7 9 1 0
BITMAP
30
60
40
C0
FE
04
0C
08
18
ENDCHAR
STARTCHAR 03E0
ENCODING 992
SWIDTH 540 0
DWIDTH 9 0
BBX 8 14 0 -1
BITMAP
60
B0
18
0C
7E
42
02
03
0F
3B
02
02
02
0C
ENDCHAR
STARTCHAR 03E1
ENCODING 993
SWIDTH 540 0
DWIDTH 9 0
BBX 7 13 0 -4
BITMAP
E0
10
08
1C
74
02
02
06
1E
22
02
02
06
ENDCHAR
STARTCHAR 0400
ENCODING 1024
SWIDTH 540 0
DWIDTH 9 0
BBX 6 16 1 1
BITMAP
70
10
08
00
FC
C0
C0
C0
C0
FC
C0
C0
C0
C0
C0
FC
ENDCHAR
STARTCHAR 0401
ENCODING 1025
SWIDTH 540 0
DWIDTH 9 0
BBX 6 16 1 0
BITMAP
68
68
00
00
FC
C0
C0
C0
C0
FC
C0
C0
C0
C0
C0
FC
ENDCHAR
STARTCHAR 0402
ENCODING 1026
SWIDTH 540 0
DWIDTH 9 0
BBX 8 12 0 0
BITMAP
FC
30
30
30
3E
3B
31
31
31
31
33
36
ENDCHAR
STARTCHAR 0403
ENCODING 1027
SWIDTH 540 0
DWIDTH 9 0
BBX 5 16 2 1
BITMAP
30
60
40
00
F8
80
80
80
80
80
80
80
80
80
80
80
ENDCHAR
STARTCHAR 0404
ENCODING 1028
SWIDTH 540 0
DWIDTH 9 0
BBX 6 13 1 -1
BITMAP
18
7C
40
C0
80
80
FC
80
80
C0
C0
64
3C
ENDCHAR
STARTCHAR 0405
ENCODING 1029
SWIDTH 540 0
DWIDTH 9 0
BBX 6 13 1 -1
BITMAP
18
7C
C4
C0
C0
60
30
0C
04
04
04
84
78
ENDCHAR
STARTCHAR 0406
ENCODING 1030
SWIDTH 540 0
DWIDTH 9 0
BBX 5 12 2 1
BITMAP
F8
20
20
20
20
20
20
20
20
20
20
F8
ENDCHAR
STARTCHAR 0407
ENCODING 1031
SWIDTH 540 0
DWIDTH 9 0
BBX 5 16 2 0
BITMAP
D0
D0
00
00
F8
20
20
20
20
20
20
20
20
20
20
F8
ENDCHAR
STARTCHAR 0408
ENCODING 1032
SWIDTH 540 0
DWIDTH 9 0
BBX 6 12 1 0
BITMAP
3C
0C
0C
0C
0C
0C
0C
0C
0C
0C
8C
F8
ENDCHAR
STARTCHAR 0409
ENCODING 1033
SWIDTH 540 0
DWIDTH 9 0
BBX 8 12 0 0
BITMAP
FC
6C
6C
6C
6E
6F
6D
6D
6D
6D
4D
CF
ENDCHAR
STARTCHAR 040A
ENCODING 1034
SWIDTH 540 0
DWIDTH 9 0
BBX 8 12 0 0
BITMAP
C8
C8
C8
C8
FE
FF
C9
C9
C9
C9
C9
CF
ENDCHAR
STARTCHAR 040B
ENCODING 1035
SWIDTH 540 0
DWIDTH 9 0
BBX 8 12 0 1
BITMAP
FC
30
30
30
3E
3B
31
31
31
31
31
31
ENDCHAR
STARTCHAR 040C
ENCODING 1036
SWIDTH 540 0
DWIDTH 9 0
BBX 7 16 1 1
BITMAP
18
30
20
00
C6
CC
D8
D0
F0
E0
F0
D0
D8
C8
CC
C6
ENDCHAR
STARTCHAR 040D
ENCODING 1037
SWIDTH 540 0
DWIDTH 9 0
BBX 6 16 1 1
BITMAP
70
10
08
00
84
8C
8C
8C
94
94
B4
A4
A4
C4
C4
C4
ENDCHAR
STARTCHAR 040E
ENCODING 1038
SWIDTH 540 0
DWIDTH 9 0
BBX 7 16 1 0
BITMAP
C4
7C
30
00
C6
C4
44
6C
68
28
38
10
10
30
20
E0
ENDCHAR
STARTCHAR 040F
ENCODING 1039
SWIDTH 540 0
DWIDTH 9 0
BBX 6 15 1 -2
BITMAP
84
84
84
84
84
84
84
84
84
84
84
FC
10
10
10
ENDCHAR
STARTCHAR 0410
ENCODING 1040
SWIDTH 540 0
DWIDTH 9 0
BBX 8 12 0 1
BITMAP
18
1C
14
34
24
26
26
7E
62
43
43
C1
ENDCHAR
STARTCHAR 0411
ENCODING 1041
SWIDTH 540 0
DWIDTH 9 0
BBX 7 12 1 0
BITMAP
FC
C0
C0
C0
C0
FC
C4
C6
C6
C6
C4
F8
ENDCHAR
STARTCHAR 0412
ENCODING 1042
SWIDTH 540 0
DWIDTH 9 0
BBX 7 13 1 -1
BITMAP
70
FC
C4
C4
C4
CC
F8
C4
C6
C6
C6
C4
F8
ENDCHAR
STARTCHAR 0413
ENCODING 1043
SWIDTH 540 0
DWIDTH 9 0
BBX 5 12 2 1
BITMAP
F8
80
80
80
80
80
80
80
80
80
80
80
ENDCHAR
STARTCHAR 0414
ENCODING 1044
SWIDTH 540 0
DWIDTH 9 0
BBX 8 15 0 -2
BITMAP
3E
22
22
22
22
22
22
22
22
62
62
FF
C1
C1
C1
ENDCHAR
STARTCHAR 0415
ENCODING 1045
SWIDTH 540 0
DWIDTH 9 0
BBX 6 12 1 1
BITMAP
FC
C0
C0
C0
C0
FC
C0
C0
C0
C0
C0
FC
ENDCHAR
STARTCHAR 0416
ENCODING 1046
SWIDTH 540 0
DWIDTH 9 0
BBX 8 12 0 1
BITMAP
C9
4B
4A
6A
6A
3E
6A
6A
4A
4B
49
C9
ENDCHAR
STARTCHAR 0417
ENCODING 1047
SWIDTH 540 0
DWIDTH 9 0
BBX 6 13 1 -1
BITMAP
30
FC
04
04
04
18
78
0C
04
04
04
8C
F8
ENDCHAR
STARTCHAR 0418
ENCODING 1048
SWIDTH 540 0
DWIDTH 9 0
BBX 6 12 1 1
BITMAP
84
8C
8C
8C
94
94
B4
A4
A4
C4
C4
C4
ENDCHAR
STARTCHAR 0419
ENCODING 1049
SWIDTH 540 0
DWIDTH 9 0
BBX 6 16 1 1
BITMAP
C4
7C
30
00
84
8C
8C
8C
94
94
B4
A4
A4
C4
C4
C4
ENDCHAR
STARTCHAR 041A
ENCODING 1050
SWIDTH 540 0
DWIDTH 9 0
BBX 7 12 1 1
BITMAP
C6
CC
D8
D0
F0
E0
F0
D0
D8
C8
CC
C6
ENDCHAR
STARTCHAR 041B
ENCODING 1051
SWIDTH 540 0
DWIDTH 9 0
BBX 8 12 0 0
BITMAP
7F
23
23
23
23
23
23
23
23
23
63
E3
ENDCHAR
STARTCHAR 041C
ENCODING 1052
SWIDTH 540 0
DWIDTH 9 0
BBX 7 12 1 1
BITMAP
86
C6
C6
CE
EE
AE
B6
B6
96
86
86
86
ENDCHAR
STARTCHAR 041D
ENCODING 1053
SWIDTH 540 0
DWIDTH 9 0
BBX 6 12 1 1
BITMAP
84
84
84
84
84
FC
84
84
84
84
84
84
ENDCHAR
STARTCHAR 041E
ENCODING 1054
SWIDTH 540 0
DWIDTH 9 0
BBX 7 13 1 -1
BITMAP
30
7C
C4
86
86
86
86
86
86
86
84
CC
78
ENDCHAR
STARTCHAR 041F
ENCODING 1055
SWIDTH 540 0
DWIDTH 9 0
BBX 6 12 1 1
BITMAP
FC
84
84
84
84
84
84
84
84
84
84
84
ENDCHAR
STARTCHAR 0420
ENCODING 1056
SWIDTH 540 0
DWIDTH 9 0
BBX 7 13 1 0
BITMAP
70
FC
C6
C6
C6
C6
CC
F8
C0
C0
C0
C0
C0
ENDCHAR
STARTCHAR 0421
ENCODING 1057
SWIDTH 540 0
DWIDTH 9 0
BBX 6 13 1 -1
BITMAP
18
7C
40
C0
80
80
80
80
80
C0
C0
64
3C
ENDCHAR
STARTCHAR 0422
ENCODING 1058
SWIDTH 540 0
DWIDTH 9 0
BBX 7 12 1 1
BITMAP
FE
10
10
10
10
10
10
10
10
10
10
10
ENDCHAR
STARTCHAR 0423
ENCODING 1059
SWIDTH 540 0
DWIDTH 9 0
BBX 7 12 1 0
BITMAP
C6
C4
44
6C
68
28
38
10
10
30
20
E0
ENDCHAR
STARTCHAR 0424
ENCODING 1060
SWIDTH 540 0
DWIDTH 9 0
BBX 8 12 0 1
BITMAP
08
3C
6A
4B
C9
C9
C9
49
4B
3E
08
08
ENDCHAR
STARTCHAR 0425
ENCODING 1061
SWIDTH 540 0
DWIDTH 9 0
BBX 7 12 1 1
BITMAP
C6
4C
48
28
38
30
30
38
68
4C
C4
84
ENDCHAR
STARTCHAR 0426
ENCODING 1062
SWIDTH 540 0
DWIDTH 9 0
BBX 7 15 1 -2
BITMAP
84
84
84
84
84
84
84
84
84
84
84
FE
02
02
02
ENDCHAR
STARTCHAR 0427
ENCODING 1063
SWIDTH 540 0
DWIDTH 9 0
BBX 6 12 1 1
BITMAP
84
84
84
84
84
84
C4
7C
04
04
04
04
ENDCHAR
STARTCHAR 0428
ENCODING 1064
SWIDTH 540 0
DWIDTH 9 0
BBX 7 12 1 1
BITMAP
92
92
92
92
92
92
92
92
92
92
92
FE
ENDCHAR
STARTCHAR 0429
ENCODING 1065
SWIDTH 540 0
DWIDTH 9 0
BBX 8 15 0 -2
BITMAP
DA
DA
DA
DA
DA
DA
DA
DA
DA
DA
DA
FF
01
01
01
ENDCHAR
STARTCHAR 042A
ENCODING 1066
SWIDTH 540 0
DWIDTH 9 0
BBX 8 12 0 0
BITMAP
F0
30
30
30
30
3E
33
31
31
31
33
3E
ENDCHAR
STARTCHAR 042B
ENCODING 1067
SWIDTH 540 0
DWIDTH 9 0
BBX 7 12 1 0
BITMAP
86
86
86
86
E6
F6
9E
8E
8E
8E
9E
F6
ENDCHAR
STARTCHAR 042C
ENCODING 1068
SWIDTH 540 0
DWIDTH 9 0
BBX 7 12 1 0
BITMAP
C0
C0
C0
C0
C0
FC
C4
C6
C6
C6
C4
FC
ENDCHAR
STARTCHAR 042D
ENCODING 1069
SWIDTH 540 0
DWIDTH 9 0
BBX 7 13 1 -1
BITMAP
20
F8
0C
04
04
06
7E
06
04
04
04
8C
F8
ENDCHAR
STARTCHAR 042E
ENCODING 1070
SWIDTH 540 0
DWIDTH 9 0
BBX 8 13 0 -1
BITMAP
04
DE
D1
D1
D1
D1
F1
D1
D1
D1
D1
DB
CE
ENDCHAR
STARTCHAR 042F
ENCODING 1071
SWIDTH 540 0
DWIDTH 9 0
BBX 6 13 1 0
BITMAP
18
7C
C4
84
84
C4
7C
7C
44
44
C4
84
84
ENDCHAR
STARTCHAR 0430
ENCODING 1072
SWIDTH 540 0
DWIDTH 9 0
BBX 6 9 1 -1
BITMAP
78
84
04
3C
64
84
84
CC
74
ENDCHAR
STARTCHAR 0431
ENCODING 1073
SWIDTH 540 0
DWIDTH 9 0
BBX 7 13 1 -1
BITMAP
1C
7C
C0
C0
D8
EC
C4
C6
C6
C6
C4
44
78
ENDCHAR
STARTCHAR 0432
ENCODING 1074
SWIDTH 540 0
DWIDTH 9 0
BBX 7 9 1 -1
BITMAP
F8
CC
C4
CC
F8
C4
C6
C4
FC
ENDCHAR
STARTCHAR 0433
ENCODING 1075
SWIDTH 540 0
DWIDTH 9 0
BBX 5 9 2 0
BITMAP
F8
80
80
80
80
80
80
80
80
ENDCHAR
STARTCHAR 0434
ENCODING 1076
SWIDTH 540 0
DWIDTH 9 0
BBX 7 11 1 -3
BITMAP
7C
44
44
44
44
44
44
C4
FE
82
82
ENDCHAR
STARTCHAR 0435
ENCODING 1077
SWIDTH 540 0
DWIDTH 9 0
BBX 6 9 1 -1
BITMAP
78
4C
C4
84
FC
80
C0
44
7C
ENDCHAR
STARTCHAR 0436
ENCODING 1078
SWIDTH 540 0
DWIDTH 9 0
BBX 8 9 0 0
BITMAP
C9
4B
4A
2A
3E
6A
4A
4B
49
ENDCHAR
STARTCHAR 0437
ENCODING 1079
SWIDTH 540 0
DWIDTH 9 0
BBX 6 9 1 -1
BITMAP
F8
8C
04
0C
78
0C
04
04
F8
ENDCHAR
STARTCHAR 0438
ENCODING 1080
SWIDTH 540 0
DWIDTH 9 0
BBX 6 9 1 0
BITMAP
C4
CC
CC
D4
D4
E4
E4
C4
C4
ENDCHAR
STARTCHAR 0439
ENCODING 1081
SWIDTH 540 0
DWIDTH 9 0
BBX 6 13 1 0
BITMAP
C4
4C
78
00
C4
CC
CC
D4
D4
E4
E4
C4
C4
ENDCHAR
STARTCHAR 043A
ENCODING 1082
SWIDTH 540 0
DWIDTH 9 0
BBX 7 9 1 0
BITMAP
C6
C8
D0
F0
E0
F0
D8
C8
C4
ENDCHAR
STARTCHAR 043B
ENCODING 1083
SWIDTH 540 0
DWIDTH 9 0
BBX 7 9 0 -1
BITMAP
7E
22
22
22
22
22
22
22
E2
ENDCHAR
STARTCHAR 043C
ENCODING 1084
SWIDTH 540 0
DWIDTH 9 0
BBX 7 9 1 0
BITMAP
C6
C6
CE
AE
B6
B6
96
86
86
ENDCHAR
STARTCHAR 043D
ENCODING 1085
SWIDTH 540 0
DWIDTH 9 0
BBX 6 9 1 0
BITMAP
84
84
84
84
FC
84
84
84
84
ENDCHAR
STARTCHAR 043E
ENCODING 1086
SWIDTH 540 0
DWIDTH 9 0
BBX 7 9 1 -1
BITMAP
78
CC
84
86
86
86
84
C4
78
ENDCHAR
STARTCHAR 043F
ENCODING 1087
SWIDTH 540 0
DWIDTH 9 0
BBX 6 9 1 0
BITMAP
FC
84
84
84
84
84
84
84
84
ENDCHAR
STARTCHAR 0440
ENCODING 1088
SWIDTH 540 0
DWIDTH 9 0
BBX 7 13 1 -4
BITMAP
B8
EC
C4
86
86
86
C4
CC
B8
80
80
80
80
ENDCHAR
STARTCHAR 0441
ENCODING 1089
SWIDTH 540 0
DWIDTH 9 0
BBX 6 9 1 -1
BITMAP
3C
64
40
C0
C0
C0
40
64
3C
ENDCHAR
STARTCHAR 0442
ENCODING 1090
SWIDTH 540 0
DWIDTH 9 0
BBX 7 9 1 0
BITMAP
FE
10
10
10
10
10
10
10
10
ENDCHAR
STARTCHAR 0443
ENCODING 1091
SWIDTH 540 0
DWIDTH 9 0
BBX 7 13 1 -4
BITMAP
86
C4
44
44
6C
28
28
38
10
10
30
20
C0
ENDCHAR
STARTCHAR 0444
ENCODING 1092
SWIDTH 540 0
DWIDTH 9 0
BBX 8 17 0 -4
BITMAP
08
08
08
08
3C
6A
4B
C9
C9
C9
49
6A
3E
08
08
08
08
ENDCHAR
STARTCHAR 0445
ENCODING 1093
SWIDTH 540 0
DWIDTH 9 0
BBX 7 9 1 0
BITMAP
C6
4C
68
38
30
38
68
4C
C4
ENDCHAR
STARTCHAR 0446
ENCODING 1094
SWIDTH 540 0
DWIDTH 9 0
BBX 7 11 1 -2
BITMAP
84
84
84
84
84
84
84
84
FE
02
02
ENDCHAR
STARTCHAR 0447
ENCODING 1095
SWIDTH 540 0
DWIDTH 9 0
BBX 6 9 1 0
BITMAP
84
84
84
84
C4
FC
04
04
04
ENDCHAR
STARTCHAR 0448
ENCODING 1096
SWIDTH 540 0
DWIDTH 9 0
BBX 7 9 1 0
BITMAP
92
92
92
92
92
92
92
92
FE
ENDCHAR
STARTCHAR 0449
ENCODING 1097
SWIDTH 540 0
DWIDTH 9 0
BBX 7 11 1 -2
BITMAP
B4
B4
B4
B4
B4
B4
B4
B4
FE
02
02
ENDCHAR
STARTCHAR 044A
ENCODING 1098
SWIDTH 540 0
DWIDTH 9 0
BBX 8 9 0 -1
BITMAP
F0
30
30
30
3F
31
31
33
3E
ENDCHAR
STARTCHAR 044B
ENCODING 1099
SWIDTH 540 0
DWIDTH 9 0
BBX 7 9 1 -1
BITMAP
86
86
86
F6
9E
8E
8E
9E
F6
ENDCHAR
STARTCHAR 044C
ENCODING 1100
SWIDTH 540 0
DWIDTH 9 0
BBX 7 9 1 -1
BITMAP
C0
C0
C0
C0
FC
C6
C6
C4
FC
ENDCHAR
STARTCHAR 044D
ENCODING 1101
SWIDTH 540 0
DWIDTH 9 0
BBX 7 9 1 -1
BITMAP
F8
8C
04
04
7E
04
04
0C
F8
ENDCHAR
STARTCHAR 044E
ENCODING 1102
SWIDTH 540 0
DWIDTH 9 0
BBX 7 9 1 -1
BITMAP
9C
A6
A2
A2
E2
A2
A2
A2
9C
ENDCHAR
STARTCHAR 044F
ENCODING 1103
SWIDTH 540 0
DWIDTH 9 0
BBX 6 9 1 0
BITMAP
7C
C4
84
84
7C
64
44
C4
84
ENDCHAR
STARTCHAR 0450
ENCODING 1104
SWIDTH 540 0
DWIDTH 9 0
BBX 6 13 1 -1
BITMAP
60
30
18
00
78
4C
C4
84
FC
80
C0
44
7C
ENDCHAR
STARTCHAR 0451
ENCODING 1105
SWIDTH 540 0
DWIDTH 9 0
BBX 6 13 1 -1
BITMAP
68
68
68
00
78
4C
C4
84
FC
80
C0
44
7C
ENDCHAR
STARTCHAR 0452
ENCODING 1106
SWIDTH 540 0
DWIDTH 9 0
BBX 8 17 0 -4
BITMAP
20
20
FC
20
2E
33
23
21
21
21
21
21
21
01
03
13
0E
ENDCHAR
STARTCHAR 0453
ENCODING 1107
SWIDTH 540 0
DWIDTH 9 0
BBX 5 13 2 0
BITMAP
30
60
40
00
F8
80
80
80
80
80
80
80
80
ENDCHAR
STARTCHAR 0454
ENCODING 1108
SWIDTH 540 0
DWIDTH 9 0
BBX 6 9 1 -1
BITMAP
3C
64
C0
80
FC
80
C0
40
3C
ENDCHAR
STARTCHAR 0455
ENCODING 1109
SWIDTH 540 0
DWIDTH 9 0
BBX 6 9 1 -1
BITMAP
7C
C4
C0
40
38
0C
04
84
FC
ENDCHAR
STARTCHAR 0456
ENCODING 1110
SWIDTH 540 0
DWIDTH 9 0
BBX 5 13 2 0
BITMAP
20
20
00
00
E0
20
20
20
20
20
20
20
F8
ENDCHAR
STARTCHAR 0457
ENCODING 1111
SWIDTH 540 0
DWIDTH 9 0
BBX 5 13 2 0
BITMAP
D0
D0
D0
00
E0
20
20
20
20
20
20
20
F8
ENDCHAR
STARTCHAR 0458
ENCODING 1112
SWIDTH 540 0
DWIDTH 9 0
BBX 4 17 2 -4
BITMAP
30
30
00
00
F0
30
30
30
30
30
30
30
30
30
30
20
E0
ENDCHAR
STARTCHAR 0459
ENCODING 1113
SWIDTH 540 0
DWIDTH 9 0
BBX 8 9 0 -1
BITMAP
7C
6C
6C
6F
6D
6D
6D
6D
CF
ENDCHAR
STARTCHAR 045A
ENCODING 1114
SWIDTH 540 0
DWIDTH 9 0
BBX 7 9 1 -1
BITMAP
90
90
90
FC
F6
92
92
92
9E
ENDCHAR
STARTCHAR 045B
ENCODING 1115
SWIDTH 540 0
DWIDTH 9 0
BBX 8 13 0 0
BITMAP
20
20
FC
20
2E
33
23
21
21
21
21
21
21
ENDCHAR
STARTCHAR 045C
ENCODING 1116
SWIDTH 540 0
DWIDTH 9 0
BBX 7 13 1 0
BITMAP
18
30
20
00
C6
C8
D0
F0
E0
F0
D8
C8
C4
ENDCHAR
STARTCHAR 045D
ENCODING 1117
SWIDTH 540 0
DWIDTH 9 0
BBX 6 13 1 0
BITMAP
60
30
18
00
C4
CC
CC
D4
D4
E4
E4
C4
C4
ENDCHAR
STARTCHAR 045E
ENCODING 1118
SWIDTH 540 0
DWIDTH 9 0
BBX 7 17 1 -4
BITMAP
C4
4C
78
00
86
C4
44
44
6C
28
28
38
10
10
30
20
C0
ENDCHAR
STARTCHAR 045F
ENCODING 1119
SWIDTH 540 0
DWIDTH 9 0
BBX 6 11 1 -2
BITMAP
84
84
84
84
84
84
84
84
FC
10
10
ENDCHAR
STARTCHAR 0462
ENCODING 1122
SWIDTH 540 0
DWIDTH 9 0
BBX 8 12 0 0
BITMAP
20
FE
20
20
20
3E
23
21
21
23
23
3E
ENDCHAR
STARTCHAR 0463
ENCODING 1123
SWIDTH 540 0
DWIDTH 9 0
BBX 8 13 0 -1
BITMAP
20
20
20
20
FC
20
20
20
3E
21
21
23
3E
ENDCHAR
STARTCHAR 0472
ENCODING 1138
SWIDTH 540 0
DWIDTH 9 0
BBX 7 13 1 -1
BITMAP
30
7C
C4
86
86
C6
F6
9E
86
86
84
CC
78
ENDCHAR
STARTCHAR 0473
ENCODING 1139
SWIDTH 540 0
DWIDTH 9 0
BBX 7 9 1 -1
BITMAP
78
CC
84
C6
F6
8E
84
C4
78
ENDCHAR
STARTCHAR 0474
ENCODING 1140
SWIDTH 540 0
DWIDTH 9 0
BBX 8 13 0 0
BITMAP
01
C3
46
46
64
64
24
24
2C
28
18
18
18
ENDCHAR
STARTCHAR 0475
ENCODING 1141
SWIDTH 540 0
DWIDTH 9 0
BBX 7 9 1 0
BITMAP
86
CC
C8
48
48
58
70
30
30
ENDCHAR
STARTCHAR 0480
ENCODING 1152
SWIDTH 540 0
DWIDTH 9 0
BBX 7 17 1 -4
BITMAP
08
3E
60
40
40
C0
C0
C0
40
40
40
60
3C
0C
0C
0C
0C
ENDCHAR
STARTCHAR 0481
ENCODING 1153
SWIDTH 540 0
DWIDTH 9 0
BBX 5 12 2 -4
BITMAP
78
C8
80
80
80
80
80
C0
70
10
10
10
ENDCHAR
STARTCHAR 0490
ENCODING 1168
SWIDTH 540 0
DWIDTH 9 0
BBX 5 15 2 1
BITMAP
08
08
08
F8
80
80
80
80
80
80
80
80
80
80
80
ENDCHAR
STARTCHAR 0491
ENCODING 1169
SWIDTH 540 0
DWIDTH 9 0
BBX 5 12 2 0
BITMAP
08
08
08
F8
80
80
80
80
80
80
80
80
ENDCHAR
STARTCHAR 04AE
ENCODING 1198
SWIDTH 540 0
DWIDTH 9 0
BBX 8 12 0 1
BITMAP
C3
62
26
24
14
1C
18
08
08
08
08
08
ENDCHAR
STARTCHAR 04AF
ENCODING 1199
SWIDTH 540 0
DWIDTH 9 0
BBX 7 13 1 -4
BITMAP
86
C4
44
4C
68
38
30
10
10
10
10
10
10
ENDCHAR
STARTCHAR 04E8
ENCODING 1256
SWIDTH 540 0
DWIDTH 9 0
BBX 7 13 1 -1
BITMAP
30
7C
C4
86
86
86
FE
86
86
86
84
CC
78
ENDCHAR
STARTCHAR 04E9
ENCODING 1257
SWIDTH 540 0
DWIDTH 9 0
BBX 7 9 1 -1
BITMAP
78
CC
84
86
FE
86
84
C4
78
ENDCHAR
STARTCHAR 1D30
ENCODING 7472
SWIDTH 540 0
DWIDTH 9 0
BBX 4 8 2 4
BITMAP
40
B0
90
90
90
90
90
F0
ENDCHAR
STARTCHAR 1D35
ENCODING 7477
SWIDTH 540 0
DWIDTH 9 0
BBX 3 7 3 5
BITMAP
E0
40
40
40
40
40
E0
ENDCHAR
STARTCHAR 1D38
ENCODING 7480
SWIDTH 540 0
DWIDTH 9 0
BBX 3 7 3 5
BITMAP
80
80
80
80
80
80
E0
ENDCHAR
STARTCHAR 1D39
ENCODING 7481
SWIDTH 540 0
DWIDTH 9 0
BBX 4 7 2 5
BITMAP
D0
D0
D0
B0
B0
90
90
ENDCHAR
STARTCHAR 1D3A
ENCODING 7482
SWIDTH 540 0
DWIDTH 9 0
BBX 4 7 2 5
BITMAP
D0
D0
D0
B0
B0
90
90
ENDCHAR
STARTCHAR 1D40
ENCODING 7488
SWIDTH 540 0
DWIDTH 9 0
BBX 4 7 2 5
BITMAP
F0
20
20
20
20
20
20
ENDCHAR
STARTCHAR 1D48
ENCODING 7496
SWIDTH 540 0
DWIDTH 9 0
BBX 4 8 2 4
BITMAP
10
10
10
F0
90
90
90
70
ENDCHAR
STARTCHAR 1D49
ENCODING 7497
SWIDTH 540 0
DWIDTH 9 0
BBX 4 5 2 5
BITMAP
70
90
F0
80
70
ENDCHAR
STARTCHAR 1D4A
ENCODING 7498
SWIDTH 540 0
DWIDTH 9 0
BBX 4 5 2 5
BITMAP
F0
10
F0
90
70
ENDCHAR
STARTCHAR 1D50
ENCODING 7504
SWIDTH 540 0
DWIDTH 9 0
BBX 5 5 2 5
BITMAP
F8
A8
A8
A8
A8
ENDCHAR
STARTCHAR 1D57
ENCODING 7511
SWIDTH 540 0
DWIDTH 9 0
BBX 4 7 2 4
BITMAP
40
40
F0
40
40
40
30
ENDCHAR
STARTCHAR 1D5B
ENCODING 7515
SWIDTH 540 0
DWIDTH 9 0
BBX 4 5 2 5
BITMAP
90
50
50
60
60
ENDCHAR
STARTCHAR 1D9C
ENCODING 7580
SWIDTH 540 0
DWIDTH 9 0
BBX 4 5 2 5
BITMAP
70
40
80
40
70
ENDCHAR
STARTCHAR 1DBF
ENCODING 7615
SWIDTH 540 0
DWIDTH 9 0
BBX 4 8 2 4
BITMAP
20
50
90
90
F0
90
90
70
ENDCHAR
STARTCHAR 1E02
ENCODING 7682
SWIDTH 540 0
DWIDTH 9 0
BBX 7 16 1 -1
BITMAP
10
10
00
70
FC
C4
C4
C4
CC
F8
C4
C6
C6
C6
C4
F8
ENDCHAR
STARTCHAR 1E03
ENCODING 7683
SWIDTH 540 0
DWIDTH 9 0
BBX 7 16 1 -1
BITMAP
10
10
00
80
80
80
80
B8
AC
C4
C6
86
86
C6
C4
BC
ENDCHAR
STARTCHAR 1E04
ENCODING 7684
SWIDTH 540 0
DWIDTH 9 0
BBX 7 17 1 -4
BITMAP
70
FC
C4
C4
C4
CC
F8
C4
C6
C6
C6
C4
F8
00
10
10
10
ENDCHAR
STARTCHAR 1E05
ENCODING 7685
SWIDTH 540 0
DWIDTH 9 0
BBX 7 17 1 -4
BITMAP
80
80
80
80
B8
EC
C6
C6
86
86
C6
CC
B8
00
10
10
10
ENDCHAR
STARTCHAR 1E06
ENCODING 7686
SWIDTH 540 0
DWIDTH 9 0
BBX 7 16 1 -4
BITMAP
70
FC
C4
C4
C4
CC
F8
C4
C6
C6
C6
C4
F8
00
00
7C
ENDCHAR
STARTCHAR 1E07
ENCODING 7687
SWIDTH 540 0
DWIDTH 9 0
BBX 7 16 1 -4
BITMAP
80
80
80
80
B8
EC
C6
C6
86
86
C6
CC
B8
00
00
7C
ENDCHAR
STARTCHAR 1E0A
ENCODING 7690
SWIDTH 540 0
DWIDTH 9 0
BBX 7 16 1 -1
BITMAP
10
10
00
60
FC
C4
C6
C6
C6
C2
C2
C6
C6
C4
CC
F8
ENDCHAR
STARTCHAR 1E0B
ENCODING 7691
SWIDTH 540 0
DWIDTH 9 0
BBX 6 16 1 -1
BITMAP
10
10
00
04
04
04
04
74
EC
84
84
84
84
84
CC
7C
ENDCHAR
STARTCHAR 1E0C
ENCODING 7692
SWIDTH 540 0
DWIDTH 9 0
BBX 7 17 1 -4
BITMAP
60
FC
C4
C6
C6
C6
C2
C2
C6
C6
C4
CC
F8
00
10
10
10
ENDCHAR
STARTCHAR 1E0D
ENCODING 7693
SWIDTH 540 0
DWIDTH 9 0
BBX 6 17 1 -4
BITMAP
04
04
04
04
74
CC
84
84
84
84
84
CC
74
00
10
10
10
ENDCHAR
STARTCHAR 1E0E
ENCODING 7694
SWIDTH 540 0
DWIDTH 9 0
BBX 7 16 1 -4
BITMAP
60
FC
C4
C6
C6
C6
C2
C2
C6
C6
C4
CC
F8
00
00
7C
ENDCHAR
STARTCHAR 1E0F
ENCODING 7695
SWIDTH 540 0
DWIDTH 9 0
BBX 6 16 1 -4
BITMAP
04
04
04
04
74
CC
84
84
84
84
84
CC
74
00
00
7C
ENDCHAR
STARTCHAR 1E1E
ENCODING 7710
SWIDTH 540 0
DWIDTH 9 0
BBX 5 16 2 0
BITMAP
20
20
00
00
F8
80
80
80
80
F8
80
80
80
80
80
80
ENDCHAR
STARTCHAR 1E1F
ENCODING 7711
SWIDTH 540 0
DWIDTH 9 0
BBX 6 16 1 0
BITMAP
10
10
00
0C
1C
30
30
3C
FC
30
30
30
30
30
30
30
ENDCHAR
STARTCHAR 1E24
ENCODING 7716
SWIDTH 540 0
DWIDTH 9 0
BBX 6 16 1 -3
BITMAP
84
84
84
84
84
FC
84
84
84
84
84
84
00
10
10
10
ENDCHAR
STARTCHAR 1E25
ENCODING 7717
SWIDTH 540 0
DWIDTH 9 0
BBX 6 17 1 -4
BITMAP
C0
C0
C0
C0
FC
E4
C4
C4
C4
C4
C4
C4
C4
00
10
10
10
ENDCHAR
STARTCHAR 1E32
ENCODING 7730
SWIDTH 540 0
DWIDTH 9 0
BBX 7 16 1 -3
BITMAP
C6
CC
D8
D0
F0
E0
F0
D0
D8
C8
CC
C6
00
10
10
10
ENDCHAR
STARTCHAR 1E33
ENCODING 7731
SWIDTH 540 0
DWIDTH 9 0
BBX 7 17 1 -4
BITMAP
C0
C0
C0
C0
C6
CC
D8
F0
E0
F0
D8
CC
C4
02
10
10
10
ENDCHAR
STARTCHAR 1E34
ENCODING 7732
SWIDTH 540 0
DWIDTH 9 0
BBX 7 15 1 -3
BITMAP
C6
CC
D8
D0
F0
E0
F0
D0
D8
C8
CC
C6
00
00
7C
ENDCHAR
STARTCHAR 1E35
ENCODING 7733
SWIDTH 540 0
DWIDTH 9 0
BBX 7 16 1 -4
BITMAP
C0
C0
C0
C0
C6
CC
D8
F0
E0
F0
D8
CC
C4
02
00
7C
ENDCHAR
STARTCHAR 1E36
ENCODING 7734
SWIDTH 540 0
DWIDTH 9 0
BBX 5 16 2 -3
BITMAP
80
80
80
80
80
80
80
80
80
80
80
F8
00
20
20
20
ENDCHAR
STARTCHAR 1E37
ENCODING 7735
SWIDTH 540 0
DWIDTH 9 0
BBX 6 16 1 -3
BITMAP
F0
30
30
30
30
30
30
30
30
30
30
1C
00
10
10
10
ENDCHAR
STARTCHAR 1E38
ENCODING 7736
SWIDTH 540 0
DWIDTH 9 0
BBX 5 19 2 -3
BITMAP
F8
00
00
80
80
80
80
80
80
80
80
80
80
80
F8
00
20
20
20
ENDCHAR
STARTCHAR 1E39
ENCODING 7737
SWIDTH 540 0
DWIDTH 9 0
BBX 6 19 1 -3
BITMAP
7C
00
00
F0
30
30
30
30
30
30
30
30
30
30
1C
00
10
10
10
ENDCHAR
STARTCHAR 1E3A
ENCODING 7738
SWIDTH 540 0
DWIDTH 9 0
BBX 5 15 2 -3
BITMAP
80
80
80
80
80
80
80
80
80
80
80
F8
00
00
F8
ENDCHAR
STARTCHAR 1E3B
ENCODING 7739
SWIDTH 540 0
DWIDTH 9 0
BBX 6 15 1 -3
BITMAP
F0
30
30
30
30
30
30
30
30
30
30
1C
00
00
7C
ENDCHAR
STARTCHAR 1E3E
ENCODING 7742
SWIDTH 540 0
DWIDTH 9 0
BBX 7 16 1 1
BITMAP
18
30
20
00
86
C6
C6
CE
EE
AE
B6
B6
96
86
86
86
ENDCHAR
STARTCHAR 1E3F
ENCODING 7743
SWIDTH 540 0
DWIDTH 9 0
BBX 8 13 0 0
BITMAP
0C
18
10
00
F7
DD
C9
C9
C9
C9
C9
C9
C9
ENDCHAR
STARTCHAR 1E40
ENCODING 7744
SWIDTH 540 0
DWIDTH 9 0
BBX 7 16 1 0
BITMAP
10
10
00
00
86
C6
C6
CE
EE
AE
B6
B6
96
86
86
86
ENDCHAR
STARTCHAR 1E41
ENCODING 7745
SWIDTH 540 0
DWIDTH 9 0
BBX 8 13 0 0
BITMAP
08
08
08
00
F7
DD
C9
C9
C9
C9
C9
C9
C9
ENDCHAR
STARTCHAR 1E42
ENCODING 7746
SWIDTH 540 0
DWIDTH 9 0
BBX 7 16 1 -3
BITMAP
86
C6
C6
CE
EE
AE
B6
B6
96
86
86
86
00
10
10
10
ENDCHAR
STARTCHAR 1E43
ENCODING 7747
SWIDTH 540 0
DWIDTH 9 0
BBX 8 13 0 -3
BITMAP
F7
DD
C9
C9
C9
C9
C9
C9
C9
00
08
08
08
ENDCHAR
STARTCHAR 1E46
ENCODING 7750
SWIDTH 540 0
DWIDTH 9 0
BBX 6 16 1 -3
BITMAP
C4
C4
E4
E4
E4
D4
D4
D4
CC
CC
CC
C4
00
10
10
10
ENDCHAR
STARTCHAR 1E47
ENCODING 7751
SWIDTH 540 0
DWIDTH 9 0
BBX 6 13 1 -4
BITMAP
BC
E4
C4
C4
C4
C4
C4
C4
C4
00
10
10
10
ENDCHAR
STARTCHAR 1E48
ENCODING 7752
SWIDTH 540 0
DWIDTH 9 0
BBX 6 15 1 -3
BITMAP
C4
C4
E4
E4
E4
D4
D4
D4
CC
CC
CC
C4
00
00
7C
ENDCHAR
STARTCHAR 1E49
ENCODING 7753
SWIDTH 540 0
DWIDTH 9 0
BBX 6 12 1 -4
BITMAP
BC
E4
C4
C4
C4
C4
C4
C4
C4
00
00
7C
ENDCHAR
STARTCHAR 1E56
ENCODING 7766
SWIDTH 540 0
DWIDTH 9 0
BBX 7 16 1 0
BITMAP
10
10
00
70
FC
C6
C6
C6
C6
CC
F8
C0
C0
C0
C0
C0
ENDCHAR
STARTCHAR 1E57
ENCODING 7767
SWIDTH 540 0
DWIDTH 9 0
BBX 7 17 1 -4
BITMAP
10
10
10
00
B8
EC
C4
86
86
86
C4
CC
B8
80
80
80
80
ENDCHAR
STARTCHAR 1E5A
ENCODING 7770
SWIDTH 540 0
DWIDTH 9 0
BBX 7 17 1 -4
BITMAP
70
FC
C4
C6
C6
C4
FC
F8
CC
C4
C4
C6
C6
00
10
10
10
ENDCHAR
STARTCHAR 1E5B
ENCODING 7771
SWIDTH 540 0
DWIDTH 9 0
BBX 5 13 2 -4
BITMAP
B8
E0
C0
80
80
80
80
80
80
00
20
20
20
ENDCHAR
STARTCHAR 1E5C
ENCODING 7772
SWIDTH 540 0
DWIDTH 9 0
BBX 7 19 1 -3
BITMAP
7C
00
70
FC
C4
C6
C6
C4
FC
F8
CC
C4
C4
C6
C6
00
10
10
10
ENDCHAR
STARTCHAR 1E5D
ENCODING 7773
SWIDTH 540 0
DWIDTH 9 0
BBX 5 16 2 -4
BITMAP
F8
00
00
B8
E0
C0
80
80
80
80
80
80
00
20
20
20
ENDCHAR
STARTCHAR 1E5E
ENCODING 7774
SWIDTH 540 0
DWIDTH 9 0
BBX 7 16 1 -4
BITMAP
70
FC
C4
C6
C6
C4
FC
F8
CC
C4
C4
C6
C6
00
00
7C
ENDCHAR
STARTCHAR 1E5F
ENCODING 7775
SWIDTH 540 0
DWIDTH 9 0
BBX 5 12 2 -4
BITMAP
B8
E0
C0
80
80
80
80
80
80
00
00
F8
ENDCHAR
STARTCHAR 1E60
ENCODING 7776
SWIDTH 540 0
DWIDTH 9 0
BBX 6 16 1 -1
BITMAP
10
10
00
18
7C
C4
C0
C0
60
30
0C
04
04
04
84
78
ENDCHAR
STARTCHAR 1E61
ENCODING 7777
SWIDTH 540 0
DWIDTH 9 0
BBX 6 13 1 -1
BITMAP
10
10
10
00
7C
C4
C0
40
38
0C
04
84
FC
ENDCHAR
STARTCHAR 1E62
ENCODING 7778
SWIDTH 540 0
DWIDTH 9 0
BBX 6 17 1 -4
BITMAP
18
7C
C4
C0
C0
60
30
0C
04
04
04
84
78
00
10
10
10
ENDCHAR
STARTCHAR 1E63
ENCODING 7779
SWIDTH 540 0
DWIDTH 9 0
BBX 6 13 1 -4
BITMAP
7C
C4
C0
40
38
0C
04
84
FC
00
10
10
10
ENDCHAR
STARTCHAR 1E68
ENCODING 7784
SWIDTH 540 0
DWIDTH 9 0
BBX 6 20 1 -4
BITMAP
10
10
00
18
7C
C4
C0
C0
60
30
0C
04
04
04
84
78
00
10
10
10
ENDCHAR
STARTCHAR 1E69
ENCODING 7785
SWIDTH 540 0
DWIDTH 9 0
BBX 6 17 1 -4
BITMAP
10
10
10
00
7C
C4
C0
40
38
0C
04
84
FC
00
10
10
10
ENDCHAR
STARTCHAR 1E6A
ENCODING 7786
SWIDTH 540 0
DWIDTH 9 0
BBX 7 16 1 0
BITMAP
10
10
00
00
FE
10
10
10
10
10
10
10
10
10
10
10
ENDCHAR
STARTCHAR 1E6B
ENCODING 7787
SWIDTH 540 0
DWIDTH 9 0
BBX 6 16 1 -1
BITMAP
10
10
00
00
20
20
20
3C
FC
20
20
20
20
20
20
3C
ENDCHAR
STARTCHAR 1E6C
ENCODING 7788
SWIDTH 540 0
DWIDTH 9 0
BBX 7 16 1 -3
BITMAP
FE
10
10
10
10
10
10
10
10
10
10
10
00
10
10
10
ENDCHAR
STARTCHAR 1E6D
ENCODING 7789
SWIDTH 540 0
DWIDTH 9 0
BBX 6 16 1 -4
BITMAP
20
20
20
3C
FC
20
20
20
20
20
20
3C
00
10
10
10
ENDCHAR
STARTCHAR 1E6E
ENCODING 7790
SWIDTH 540 0
DWIDTH 9 0
BBX 7 15 1 -3
BITMAP
FE
10
10
10
10
10
10
10
10
10
10
10
00
00
7C
ENDCHAR
STARTCHAR 1E6F
ENCODING 7791
SWIDTH 540 0
DWIDTH 9 0
BBX 6 15 1 -4
BITMAP
20
20
20
3C
FC
20
20
20
20
20
20
3C
00
00
7C
ENDCHAR
STARTCHAR 1E7E
ENCODING 7806
SWIDTH 540 0
DWIDTH 9 0
BBX 8 16 0 -3
BITMAP
C3
43
62
62
22
26
24
34
14
14
18
18
00
08
08
08
ENDCHAR
STARTCHAR 1E7F
ENCODING 7807
SWIDTH 540 0
DWIDTH 9 0
BBX 7 13 1 -4
BITMAP
86
C4
C4
4C
48
68
28
38
30
00
10
10
10
ENDCHAR
STARTCHAR 1E80
ENCODING 7808
SWIDTH 540 0
DWIDTH 9 0
BBX 8 16 0 1
BITMAP
38
08
04
00
C1
49
59
59
5B
57
57
56
56
76
66
66
ENDCHAR
STARTCHAR 1E81
ENCODING 7809
SWIDTH 540 0
DWIDTH 9 0
BBX 8 13 0 0
BITMAP
30
18
0C
00
D9
59
59
5F
56
56
56
66
26
ENDCHAR
STARTCHAR 1E82
ENCODING 7810
SWIDTH 540 0
DWIDTH 9 0
BBX 8 16 0 1
BITMAP
0C
18
10
00
C1
49
59
59
5B
57
57
56
56
76
66
66
ENDCHAR
STARTCHAR 1E83
ENCODING 7811
SWIDTH 540 0
DWIDTH 9 0
BBX 8 13 0 0
BITMAP
0C
18
10
00
D9
59
59
5F
56
56
56
66
26
ENDCHAR
STARTCHAR 1E84
ENCODING 7812
SWIDTH 540 0
DWIDTH 9 0
BBX 8 16 0 0
BITMAP
34
34
00
00
C1
49
59
59
5B
57
57
56
56
76
66
66
ENDCHAR
STARTCHAR 1E85
ENCODING 7813
SWIDTH 540 0
DWIDTH 9 0
BBX 8 13 0 0
BITMAP
34
34
34
00
D9
59
59
5F
56
56
56
66
26
ENDCHAR
STARTCHAR 1E88
ENCODING 7816
SWIDTH 540 0
DWIDTH 9 0
BBX 8 16 0 -3
BITMAP
C1
49
59
59
5B
57
57
56
56
76
66
66
00
08
08
08
ENDCHAR
STARTCHAR 1E89
ENCODING 7817
SWIDTH 540 0
DWIDTH 9 0
BBX 8 13 0 -4
BITMAP
D9
59
59
5F
56
56
56
66
26
00
08
08
08
ENDCHAR
STARTCHAR 1E92
ENCODING 7826
SWIDTH 540 0
DWIDTH 9 0
BBX 6 16 1 -3
BITMAP
FC
0C
08
08
18
10
30
20
60
40
C0
FC
00
10
10
10
ENDCHAR
STARTCHAR 1E93
ENCODING 7827
SWIDTH 540 0
DWIDTH 9 0
BBX 6 13 1 -4
BITMAP
FC
0C
08
18
10
20
60
40
FC
00
10
10
10
ENDCHAR
STARTCHAR 1E94
ENCODING 7828
SWIDTH 540 0
DWIDTH 9 0
BBX 6 15 1 -3
BITMAP
FC
0C
08
08
18
10
30
20
60
40
C0
FC
00
00
7C
ENDCHAR
STARTCHAR 1E95
ENCODING 7829
SWIDTH 540 0
DWIDTH 9 0
BBX 6 12 1 -4
BITMAP
FC
0C
08
18
10
20
60
40
FC
00
00
7C
ENDCHAR
STARTCHAR 1E96
ENCODING 7830
SWIDTH 540 0
DWIDTH 9 0
BBX 6 16 1 -4
BITMAP
C0
C0
C0
C0
FC
E4
C4
C4
C4
C4
C4
C4
C4
00
00
7C
ENDCHAR
STARTCHAR 1E9E
ENCODING 7838
SWIDTH 540 0
DWIDTH 9 0
BBX 7 13 1 -1
BITMAP
70
FC
C4
C4
CC
C8
D8
CC
C4
C6
C6
C6
FC
ENDCHAR
STARTCHAR 1EA0
ENCODING 7840
SWIDTH 540 0
DWIDTH 9 0
BBX 8 16 0 -3
BITMAP
18
1C
14
34
24
26
26
7E
62
43
43
C1
00
08
08
08
ENDCHAR
STARTCHAR 1EA1
ENCODING 7841
SWIDTH 540 0
DWIDTH 9 0
BBX 6 13 1 -4
BITMAP
78
84
04
3C
64
84
84
CC
74
00
10
10
10
ENDCHAR
STARTCHAR 1EA2
ENCODING 7842
SWIDTH 540 0
DWIDTH 9 0
BBX 8 17 0 0
BITMAP
3C
06
0C
18
00
18
1C
14
34
24
26
26
7E
62
43
43
C1
ENDCHAR
STARTCHAR 1EA3
ENCODING 7843
SWIDTH 540 0
DWIDTH 9 0
BBX 6 14 1 -1
BITMAP
30
4C
08
30
00
78
84
04
3C
64
84
84
CC
74
ENDCHAR
STARTCHAR 1EA4
ENCODING 7844
SWIDTH 540 0
DWIDTH 9 0
BBX 8 18 0 1
BITMAP
0E
10
00
3C
62
00
18
1C
14
34
24
26
26
7E
62
43
43
C1
ENDCHAR
STARTCHAR 1EA5
ENCODING 7845
SWIDTH 540 0
DWIDTH 9 0
BBX 6 15 1 -1
BITMAP
1C
30
00
38
4C
80
78
84
04
3C
64
84
84
CC
74
ENDCHAR
STARTCHAR 1EA6
ENCODING 7846
SWIDTH 540 0
DWIDTH 9 0
BBX 8 18 0 1
BITMAP
38
0C
00
3C
62
00
18
1C
14
34
24
26
26
7E
62
43
43
C1
ENDCHAR
STARTCHAR 1EA7
ENCODING 7847
SWIDTH 540 0
DWIDTH 9 0
BBX 6 15 1 -1
BITMAP
60
10
08
38
4C
80
78
84
04
3C
64
84
84
CC
74
ENDCHAR
STARTCHAR 1EA8
ENCODING 7848
SWIDTH 540 0
DWIDTH 9 0
BBX 8 18 0 1
BITMAP
1F
01
06
3C
62
00
18
1C
14
34
24
26
26
7E
62
43
43
C1
ENDCHAR
STARTCHAR 1EA9
ENCODING 7849
SWIDTH 540 0
DWIDTH 9 0
BBX 7 15 1 -1
BITMAP
3C
26
06
38
4C
80
78
84
04
3C
64
84
84
CC
74
ENDCHAR
STARTCHAR 1EAA
ENCODING 7850
SWIDTH 540 0
DWIDTH 9 0
BBX 8 18 0 1
BITMAP
32
6E
00
3C
62
00
18
1C
14
34
24
26
26
7E
62
43
43
C1
ENDCHAR
STARTCHAR 1EAB
ENCODING 7851
SWIDTH 540 0
DWIDTH 9 0
BBX 6 15 1 -1
BITMAP
44
74
CC
38
4C
80
78
84
04
3C
64
84
84
CC
74
ENDCHAR
STARTCHAR 1EAC
ENCODING 7852
SWIDTH 540 0
DWIDTH 9 0
BBX 8 20 0 -3
BITMAP
1C
36
62
00
18
1C
14
34
24
26
26
7E
62
43
43
C1
00
08
08
08
ENDCHAR
STARTCHAR 1EAD
ENCODING 7853
SWIDTH 540 0
DWIDTH 9 0
BBX 6 17 1 -4
BITMAP
38
68
CC
00
78
84
04
3C
64
84
84
CC
74
00
10
10
10
ENDCHAR
STARTCHAR 1EAE
ENCODING 7854
SWIDTH 540 0
DWIDTH 9 0
BBX 8 18 0 1
BITMAP
0E
10
62
3E
18
00
18
1C
14
34
24
26
26
7E
62
43
43
C1
ENDCHAR
STARTCHAR 1EAF
ENCODING 7855
SWIDTH 540 0
DWIDTH 9 0
BBX 6 15 1 -1
BITMAP
1C
30
C4
4C
78
00
78
84
04
3C
64
84
84
CC
74
ENDCHAR
STARTCHAR 1EB0
ENCODING 7856
SWIDTH 540 0
DWIDTH 9 0
BBX 8 18 0 1
BITMAP
38
0C
62
3E
18
00
18
1C
14
34
24
26
26
7E
62
43
43
C1
ENDCHAR
STARTCHAR 1EB1
ENCODING 7857
SWIDTH 540 0
DWIDTH 9 0
BBX 6 15 1 -1
BITMAP
60
10
CC
4C
78
00
78
84
04
3C
64
84
84
CC
74
ENDCHAR
STARTCHAR 1EB2
ENCODING 7858
SWIDTH 540 0
DWIDTH 9 0
BBX 8 18 0 0
BITMAP
3C
06
0C
18
62
3C
18
1C
14
34
24
26
26
7E
62
43
43
C1
ENDCHAR
STARTCHAR 1EB3
ENCODING 7859
SWIDTH 540 0
DWIDTH 9 0
BBX 6 16 1 -1
BITMAP
78
8C
18
30
C4
78
00
78
84
04
3C
64
84
84
CC
74
ENDCHAR
STARTCHAR 1EB4
ENCODING 7860
SWIDTH 540 0
DWIDTH 9 0
BBX 8 18 0 0
BITMAP
32
6A
64
62
36
1C
18
1C
14
34
24
26
26
7E
62
43
43
C1
ENDCHAR
STARTCHAR 1EB5
ENCODING 7861
SWIDTH 540 0
DWIDTH 9 0
BBX 6 15 1 0
BITMAP
64
DC
00
C4
78
00
78
84
04
3C
64
84
84
CC
74
ENDCHAR
STARTCHAR 1EB6
ENCODING 7862
SWIDTH 540 0
DWIDTH 9 0
BBX 8 20 0 -3
BITMAP
62
3E
18
00
18
1C
14
34
24
26
26
7E
62
43
43
C1
00
08
08
08
ENDCHAR
STARTCHAR 1EB7
ENCODING 7863
SWIDTH 540 0
DWIDTH 9 0
BBX 6 17 1 -4
BITMAP
C4
4C
78
00
78
84
04
3C
64
84
84
CC
74
00
10
10
10
ENDCHAR
STARTCHAR 1EB8
ENCODING 7864
SWIDTH 540 0
DWIDTH 9 0
BBX 6 16 1 -3
BITMAP
FC
C0
C0
C0
C0
FC
C0
C0
C0
C0
C0
FC
00
10
10
10
ENDCHAR
STARTCHAR 1EB9
ENCODING 7865
SWIDTH 540 0
DWIDTH 9 0
BBX 6 13 1 -4
BITMAP
78
4C
C4
84
FC
80
C0
44
7C
00
10
10
10
ENDCHAR
STARTCHAR 1EBA
ENCODING 7866
SWIDTH 540 0
DWIDTH 9 0
BBX 6 17 1 0
BITMAP
78
0C
18
30
00
FC
C0
C0
C0
C0
FC
C0
C0
C0
C0
C0
FC
ENDCHAR
STARTCHAR 1EBB
ENCODING 7867
SWIDTH 540 0
DWIDTH 9 0
BBX 6 14 1 -1
BITMAP
30
4C
08
30
00
78
4C
C4
84
FC
80
C0
44
7C
ENDCHAR
STARTCHAR 1EBC
ENCODING 7868
SWIDTH 540 0
DWIDTH 9 0
BBX 6 16 1 1
BITMAP
64
DC
08
00
FC
C0
C0
C0
C0
FC
C0
C0
C0
C0
C0
FC
ENDCHAR
STARTCHAR 1EBD
ENCODING 7869
SWIDTH 540 0
DWIDTH 9 0
BBX 6 13 1 -1
BITMAP
40
74
DC
00
78
4C
C4
84
FC
80
C0
44
7C
ENDCHAR
STARTCHAR 1EBE
ENCODING 7870
SWIDTH 540 0
DWIDTH 9 0
BBX 6 18 1 1
BITMAP
1C
20
00
78
C4
00
FC
C0
C0
C0
C0
FC
C0
C0
C0
C0
C0
FC
ENDCHAR
STARTCHAR 1EBF
ENCODING 7871
SWIDTH 540 0
DWIDTH 9 0
BBX 6 15 1 -1
BITMAP
1C
30
00
38
4C
80
78
4C
C4
84
FC
80
C0
44
7C
ENDCHAR
STARTCHAR 1EC0
ENCODING 7872
SWIDTH 540 0
DWIDTH 9 0
BBX 6 18 1 1
BITMAP
70
18
00
78
C4
00
FC
C0
C0
C0
C0
FC
C0
C0
C0
C0
C0
FC
ENDCHAR
STARTCHAR 1EC1
ENCODING 7873
SWIDTH 540 0
DWIDTH 9 0
BBX 6 15 1 -1
BITMAP
60
10
08
38
4C
80
78
4C
C4
84
FC
80
C0
44
7C
ENDCHAR
STARTCHAR 1EC2
ENCODING 7874
SWIDTH 540 0
DWIDTH 9 0
BBX 7 18 1 1
BITMAP
3E
02
0C
78
C4
00
FC
C0
C0
C0
C0
FC
C0
C0
C0
C0
C0
FC
ENDCHAR
STARTCHAR 1EC3
ENCODING 7875
SWIDTH 540 0
DWIDTH 9 0
BBX 7 15 1 -1
BITMAP
3C
26
06
38
4C
80
78
4C
C4
84
FC
80
C0
44
7C
ENDCHAR
STARTCHAR 1EC4
ENCODING 7876
SWIDTH 540 0
DWIDTH 9 0
BBX 6 18 1 1
BITMAP
64
DC
00
78
C4
00
FC
C0
C0
C0
C0
FC
C0
C0
C0
C0
C0
FC
ENDCHAR
STARTCHAR 1EC5
ENCODING 7877
SWIDTH 540 0
DWIDTH 9 0
BBX 6 15 1 -1
BITMAP
44
74
CC
38
4C
80
78
4C
C4
84
FC
80
C0
44
7C
ENDCHAR
STARTCHAR 1EC6
ENCODING 7878
SWIDTH 540 0
DWIDTH 9 0
BBX 6 20 1 -3
BITMAP
38
6C
C4
00
FC
C0
C0
C0
C0
FC
C0
C0
C0
C0
C0
FC
00
10
10
10
ENDCHAR
STARTCHAR 1EC7
ENCODING 7879
SWIDTH 540 0
DWIDTH 9 0
BBX 6 17 1 -4
BITMAP
38
68
CC
00
78
4C
C4
84
FC
80
C0
44
7C
00
10
10
10
ENDCHAR
STARTCHAR 1EC8
ENCODING 7880
SWIDTH 540 0
DWIDTH 9 0
BBX 5 17 2 0
BITMAP
F0
18
30
60
00
F8
20
20
20
20
20
20
20
20
20
20
F8
ENDCHAR
STARTCHAR 1EC9
ENCODING 7881
SWIDTH 540 0
DWIDTH 9 0
BBX 5 14 2 0
BITMAP
60
98
10
60
00
E0
20
20
20
20
20
20
20
F8
ENDCHAR
STARTCHAR 1ECA
ENCODING 7882
SWIDTH 540 0
DWIDTH 9 0
BBX 5 16 2 -3
BITMAP
F8
20
20
20
20
20
20
20
20
20
20
F8
00
20
20
20
ENDCHAR
STARTCHAR 1ECB
ENCODING 7883
SWIDTH 540 0
DWIDTH 9 0
BBX 5 17 2 -4
BITMAP
20
20
00
00
E0
20
20
20
20
20
20
20
F8
00
20
20
20
ENDCHAR
STARTCHAR 1ECC
ENCODING 7884
SWIDTH 540 0
DWIDTH 9 0
BBX 7 17 1 -4
BITMAP
30
7C
C4
86
86
86
86
86
86
86
84
CC
78
00
10
10
10
ENDCHAR
STARTCHAR 1ECD
ENCODING 7885
SWIDTH 540 0
DWIDTH 9 0
BBX 7 13 1 -4
BITMAP
78
CC
84
86
86
86
84
C4
78
00
10
10
10
ENDCHAR
STARTCHAR 1ECE
ENCODING 7886
SWIDTH 540 0
DWIDTH 9 0
BBX 7 17 1 -1
BITMAP
78
0C
18
30
30
7C
C4
86
86
86
86
86
86
86
84
CC
78
ENDCHAR
STARTCHAR 1ECF
ENCODING 7887
SWIDTH 540 0
DWIDTH 9 0
BBX 7 14 1 -1
BITMAP
30
4C
08
30
00
78
CC
84
86
86
86
84
C4
78
ENDCHAR
STARTCHAR 1ED0
ENCODING 7888
SWIDTH 540 0
DWIDTH 9 0
BBX 7 18 1 0
BITMAP
1C
20
00
78
C4
30
7C
C4
86
86
86
86
86
86
86
84
CC
78
ENDCHAR
STARTCHAR 1ED1
ENCODING 7889
SWIDTH 540 0
DWIDTH 9 0
BBX 7 15 1 -1
BITMAP
1C
30
00
38
4C
80
78
CC
84
86
86
86
84
C4
78
ENDCHAR
STARTCHAR 1ED2
ENCODING 7890
SWIDTH 540 0
DWIDTH 9 0
BBX 7 18 1 0
BITMAP
70
18
00
78
C4
30
7C
C4
86
86
86
86
86
86
86
84
CC
78
ENDCHAR
STARTCHAR 1ED3
ENCODING 7891
SWIDTH 540 0
DWIDTH 9 0
BBX 7 15 1 -1
BITMAP
60
10
08
38
4C
80
78
CC
84
86
86
86
84
C4
78
ENDCHAR
STARTCHAR 1ED4
ENCODING 7892
SWIDTH 540 0
DWIDTH 9 0
BBX 7 18 1 0
BITMAP
3E
02
0C
78
C4
30
7C
C4
86
86
86
86
86
86
86
84
CC
78
ENDCHAR
STARTCHAR 1ED5
ENCODING 7893
SWIDTH 540 0
DWIDTH 9 0
BBX 7 15 1 -1
BITMAP
3C
26
06
38
4C
80
78
CC
84
86
86
86
84
C4
78
ENDCHAR
STARTCHAR 1ED6
ENCODING 7894
SWIDTH 540 0
DWIDTH 9 0
BBX 7 18 1 0
BITMAP
64
DC
00
78
C4
30
7C
C4
86
86
86
86
86
86
86
84
CC
78
ENDCHAR
STARTCHAR 1ED7
ENCODING 7895
SWIDTH 540 0
DWIDTH 9 0
BBX 7 15 1 -1
BITMAP
44
74
CC
38
4C
80
78
CC
84
86
86
86
84
C4
78
ENDCHAR
STARTCHAR 1ED8
ENCODING 7896
SWIDTH 540 0
DWIDTH 9 0
BBX 7 20 1 -3
BITMAP
38
6C
C4
30
7C
C4
86
86
86
86
86
86
86
84
CC
78
00
10
10
10
ENDCHAR
STARTCHAR 1ED9
ENCODING 7897
SWIDTH 540 0
DWIDTH 9 0
BBX 7 17 1 -4
BITMAP
38
68
CC
00
78
CC
84
86
86
86
84
C4
78
00
10
10
10
ENDCHAR
STARTCHAR 1EDA
ENCODING 7898
SWIDTH 540 0
DWIDTH 9 0
BBX 7 16 1 0
BITMAP
18
30
20
32
7A
CE
86
84
84
84
84
84
84
84
CC
78
ENDCHAR
STARTCHAR 1EDB
ENCODING 7899
SWIDTH 540 0
DWIDTH 9 0
BBX 7 13 1 -1
BITMAP
18
30
20
02
7A
CA
8E
86
84
84
8C
C8
78
ENDCHAR
STARTCHAR 1EDC
ENCODING 7900
SWIDTH 540 0
DWIDTH 9 0
BBX 7 16 1 0
BITMAP
70
10
08
32
7A
CE
86
84
84
84
84
84
84
84
CC
78
ENDCHAR
STARTCHAR 1EDD
ENCODING 7901
SWIDTH 540 0
DWIDTH 9 0
BBX 7 13 1 -1
BITMAP
60
30
18
02
7A
CA
8E
86
84
84
8C
C8
78
ENDCHAR
STARTCHAR 1EDE
ENCODING 7902
SWIDTH 540 0
DWIDTH 9 0
BBX 7 17 1 -1
BITMAP
78
0C
18
30
32
7A
CE
86
84
84
84
84
84
84
84
CC
78
ENDCHAR
STARTCHAR 1EDF
ENCODING 7903
SWIDTH 540 0
DWIDTH 9 0
BBX 7 14 1 -1
BITMAP
30
4C
08
30
02
7A
CA
8E
86
84
84
8C
C8
78
ENDCHAR
STARTCHAR 1EE0
ENCODING 7904
SWIDTH 540 0
DWIDTH 9 0
BBX 7 16 1 0
BITMAP
64
DC
08
32
7A
CE
86
84
84
84
84
84
84
84
CC
78
ENDCHAR
STARTCHAR 1EE1
ENCODING 7905
SWIDTH 540 0
DWIDTH 9 0
BBX 7 13 1 -1
BITMAP
40
74
DC
02
7A
CA
8E
86
84
84
8C
C8
78
ENDCHAR
STARTCHAR 1EE2
ENCODING 7906
SWIDTH 540 0
DWIDTH 9 0
BBX 7 17 1 -3
BITMAP
32
7A
CE
86
84
84
84
84
84
84
84
CC
78
00
10
10
10
ENDCHAR
STARTCHAR 1EE3
ENCODING 7907
SWIDTH 540 0
DWIDTH 9 0
BBX 7 14 1 -4
BITMAP
02
7A
CA
8E
86
84
84
8C
C8
78
00
10
10
10
ENDCHAR
STARTCHAR 1EE4
ENCODING 7908
SWIDTH 540 0
DWIDTH 9 0
BBX 6 16 1 -3
BITMAP
84
84
84
84
84
84
84
84
84
C4
C4
7C
00
10
10
10
ENDCHAR
STARTCHAR 1EE5
ENCODING 7909
SWIDTH 540 0
DWIDTH 9 0
BBX 6 13 1 -4
BITMAP
84
84
84
84
84
84
84
CC
74
00
10
10
10
ENDCHAR
STARTCHAR 1EE6
ENCODING 7910
SWIDTH 540 0
DWIDTH 9 0
BBX 6 17 1 -1
BITMAP
78
0C
18
30
00
84
84
84
84
84
84
84
84
84
C4
C4
7C
ENDCHAR
STARTCHAR 1EE7
ENCODING 7911
SWIDTH 540 0
DWIDTH 9 0
BBX 6 14 1 -1
BITMAP
30
4C
08
30
00
84
84
84
84
84
84
84
CC
74
ENDCHAR
STARTCHAR 1EE8
ENCODING 7912
SWIDTH 540 0
DWIDTH 9 0
BBX 7 16 1 0
BITMAP
18
30
20
02
8E
8E
8E
8C
8C
8C
8C
8C
8C
8C
C8
78
ENDCHAR
STARTCHAR 1EE9
ENCODING 7913
SWIDTH 540 0
DWIDTH 9 0
BBX 7 13 1 -1
BITMAP
18
30
20
02
8E
8E
8E
8E
8C
8C
8C
DC
FC
ENDCHAR
STARTCHAR 1EEA
ENCODING 7914
SWIDTH 540 0
DWIDTH 9 0
BBX 7 16 1 0
BITMAP
70
10
08
02
8E
8E
8E
8C
8C
8C
8C
8C
8C
8C
C8
78
ENDCHAR
STARTCHAR 1EEB
ENCODING 7915
SWIDTH 540 0
DWIDTH 9 0
BBX 7 13 1 -1
BITMAP
60
30
18
02
8E
8E
8E
8E
8C
8C
8C
DC
FC
ENDCHAR
STARTCHAR 1EEC
ENCODING 7916
SWIDTH 540 0
DWIDTH 9 0
BBX 7 17 1 -1
BITMAP
78
0C
18
30
02
8E
8E
8E
8C
8C
8C
8C
8C
8C
8C
C8
78
ENDCHAR
STARTCHAR 1EED
ENCODING 7917
SWIDTH 540 0
DWIDTH 9 0
BBX 7 14 1 -1
BITMAP
30
4C
08
30
02
8E
8E
8E
8E
8C
8C
8C
DC
FC
ENDCHAR
STARTCHAR 1EEE
ENCODING 7918
SWIDTH 540 0
DWIDTH 9 0
BBX 7 16 1 0
BITMAP
64
DC
08
02
8E
8E
8E
8C
8C
8C
8C
8C
8C
8C
C8
78
ENDCHAR
STARTCHAR 1EEF
ENCODING 7919
SWIDTH 540 0
DWIDTH 9 0
BBX 7 13 1 -1
BITMAP
40
74
DC
02
8E
8E
8E
8E
8C
8C
8C
DC
FC
ENDCHAR
STARTCHAR 1EF0
ENCODING 7920
SWIDTH 540 0
DWIDTH 9 0
BBX 7 17 1 -3
BITMAP
02
8E
8E
8E
8C
8C
8C
8C
8C
8C
8C
C8
78
00
10
10
10
ENDCHAR
STARTCHAR 1EF1
ENCODING 7921
SWIDTH 540 0
DWIDTH 9 0
BBX 7 14 1 -4
BITMAP
02
8E
8E
8E
8E
8C
8C
8C
DC
FC
00
10
10
10
ENDCHAR
STARTCHAR 1EF2
ENCODING 7922
SWIDTH 540 0
DWIDTH 9 0
BBX 8 16 0 1
BITMAP
38
08
04
00
C3
62
26
24
14
1C
18
08
08
08
08
08
ENDCHAR
STARTCHAR 1EF3
ENCODING 7923
SWIDTH 540 0
DWIDTH 9 0
BBX 7 17 1 -4
BITMAP
60
30
18
00
86
C4
44
4C
6C
28
28
38
10
10
30
20
20
ENDCHAR
STARTCHAR 1EF4
ENCODING 7924
SWIDTH 540 0
DWIDTH 9 0
BBX 8 16 0 -3
BITMAP
C3
62
26
24
14
1C
18
08
08
08
08
08
00
08
08
08
ENDCHAR
STARTCHAR 1EF5
ENCODING 7925
SWIDTH 540 0
DWIDTH 9 0
BBX 7 13 1 -4
BITMAP
86
C4
44
4C
68
28
28
38
10
10
30
24
24
ENDCHAR
STARTCHAR 1EF6
ENCODING 7926
SWIDTH 540 0
DWIDTH 9 0
BBX 8 17 0 0
BITMAP
3C
06
0C
18
00
C3
62
26
24
14
1C
18
08
08
08
08
08
ENDCHAR
STARTCHAR 1EF7
ENCODING 7927
SWIDTH 540 0
DWIDTH 9 0
BBX 7 18 1 -4
BITMAP
30
4C
08
30
00
86
C4
44
4C
6C
28
28
38
10
10
30
20
20
ENDCHAR
STARTCHAR 1EF8
ENCODING 7928
SWIDTH 540 0
DWIDTH 9 0
BBX 8 16 0 1
BITMAP
32
6E
04
00
C3
62
26
24
14
1C
18
08
08
08
08
08
ENDCHAR
STARTCHAR 1EF9
ENCODING 7929
SWIDTH 540 0
DWIDTH 9 0
BBX 7 17 1 -4
BITMAP
40
74
DC
00
86
C4
44
4C
6C
28
28
38
10
10
30
20
20
ENDCHAR
STARTCHAR 1EFA
ENCODING 7930
SWIDTH 540 0
DWIDTH 9 0
BBX 7 12 1 1
BITMAP
90
90
90
90
90
90
90
90
90
90
90
FE
ENDCHAR
STARTCHAR 1EFB
ENCODING 7931
SWIDTH 540 0
DWIDTH 9 0
BBX 7 12 1 0
BITMAP
C8
48
FE
FE
48
48
48
48
48
48
4C
4E
ENDCHAR
STARTCHAR 1EFC
ENCODING 7932
SWIDTH 540 0
DWIDTH 9 0
BBX 7 12 1 0
BITMAP
38
60
40
C0
8C
84
86
86
86
86
C4
78
ENDCHAR
STARTCHAR 1EFD
ENCODING 7933
SWIDTH 540 0
DWIDTH 9 0
BBX 6 11 1 0
BITMAP
38
60
40
40
CC
C4
C4
C4
C4
4C
78
ENDCHAR
STARTCHAR 1EFE
ENCODING 7934
SWIDTH 540 0
DWIDTH 9 0
BBX 8 12 0 0
BITMAP
43
62
22
26
34
14
1C
18
7E
D8
D0
70
ENDCHAR
STARTCHAR 1EFF
ENCODING 7935
SWIDTH 540 0
DWIDTH 9 0
BBX 8 13 0 -4
BITMAP
43
62
62
26
24
34
14
18
18
7E
D0
D0
60
ENDCHAR
STARTCHAR 1F00
ENCODING 7936
SWIDTH 540 0
DWIDTH 9 0
BBX 7 13 1 0
BITMAP
78
18
10
20
72
DA
8E
8C
84
84
8E
DE
72
ENDCHAR
STARTCHAR 1F01
ENCODING 7937
SWIDTH 540 0
DWIDTH 9 0
BBX 7 13 1 0
BITMAP
38
60
30
00
72
DA
8E
8C
84
84
8E
DE
72
ENDCHAR
STARTCHAR 1F02
ENCODING 7938
SWIDTH 540 0
DWIDTH 9 0
BBX 7 13 1 0
BITMAP
F8
6C
46
00
72
DA
8E
8C
84
84
8E
DE
72
ENDCHAR
STARTCHAR 1F03
ENCODING 7939
SWIDTH 540 0
DWIDTH 9 0
BBX 7 13 1 0
BITMAP
F8
8C
C6
00
72
DA
8E
8C
84
84
8E
DE
72
ENDCHAR
STARTCHAR 1F04
ENCODING 7940
SWIDTH 540 0
DWIDTH 9 0
BBX 7 13 1 0
BITMAP
E6
6C
58
00
72
DA
8E
8C
84
84
8E
DE
72
ENDCHAR
STARTCHAR 1F05
ENCODING 7941
SWIDTH 540 0
DWIDTH 9 0
BBX 7 13 1 0
BITMAP
E6
8C
D8
00
72
DA
8E
8C
84
84
8E
DE
72
ENDCHAR
STARTCHAR 1F06
ENCODING 7942
SWIDTH 540 0
DWIDTH 9 0
BBX 7 16 1 -1
BITMAP
44
74
CC
30
18
10
20
72
DA
8E
8C
84
84
8E
DE
72
ENDCHAR
STARTCHAR 1F07
ENCODING 7943
SWIDTH 540 0
DWIDTH 9 0
BBX 7 16 1 -1
BITMAP
44
74
CC
38
20
30
00
72
DA
8E
8C
84
84
8E
DE
72
ENDCHAR
STARTCHAR 1F08
ENCODING 7944
SWIDTH 540 0
DWIDTH 9 0
BBX 8 17 0 0
BITMAP
30
3C
0C
18
00
18
1C
14
34
24
26
26
7E
62
43
43
C1
ENDCHAR
STARTCHAR 1F09
ENCODING 7945
SWIDTH 540 0
DWIDTH 9 0
BBX 8 17 0 0
BITMAP
04
1C
30
18
00
18
1C
14
34
24
26
26
7E
62
43
43
C1
ENDCHAR
STARTCHAR 1F0A
ENCODING 7946
SWIDTH 540 0
DWIDTH 9 0
BBX 8 17 0 0
BITMAP
40
7E
12
21
00
18
1C
14
34
24
26
26
7E
62
43
43
C1
ENDCHAR
STARTCHAR 1F0B
ENCODING 7947
SWIDTH 540 0
DWIDTH 9 0
BBX 8 17 0 0
BITMAP
10
7E
42
21
00
18
1C
14
34
24
26
26
7E
62
43
43
C1
ENDCHAR
STARTCHAR 1F0C
ENCODING 7948
SWIDTH 540 0
DWIDTH 9 0
BBX 8 17 0 0
BITMAP
40
77
14
2C
00
18
1C
14
34
24
26
26
7E
62
43
43
C1
ENDCHAR
STARTCHAR 1F0D
ENCODING 7949
SWIDTH 540 0
DWIDTH 9 0
BBX 8 17 0 0
BITMAP
10
77
44
2C
00
18
1C
14
34
24
26
26
7E
62
43
43
C1
ENDCHAR
STARTCHAR 1F0E
ENCODING 7950
SWIDTH 540 0
DWIDTH 9 0
BBX 8 18 0 0
BITMAP
22
3A
66
1C
0C
08
18
1C
14
34
24
26
26
7E
62
43
43
C1
ENDCHAR
STARTCHAR 1F0F
ENCODING 7951
SWIDTH 540 0
DWIDTH 9 0
BBX 8 18 0 0
BITMAP
22
3A
66
1C
10
18
18
1C
14
34
24
26
26
7E
62
43
43
C1
ENDCHAR
STARTCHAR 1F10
ENCODING 7952
SWIDTH 540 0
DWIDTH 9 0
BBX 6 13 1 0
BITMAP
78
18
10
20
7C
C4
C0
60
38
C0
C0
C4
7C
ENDCHAR
STARTCHAR 1F11
ENCODING 7953
SWIDTH 540 0
DWIDTH 9 0
BBX 6 13 1 0
BITMAP
38
60
30
00
7C
C4
C0
60
38
C0
C0
C4
7C
ENDCHAR
STARTCHAR 1F12
ENCODING 7954
SWIDTH 540 0
DWIDTH 9 0
BBX 7 13 1 0
BITMAP
F8
6C
46
00
7C
C4
C0
60
38
C0
C0
C4
7C
ENDCHAR
STARTCHAR 1F13
ENCODING 7955
SWIDTH 540 0
DWIDTH 9 0
BBX 7 13 1 0
BITMAP
F8
8C
C6
00
7C
C4
C0
60
38
C0
C0
C4
7C
ENDCHAR
STARTCHAR 1F14
ENCODING 7956
SWIDTH 540 0
DWIDTH 9 0
BBX 7 13 1 0
BITMAP
E6
6C
58
00
7C
C4
C0
60
38
C0
C0
C4
7C
ENDCHAR
STARTCHAR 1F15
ENCODING 7957
SWIDTH 540 0
DWIDTH 9 0
BBX 7 13 1 0
BITMAP
E6
8C
D8
00
7C
C4
C0
60
38
C0
C0
C4
7C
ENDCHAR
STARTCHAR 1F18
ENCODING 7960
SWIDTH 540 0
DWIDTH 9 0
BBX 6 17 1 0
BITMAP
60
78
18
30
00
FC
C0
C0
C0
C0
FC
C0
C0
C0
C0
C0
FC
ENDCHAR
STARTCHAR 1F19
ENCODING 7961
SWIDTH 540 0
DWIDTH 9 0
BBX 6 17 1 0
BITMAP
08
38
60
30
00
FC
C0
C0
C0
C0
FC
C0
C0
C0
C0
C0
FC
ENDCHAR
STARTCHAR 1F1A
ENCODING 7962
SWIDTH 540 0
DWIDTH 9 0
BBX 7 17 1 0
BITMAP
80
FC
24
42
00
FC
C0
C0
C0
C0
FC
C0
C0
C0
C0
C0
FC
ENDCHAR
STARTCHAR 1F1B
ENCODING 7963
SWIDTH 540 0
DWIDTH 9 0
BBX 7 17 1 0
BITMAP
20
FC
84
42
00
FC
C0
C0
C0
C0
FC
C0
C0
C0
C0
C0
FC
ENDCHAR
STARTCHAR 1F1C
ENCODING 7964
SWIDTH 540 0
DWIDTH 9 0
BBX 7 17 1 0
BITMAP
80
EE
28
58
00
FC
C0
C0
C0
C0
FC
C0
C0
C0
C0
C0
FC
ENDCHAR
STARTCHAR 1F1D
ENCODING 7965
SWIDTH 540 0
DWIDTH 9 0
BBX 7 17 1 0
BITMAP
20
EE
88
58
00
FC
C0
C0
C0
C0
FC
C0
C0
C0
C0
C0
FC
ENDCHAR
STARTCHAR 1F20
ENCODING 7968
SWIDTH 540 0
DWIDTH 9 0
BBX 6 17 1 -3
BITMAP
78
18
10
20
BC
E4
C4
C4
C4
C4
C4
C4
C4
04
04
04
04
ENDCHAR
STARTCHAR 1F21
ENCODING 7969
SWIDTH 540 0
DWIDTH 9 0
BBX 6 17 1 -3
BITMAP
38
60
30
00
BC
E4
C4
C4
C4
C4
C4
C4
C4
04
04
04
04
ENDCHAR
STARTCHAR 1F22
ENCODING 7970
SWIDTH 540 0
DWIDTH 9 0
BBX 7 17 1 -3
BITMAP
F8
6C
46
00
BC
E4
C4
C4
C4
C4
C4
C4
C4
04
04
04
04
ENDCHAR
STARTCHAR 1F23
ENCODING 7971
SWIDTH 540 0
DWIDTH 9 0
BBX 7 17 1 -3
BITMAP
F8
8C
C6
00
BC
E4
C4
C4
C4
C4
C4
C4
C4
04
04
04
04
ENDCHAR
STARTCHAR 1F24
ENCODING 7972
SWIDTH 540 0
DWIDTH 9 0
BBX 7 17 1 -3
BITMAP
E6
6C
58
00
BC
E4
C4
C4
C4
C4
C4
C4
C4
04
04
04
04
ENDCHAR
STARTCHAR 1F25
ENCODING 7973
SWIDTH 540 0
DWIDTH 9 0
BBX 7 17 1 -3
BITMAP
E6
8C
D8
00
BC
E4
C4
C4
C4
C4
C4
C4
C4
04
04
04
04
ENDCHAR
STARTCHAR 1F26
ENCODING 7974
SWIDTH 540 0
DWIDTH 9 0
BBX 6 20 1 -4
BITMAP
44
74
CC
30
18
10
20
BC
E4
C4
C4
C4
C4
C4
C4
C4
04
04
04
04
ENDCHAR
STARTCHAR 1F27
ENCODING 7975
SWIDTH 540 0
DWIDTH 9 0
BBX 6 20 1 -4
BITMAP
44
74
CC
38
20
30
00
BC
E4
C4
C4
C4
C4
C4
C4
C4
04
04
04
04
ENDCHAR
STARTCHAR 1F28
ENCODING 7976
SWIDTH 540 0
DWIDTH 9 0
BBX 6 17 1 0
BITMAP
60
78
18
30
00
84
84
84
84
84
FC
84
84
84
84
84
84
ENDCHAR
STARTCHAR 1F29
ENCODING 7977
SWIDTH 540 0
DWIDTH 9 0
BBX 6 17 1 0
BITMAP
08
38
60
30
00
84
84
84
84
84
FC
84
84
84
84
84
84
ENDCHAR
STARTCHAR 1F2A
ENCODING 7978
SWIDTH 540 0
DWIDTH 9 0
BBX 7 17 1 0
BITMAP
80
FC
24
42
00
84
84
84
84
84
FC
84
84
84
84
84
84
ENDCHAR
STARTCHAR 1F2B
ENCODING 7979
SWIDTH 540 0
DWIDTH 9 0
BBX 7 17 1 0
BITMAP
20
FC
84
42
00
84
84
84
84
84
FC
84
84
84
84
84
84
ENDCHAR
STARTCHAR 1F2C
ENCODING 7980
SWIDTH 540 0
DWIDTH 9 0
BBX 7 17 1 0
BITMAP
80
EE
28
58
00
84
84
84
84
84
FC
84
84
84
84
84
84
ENDCHAR
STARTCHAR 1F2D
ENCODING 7981
SWIDTH 540 0
DWIDTH 9 0
BBX 7 17 1 0
BITMAP
20
EE
88
58
00
84
84
84
84
84
FC
84
84
84
84
84
84
ENDCHAR
STARTCHAR 1F2E
ENCODING 7982
SWIDTH 540 0
DWIDTH 9 0
BBX 6 18 1 0
BITMAP
44
74
CC
38
18
10
A4
84
84
84
84
FC
84
84
84
84
84
84
ENDCHAR
STARTCHAR 1F2F
ENCODING 7983
SWIDTH 540 0
DWIDTH 9 0
BBX 6 18 1 0
BITMAP
44
74
CC
38
20
30
84
84
84
84
84
FC
84
84
84
84
84
84
ENDCHAR
STARTCHAR 1F30
ENCODING 7984
SWIDTH 540 0
DWIDTH 9 0
BBX 5 13 2 0
BITMAP
F0
30
20
40
40
40
40
40
40
40
40
60
78
ENDCHAR
STARTCHAR 1F31
ENCODING 7985
SWIDTH 540 0
DWIDTH 9 0
BBX 5 13 2 0
BITMAP
70
C0
60
00
40
40
40
40
40
40
40
60
78
ENDCHAR
STARTCHAR 1F32
ENCODING 7986
SWIDTH 540 0
DWIDTH 9 0
BBX 7 13 1 0
BITMAP
F8
6C
46
00
20
20
20
20
20
20
20
30
3C
ENDCHAR
STARTCHAR 1F33
ENCODING 7987
SWIDTH 540 0
DWIDTH 9 0
BBX 7 13 1 0
BITMAP
F8
8C
C6
00
20
20
20
20
20
20
20
30
3C
ENDCHAR
STARTCHAR 1F34
ENCODING 7988
SWIDTH 540 0
DWIDTH 9 0
BBX 7 13 1 0
BITMAP
E6
6C
58
00
20
20
20
20
20
20
20
30
3C
ENDCHAR
STARTCHAR 1F35
ENCODING 7989
SWIDTH 540 0
DWIDTH 9 0
BBX 7 13 1 0
BITMAP
E6
8C
D8
00
20
20
20
20
20
20
20
30
3C
ENDCHAR
STARTCHAR 1F36
ENCODING 7990
SWIDTH 540 0
DWIDTH 9 0
BBX 6 16 1 -1
BITMAP
44
74
CC
30
18
10
20
20
20
20
20
20
20
20
30
3C
ENDCHAR
STARTCHAR 1F37
ENCODING 7991
SWIDTH 540 0
DWIDTH 9 0
BBX 6 16 1 -1
BITMAP
44
74
CC
38
20
30
00
20
20
20
20
20
20
20
30
3C
ENDCHAR
STARTCHAR 1F38
ENCODING 7992
SWIDTH 540 0
DWIDTH 9 0
BBX 5 17 2 0
BITMAP
C0
F0
30
60
00
F8
20
20
20
20
20
20
20
20
20
20
F8
ENDCHAR
STARTCHAR 1F39
ENCODING 7993
SWIDTH 540 0
DWIDTH 9 0
BBX 5 17 2 0
BITMAP
10
70
C0
60
00
F8
20
20
20
20
20
20
20
20
20
20
F8
ENDCHAR
STARTCHAR 1F3A
ENCODING 7994
SWIDTH 540 0
DWIDTH 9 0
BBX 7 17 1 0
BITMAP
80
FC
24
42
00
7C
10
10
10
10
10
10
10
10
10
10
7C
ENDCHAR
STARTCHAR 1F3B
ENCODING 7995
SWIDTH 540 0
DWIDTH 9 0
BBX 7 17 1 0
BITMAP
20
FC
84
42
00
7C
10
10
10
10
10
10
10
10
10
10
7C
ENDCHAR
STARTCHAR 1F3C
ENCODING 7996
SWIDTH 540 0
DWIDTH 9 0
BBX 7 17 1 0
BITMAP
80
EE
28
58
00
7C
10
10
10
10
10
10
10
10
10
10
7C
ENDCHAR
STARTCHAR 1F3D
ENCODING 7997
SWIDTH 540 0
DWIDTH 9 0
BBX 7 17 1 0
BITMAP
20
EE
88
58
00
7C
10
10
10
10
10
10
10
10
10
10
7C
ENDCHAR
STARTCHAR 1F3E
ENCODING 7998
SWIDTH 540 0
DWIDTH 9 0
BBX 6 18 1 0
BITMAP
44
74
CC
38
18
10
7C
10
10
10
10
10
10
10
10
10
10
7C
ENDCHAR
STARTCHAR 1F3F
ENCODING 7999
SWIDTH 540 0
DWIDTH 9 0
BBX 6 18 1 0
BITMAP
44
74
CC
38
20
30
7C
10
10
10
10
10
10
10
10
10
10
7C
ENDCHAR
STARTCHAR 1F40
ENCODING 8000
SWIDTH 540 0
DWIDTH 9 0
BBX 7 13 1 0
BITMAP
78
18
10
20
78
CC
84
86
86
86
84
C4
78
ENDCHAR
STARTCHAR 1F41
ENCODING 8001
SWIDTH 540 0
DWIDTH 9 0
BBX 7 13 1 0
BITMAP
38
60
30
00
78
CC
84
86
86
86
84
C4
78
ENDCHAR
STARTCHAR 1F42
ENCODING 8002
SWIDTH 540 0
DWIDTH 9 0
BBX 7 13 1 0
BITMAP
F8
6C
46
00
78
CC
84
86
86
86
84
C4
78
ENDCHAR
STARTCHAR 1F43
ENCODING 8003
SWIDTH 540 0
DWIDTH 9 0
BBX 7 13 1 0
BITMAP
F8
8C
C6
00
78
CC
84
86
86
86
84
C4
78
ENDCHAR
STARTCHAR 1F44
ENCODING 8004
SWIDTH 540 0
DWIDTH 9 0
BBX 7 13 1 0
BITMAP
E6
6C
58
00
78
CC
84
86
86
86
84
C4
78
ENDCHAR
STARTCHAR 1F45
ENCODING 8005
SWIDTH 540 0
DWIDTH 9 0
BBX 7 13 1 0
BITMAP
E6
8C
D8
00
78
CC
84
86
86
86
84
C4
78
ENDCHAR
STARTCHAR 1F48
ENCODING 8008
SWIDTH 540 0
DWIDTH 9 0
BBX 7 17 1 -1
BITMAP
60
78
18
30
30
7C
C4
86
86
86
86
86
86
86
84
CC
78
ENDCHAR
STARTCHAR 1F49
ENCODING 8009
SWIDTH 540 0
DWIDTH 9 0
BBX 7 17 1 -1
BITMAP
08
38
60
30
30
7C
C4
86
86
86
86
86
86
86
84
CC
78
ENDCHAR
STARTCHAR 1F4A
ENCODING 8010
SWIDTH 540 0
DWIDTH 9 0
BBX 7 17 1 -1
BITMAP
80
FC
24
42
30
7C
C4
86
86
86
86
86
86
86
84
CC
78
ENDCHAR
STARTCHAR 1F4B
ENCODING 8011
SWIDTH 540 0
DWIDTH 9 0
BBX 7 17 1 -1
BITMAP
20
FC
84
42
30
7C
C4
86
86
86
86
86
86
86
84
CC
78
ENDCHAR
STARTCHAR 1F4C
ENCODING 8012
SWIDTH 540 0
DWIDTH 9 0
BBX 7 17 1 -1
BITMAP
80
EE
28
58
30
7C
C4
86
86
86
86
86
86
86
84
CC
78
ENDCHAR
STARTCHAR 1F4D
ENCODING 8013
SWIDTH 540 0
DWIDTH 9 0
BBX 7 17 1 -1
BITMAP
20
EE
88
58
30
7C
C4
86
86
86
86
86
86
86
84
CC
78
ENDCHAR
STARTCHAR 1F50
ENCODING 8016
SWIDTH 540 0
DWIDTH 9 0
BBX 6 13 1 0
BITMAP
78
18
10
20
CC
C4
C4
C4
C4
C4
C4
CC
78
ENDCHAR
STARTCHAR 1F51
ENCODING 8017
SWIDTH 540 0
DWIDTH 9 0
BBX 6 13 1 0
BITMAP
38
60
30
00
CC
C4
C4
C4
C4
C4
C4
CC
78
ENDCHAR
STARTCHAR 1F52
ENCODING 8018
SWIDTH 540 0
DWIDTH 9 0
BBX 7 13 1 0
BITMAP
F8
6C
46
00
CC
C4
C4
C4
C4
C4
C4
CC
78
ENDCHAR
STARTCHAR 1F53
ENCODING 8019
SWIDTH 540 0
DWIDTH 9 0
BBX 7 13 1 0
BITMAP
F8
8C
C6
00
CC
C4
C4
C4
C4
C4
C4
CC
78
ENDCHAR
STARTCHAR 1F54
ENCODING 8020
SWIDTH 540 0
DWIDTH 9 0
BBX 7 13 1 0
BITMAP
E6
6C
58
00
CC
C4
C4
C4
C4
C4
C4
CC
78
ENDCHAR
STARTCHAR 1F55
ENCODING 8021
SWIDTH 540 0
DWIDTH 9 0
BBX 7 13 1 0
BITMAP
E6
8C
D8
00
CC
C4
C4
C4
C4
C4
C4
CC
78
ENDCHAR
STARTCHAR 1F56
ENCODING 8022
SWIDTH 540 0
DWIDTH 9 0
BBX 6 16 1 -1
BITMAP
44
74
CC
30
18
10
20
CC
C4
C4
C4
C4
C4
C4
CC
78
ENDCHAR
STARTCHAR 1F57
ENCODING 8023
SWIDTH 540 0
DWIDTH 9 0
BBX 6 16 1 -1
BITMAP
44
74
CC
38
20
30
00
CC
C4
C4
C4
C4
C4
C4
CC
78
ENDCHAR
STARTCHAR 1F59
ENCODING 8025
SWIDTH 540 0
DWIDTH 9 0
BBX 8 17 0 0
BITMAP
04
1C
30
18
00
C3
62
26
24
14
1C
18
08
08
08
08
08
ENDCHAR
STARTCHAR 1F5B
ENCODING 8027
SWIDTH 540 0
DWIDTH 9 0
BBX 8 17 0 0
BITMAP
10
7E
42
21
00
C3
62
26
24
14
1C
18
08
08
08
08
08
ENDCHAR
STARTCHAR 1F5D
ENCODING 8029
SWIDTH 540 0
DWIDTH 9 0
BBX 8 17 0 0
BITMAP
10
77
44
2C
00
C3
62
26
24
14
1C
18
08
08
08
08
08
ENDCHAR
STARTCHAR 1F5F
ENCODING 8031
SWIDTH 540 0
DWIDTH 9 0
BBX 8 18 0 0
BITMAP
22
3A
66
1C
10
18
C3
62
26
24
14
1C
18
08
08
08
08
08
ENDCHAR
STARTCHAR 1F60
ENCODING 8032
SWIDTH 540 0
DWIDTH 9 0
BBX 7 13 1 0
BITMAP
78
18
10
20
C4
96
96
92
92
92
B2
B6
EC
ENDCHAR
STARTCHAR 1F61
ENCODING 8033
SWIDTH 540 0
DWIDTH 9 0
BBX 7 13 1 0
BITMAP
38
60
30
00
C4
96
96
92
92
92
B2
B6
EC
ENDCHAR
STARTCHAR 1F62
ENCODING 8034
SWIDTH 540 0
DWIDTH 9 0
BBX 7 13 1 0
BITMAP
F8
6C
46
00
C4
96
96
92
92
92
B2
B6
EC
ENDCHAR
STARTCHAR 1F63
ENCODING 8035
SWIDTH 540 0
DWIDTH 9 0
BBX 7 13 1 0
BITMAP
F8
8C
C6
00
C4
96
96
92
92
92
B2
B6
EC
ENDCHAR
STARTCHAR 1F64
ENCODING 8036
SWIDTH 540 0
DWIDTH 9 0
BBX 7 13 1 0
BITMAP
E6
6C
58
00
C4
96
96
92
92
92
B2
B6
EC
ENDCHAR
STARTCHAR 1F65
ENCODING 8037
SWIDTH 540 0
DWIDTH 9 0
BBX 7 13 1 0
BITMAP
E6
8C
D8
00
C4
96
96
92
92
92
B2
B6
EC
ENDCHAR
STARTCHAR 1F66
ENCODING 8038
SWIDTH 540 0
DWIDTH 9 0
BBX 7 16 1 -1
BITMAP
44
74
CC
30
18
10
20
C4
96
96
92
92
92
B2
B6
EC
ENDCHAR
STARTCHAR 1F67
ENCODING 8039
SWIDTH 540 0
DWIDTH 9 0
BBX 7 16 1 -1
BITMAP
44
74
CC
38
20
30
00
C4
96
96
92
92
92
B2
B6
EC
ENDCHAR
STARTCHAR 1F68
ENCODING 8040
SWIDTH 540 0
DWIDTH 9 0
BBX 7 17 1 0
BITMAP
60
78
18
30
30
7C
C4
86
86
86
86
86
86
86
C4
48
EE
ENDCHAR
STARTCHAR 1F69
ENCODING 8041
SWIDTH 540 0
DWIDTH 9 0
BBX 7 17 1 0
BITMAP
08
38
60
30
30
7C
C4
86
86
86
86
86
86
86
C4
48
EE
ENDCHAR
STARTCHAR 1F6A
ENCODING 8042
SWIDTH 540 0
DWIDTH 9 0
BBX 7 17 1 0
BITMAP
80
FC
24
42
30
7C
C4
86
86
86
86
86
86
86
C4
48
EE
ENDCHAR
STARTCHAR 1F6B
ENCODING 8043
SWIDTH 540 0
DWIDTH 9 0
BBX 7 17 1 0
BITMAP
20
FC
84
42
30
7C
C4
86
86
86
86
86
86
86
C4
48
EE
ENDCHAR
STARTCHAR 1F6C
ENCODING 8044
SWIDTH 540 0
DWIDTH 9 0
BBX 7 17 1 0
BITMAP
80
EE
28
58
30
7C
C4
86
86
86
86
86
86
86
C4
48
EE
ENDCHAR
STARTCHAR 1F6D
ENCODING 8045
SWIDTH 540 0
DWIDTH 9 0
BBX 7 17 1 0
BITMAP
20
EE
88
58
30
7C
C4
86
86
86
86
86
86
86
C4
48
EE
ENDCHAR
STARTCHAR 1F6E
ENCODING 8046
SWIDTH 540 0
DWIDTH 9 0
BBX 7 18 1 0
BITMAP
44
74
CC
38
18
30
7C
C4
86
86
86
86
86
86
86
C4
48
EE
ENDCHAR
STARTCHAR 1F6F
ENCODING 8047
SWIDTH 540 0
DWIDTH 9 0
BBX 7 18 1 0
BITMAP
44
74
CC
38
20
30
7C
C4
86
86
86
86
86
86
86
C4
48
EE
ENDCHAR
STARTCHAR 1F70
ENCODING 8048
SWIDTH 540 0
DWIDTH 9 0
BBX 7 13 1 -1
BITMAP
60
30
18
00
72
DA
8E
8C
84
84
8E
DE
72
ENDCHAR
STARTCHAR 1F71
ENCODING 8049
SWIDTH 540 0
DWIDTH 9 0
BBX 7 13 1 -1
BITMAP
18
30
20
00
72
DA
8E
8C
84
84
8E
DE
72
ENDCHAR
STARTCHAR 1F72
ENCODING 8050
SWIDTH 540 0
DWIDTH 9 0
BBX 6 13 1 -1
BITMAP
60
30
18
00
7C
C4
C0
60
38
C0
C0
C4
7C
ENDCHAR
STARTCHAR 1F73
ENCODING 8051
SWIDTH 540 0
DWIDTH 9 0
BBX 6 13 1 -1
BITMAP
18
30
20
00
7C
C4
C0
60
38
C0
C0
C4
7C
ENDCHAR
STARTCHAR 1F74
ENCODING 8052
SWIDTH 540 0
DWIDTH 9 0
BBX 6 17 1 -4
BITMAP
60
30
18
00
BC
E4
C4
C4
C4
C4
C4
C4
C4
04
04
04
04
ENDCHAR
STARTCHAR 1F75
ENCODING 8053
SWIDTH 540 0
DWIDTH 9 0
BBX 6 17 1 -4
BITMAP
18
30
20
00
BC
E4
C4
C4
C4
C4
C4
C4
C4
04
04
04
04
ENDCHAR
STARTCHAR 1F76
ENCODING 8054
SWIDTH 540 0
DWIDTH 9 0
BBX 5 13 2 -1
BITMAP
C0
60
30
00
40
40
40
40
40
40
40
60
78
ENDCHAR
STARTCHAR 1F77
ENCODING 8055
SWIDTH 540 0
DWIDTH 9 0
BBX 4 13 3 -1
BITMAP
60
C0
80
00
80
80
80
80
80
80
80
C0
F0
ENDCHAR
STARTCHAR 1F78
ENCODING 8056
SWIDTH 540 0
DWIDTH 9 0
BBX 7 13 1 -1
BITMAP
60
30
18
00
78
CC
84
86
86
86
84
C4
78
ENDCHAR
STARTCHAR 1F79
ENCODING 8057
SWIDTH 540 0
DWIDTH 9 0
BBX 7 13 1 -1
BITMAP
18
30
20
00
78
CC
84
86
86
86
84
C4
78
ENDCHAR
STARTCHAR 1F7A
ENCODING 8058
SWIDTH 540 0
DWIDTH 9 0
BBX 6 13 1 -1
BITMAP
60
30
18
00
CC
C4
C4
C4
C4
C4
C4
CC
78
ENDCHAR
STARTCHAR 1F7B
ENCODING 8059
SWIDTH 540 0
DWIDTH 9 0
BBX 6 13 1 -1
BITMAP
18
30
20
00
CC
C4
C4
C4
C4
C4
C4
CC
78
ENDCHAR
STARTCHAR 1F7C
ENCODING 8060
SWIDTH 540 0
DWIDTH 9 0
BBX 7 13 1 -1
BITMAP
60
30
18
00
C4
96
96
92
92
92
B2
B6
EC
ENDCHAR
STARTCHAR 1F7D
ENCODING 8061
SWIDTH 540 0
DWIDTH 9 0
BBX 7 13 1 -1
BITMAP
18
30
20
00
C4
96
96
92
92
92
B2
B6
EC
ENDCHAR
STARTCHAR 1F80
ENCODING 8064
SWIDTH 540 0
DWIDTH 9 0
BBX 7 17 1 -4
BITMAP
78
18
10
20
72
DA
8E
8C
84
84
8E
DE
72
00
20
20
38
ENDCHAR
STARTCHAR 1F81
ENCODING 8065
SWIDTH 540 0
DWIDTH 9 0
BBX 7 17 1 -4
BITMAP
38
60
30
00
72
DA
8E
8C
84
84
8E
DE
72
00
20
20
38
ENDCHAR
STARTCHAR 1F82
ENCODING 8066
SWIDTH 540 0
DWIDTH 9 0
BBX 7 17 1 -4
BITMAP
F8
6C
46
00
72
DA
8E
8C
84
84
8E
DE
72
00
20
20
38
ENDCHAR
STARTCHAR 1F83
ENCODING 8067
SWIDTH 540 0
DWIDTH 9 0
BBX 7 17 1 -4
BITMAP
F8
8C
C6
00
72
DA
8E
8C
84
84
8E
DE
72
00
20
20
38
ENDCHAR
STARTCHAR 1F84
ENCODING 8068
SWIDTH 540 0
DWIDTH 9 0
BBX 7 17 1 -4
BITMAP
E6
6C
58
00
72
DA
8E
8C
84
84
8E
DE
72
00
20
20
38
ENDCHAR
STARTCHAR 1F85
ENCODING 8069
SWIDTH 540 0
DWIDTH 9 0
BBX 7 17 1 -4
BITMAP
E6
8C
D8
00
72
DA
8E
8C
84
84
8E
DE
72
00
20
20
38
ENDCHAR
STARTCHAR 1F86
ENCODING 8070
SWIDTH 540 0
DWIDTH 9 0
BBX 7 20 1 -5
BITMAP
44
74
CC
30
18
10
20
72
DA
8E
8C
84
84
8E
DE
72
00
20
20
38
ENDCHAR
STARTCHAR 1F87
ENCODING 8071
SWIDTH 540 0
DWIDTH 9 0
BBX 7 20 1 -5
BITMAP
44
74
CC
38
20
30
00
72
DA
8E
8C
84
84
8E
DE
72
00
20
20
38
ENDCHAR
STARTCHAR 1F88
ENCODING 8072
SWIDTH 540 0
DWIDTH 9 0
BBX 8 21 0 -5
BITMAP
30
3C
0C
18
00
18
1C
14
34
24
26
26
7E
62
43
43
C1
00
10
10
1C
ENDCHAR
STARTCHAR 1F89
ENCODING 8073
SWIDTH 540 0
DWIDTH 9 0
BBX 8 21 0 -5
BITMAP
04
1C
30
18
00
18
1C
14
34
24
26
26
7E
62
43
43
C1
00
10
10
1C
ENDCHAR
STARTCHAR 1F8A
ENCODING 8074
SWIDTH 540 0
DWIDTH 9 0
BBX 8 21 0 -5
BITMAP
40
7E
12
21
00
18
1C
14
34
24
26
26
7E
62
43
43
C1
00
10
10
1C
ENDCHAR
STARTCHAR 1F8B
ENCODING 8075
SWIDTH 540 0
DWIDTH 9 0
BBX 8 21 0 -5
BITMAP
10
7E
42
21
00
18
1C
14
34
24
26
26
7E
62
43
43
C1
00
10
10
1C
ENDCHAR
STARTCHAR 1F8C
ENCODING 8076
SWIDTH 540 0
DWIDTH 9 0
BBX 8 21 0 -5
BITMAP
40
77
14
2C
00
18
1C
14
34
24
26
26
7E
62
43
43
C1
00
10
10
1C
ENDCHAR
STARTCHAR 1F8D
ENCODING 8077
SWIDTH 540 0
DWIDTH 9 0
BBX 8 21 0 -5
BITMAP
10
77
44
2C
00
18
1C
14
34
24
26
26
7E
62
43
43
C1
00
10
10
1C
ENDCHAR
STARTCHAR 1F8E
ENCODING 8078
SWIDTH 540 0
DWIDTH 9 0
BBX 8 22 0 -5
BITMAP
22
3A
66
1C
0C
08
18
1C
14
34
24
26
26
7E
62
43
43
C1
00
10
10
1C
ENDCHAR
STARTCHAR 1F8F
ENCODING 8079
SWIDTH 540 0
DWIDTH 9 0
BBX 8 22 0 -5
BITMAP
22
3A
66
1C
10
18
18
1C
14
34
24
26
26
7E
62
43
43
C1
00
10
10
1C
ENDCHAR
STARTCHAR 1F90
ENCODING 8080
SWIDTH 540 0
DWIDTH 9 0
BBX 6 17 1 -4
BITMAP
78
18
10
20
BC
E4
C4
C4
C4
C4
C4
C4
C4
04
C4
C4
F4
ENDCHAR
STARTCHAR 1F91
ENCODING 8081
SWIDTH 540 0
DWIDTH 9 0
BBX 6 17 1 -4
BITMAP
38
60
30
00
BC
E4
C4
C4
C4
C4
C4
C4
C4
04
C4
C4
F4
ENDCHAR
STARTCHAR 1F92
ENCODING 8082
SWIDTH 540 0
DWIDTH 9 0
BBX 7 17 1 -4
BITMAP
F8
6C
46
00
BC
E4
C4
C4
C4
C4
C4
C4
C4
04
C4
C4
F4
ENDCHAR
STARTCHAR 1F93
ENCODING 8083
SWIDTH 540 0
DWIDTH 9 0
BBX 7 17 1 -4
BITMAP
F8
8C
C6
00
BC
E4
C4
C4
C4
C4
C4
C4
C4
04
C4
C4
F4
ENDCHAR
STARTCHAR 1F94
ENCODING 8084
SWIDTH 540 0
DWIDTH 9 0
BBX 7 17 1 -4
BITMAP
E6
6C
58
00
BC
E4
C4
C4
C4
C4
C4
C4
C4
04
C4
C4
F4
ENDCHAR
STARTCHAR 1F95
ENCODING 8085
SWIDTH 540 0
DWIDTH 9 0
BBX 7 17 1 -4
BITMAP
E6
8C
D8
00
BC
E4
C4
C4
C4
C4
C4
C4
C4
04
C4
C4
F4
ENDCHAR
STARTCHAR 1F96
ENCODING 8086
SWIDTH 540 0
DWIDTH 9 0
BBX 6 20 1 -5
BITMAP
44
74
CC
30
18
10
20
BC
E4
C4
C4
C4
C4
C4
C4
C4
04
C4
C4
F4
ENDCHAR
STARTCHAR 1F97
ENCODING 8087
SWIDTH 540 0
DWIDTH 9 0
BBX 6 20 1 -5
BITMAP
44
74
CC
38
20
30
00
BC
E4
C4
C4
C4
C4
C4
C4
C4
04
C4
C4
F4
ENDCHAR
STARTCHAR 1F98
ENCODING 8088
SWIDTH 540 0
DWIDTH 9 0
BBX 6 21 1 -5
BITMAP
60
78
18
30
00
84
84
84
84
84
FC
84
84
84
84
84
84
00
20
20
38
ENDCHAR
STARTCHAR 1F99
ENCODING 8089
SWIDTH 540 0
DWIDTH 9 0
BBX 6 21 1 -5
BITMAP
08
38
60
30
00
84
84
84
84
84
FC
84
84
84
84
84
84
00
20
20
38
ENDCHAR
STARTCHAR 1F9A
ENCODING 8090
SWIDTH 540 0
DWIDTH 9 0
BBX 7 21 1 -5
BITMAP
80
FC
24
42
00
84
84
84
84
84
FC
84
84
84
84
84
84
00
20
20
38
ENDCHAR
STARTCHAR 1F9B
ENCODING 8091
SWIDTH 540 0
DWIDTH 9 0
BBX 7 21 1 -5
BITMAP
20
FC
84
42
00
84
84
84
84
84
FC
84
84
84
84
84
84
00
20
20
38
ENDCHAR
STARTCHAR 1F9C
ENCODING 8092
SWIDTH 540 0
DWIDTH 9 0
BBX 7 21 1 -5
BITMAP
80
EE
28
58
00
84
84
84
84
84
FC
84
84
84
84
84
84
00
20
20
38
ENDCHAR
STARTCHAR 1F9D
ENCODING 8093
SWIDTH 540 0
DWIDTH 9 0
BBX 7 21 1 -5
BITMAP
20
EE
88
58
00
84
84
84
84
84
FC
84
84
84
84
84
84
00
20
20
38
ENDCHAR
STARTCHAR 1F9E
ENCODING 8094
SWIDTH 540 0
DWIDTH 9 0
BBX 6 22 1 -5
BITMAP
44
74
CC
38
18
10
A4
84
84
84
84
FC
84
84
84
84
84
84
00
20
20
38
ENDCHAR
STARTCHAR 1F9F
ENCODING 8095
SWIDTH 540 0
DWIDTH 9 0
BBX 6 22 1 -5
BITMAP
44
74
CC
38
20
30
84
84
84
84
84
FC
84
84
84
84
84
84
00
20
20
38
ENDCHAR
STARTCHAR 1FA0
ENCODING 8096
SWIDTH 540 0
DWIDTH 9 0
BBX 7 17 1 -4
BITMAP
78
18
10
20
C4
96
96
92
92
92
B2
B6
EC
00
20
20
38
ENDCHAR
STARTCHAR 1FA1
ENCODING 8097
SWIDTH 540 0
DWIDTH 9 0
BBX 7 17 1 -4
BITMAP
38
60
30
00
C4
96
96
92
92
92
B2
B6
EC
00
20
20
38
ENDCHAR
STARTCHAR 1FA2
ENCODING 8098
SWIDTH 540 0
DWIDTH 9 0
BBX 7 17 1 -4
BITMAP
F8
6C
46
00
C4
96
96
92
92
92
B2
B6
EC
00
20
20
38
ENDCHAR
STARTCHAR 1FA3
ENCODING 8099
SWIDTH 540 0
DWIDTH 9 0
BBX 7 17 1 -4
BITMAP
F8
8C
C6
00
C4
96
96
92
92
92
B2
B6
EC
00
20
20
38
ENDCHAR
STARTCHAR 1FA4
ENCODING 8100
SWIDTH 540 0
DWIDTH 9 0
BBX 7 17 1 -4
BITMAP
E6
6C
58
00
C4
96
96
92
92
92
B2
B6
EC
00
20
20
38
ENDCHAR
STARTCHAR 1FA5
ENCODING 8101
SWIDTH 540 0
DWIDTH 9 0
BBX 7 17 1 -4
BITMAP
E6
8C
D8
00
C4
96
96
92
92
92
B2
B6
EC
00
20
20
38
ENDCHAR
STARTCHAR 1FA6
ENCODING 8102
SWIDTH 540 0
DWIDTH 9 0
BBX 7 20 1 -5
BITMAP
44
74
CC
30
18
10
20
C4
96
96
92
92
92
B2
B6
EC
00
20
20
38
ENDCHAR
STARTCHAR 1FA7
ENCODING 8103
SWIDTH 540 0
DWIDTH 9 0
BBX 7 20 1 -5
BITMAP
44
74
CC
38
20
30
00
C4
96
96
92
92
92
B2
B6
EC
00
20
20
38
ENDCHAR
STARTCHAR 1FA8
ENCODING 8104
SWIDTH 540 0
DWIDTH 9 0
BBX 7 21 1 -5
BITMAP
60
78
18
30
30
7C
C4
86
86
86
86
86
86
86
C4
48
EE
00
20
20
38
ENDCHAR
STARTCHAR 1FA9
ENCODING 8105
SWIDTH 540 0
DWIDTH 9 0
BBX 7 21 1 -5
BITMAP
08
38
60
30
30
7C
C4
86
86
86
86
86
86
86
C4
48
EE
00
20
20
38
ENDCHAR
STARTCHAR 1FAA
ENCODING 8106
SWIDTH 540 0
DWIDTH 9 0
BBX 7 21 1 -5
BITMAP
80
FC
24
42
30
7C
C4
86
86
86
86
86
86
86
C4
48
EE
00
20
20
38
ENDCHAR
STARTCHAR 1FAB
ENCODING 8107
SWIDTH 540 0
DWIDTH 9 0
BBX 7 21 1 -5
BITMAP
20
FC
84
42
30
7C
C4
86
86
86
86
86
86
86
C4
48
EE
00
20
20
38
ENDCHAR
STARTCHAR 1FAC
ENCODING 8108
SWIDTH 540 0
DWIDTH 9 0
BBX 7 21 1 -5
BITMAP
80
EE
28
58
30
7C
C4
86
86
86
86
86
86
86
C4
48
EE
00
20
20
38
ENDCHAR
STARTCHAR 1FAD
ENCODING 8109
SWIDTH 540 0
DWIDTH 9 0
BBX 7 21 1 -5
BITMAP
20
EE
88
58
30
7C
C4
86
86
86
86
86
86
86
C4
48
EE
00
20
20
38
ENDCHAR
STARTCHAR 1FAE
ENCODING 8110
SWIDTH 540 0
DWIDTH 9 0
BBX 7 22 1 -5
BITMAP
44
74
CC
38
18
30
7C
C4
86
86
86
86
86
86
86
C4
48
EE
00
20
20
38
ENDCHAR
STARTCHAR 1FAF
ENCODING 8111
SWIDTH 540 0
DWIDTH 9 0
BBX 7 22 1 -5
BITMAP
44
74
CC
38
20
30
7C
C4
86
86
86
86
86
86
86
C4
48
EE
00
20
20
38
ENDCHAR
STARTCHAR 1FB0
ENCODING 8112
SWIDTH 540 0
DWIDTH 9 0
BBX 7 13 1 -1
BITMAP
C4
4C
78
00
72
DA
8E
8C
84
84
8E
DE
72
ENDCHAR
STARTCHAR 1FB1
ENCODING 8113
SWIDTH 540 0
DWIDTH 9 0
BBX 7 12 1 -1
BITMAP
7C
00
00
72
DA
8E
8C
84
84
8E
DE
72
ENDCHAR
STARTCHAR 1FB2
ENCODING 8114
SWIDTH 540 0
DWIDTH 9 0
BBX 7 17 1 -5
BITMAP
60
30
18
00
72
DA
8E
8C
84
84
8E
DE
72
00
20
20
38
ENDCHAR
STARTCHAR 1FB3
ENCODING 8115
SWIDTH 540 0
DWIDTH 9 0
BBX 7 13 1 -5
BITMAP
72
DA
8E
8C
84
84
8E
DE
72
00
20
20
38
ENDCHAR
STARTCHAR 1FB4
ENCODING 8116
SWIDTH 540 0
DWIDTH 9 0
BBX 7 17 1 -5
BITMAP
18
30
20
00
72
DA
8E
8C
84
84
8E
DE
72
00
20
20
38
ENDCHAR
STARTCHAR 1FB6
ENCODING 8118
SWIDTH 540 0
DWIDTH 9 0
BBX 7 13 1 -1
BITMAP
40
74
DC
00
72
DA
8E
8C
84
84
8E
DE
72
ENDCHAR
STARTCHAR 1FB7
ENCODING 8119
SWIDTH 540 0
DWIDTH 9 0
BBX 7 17 1 -5
BITMAP
40
74
DC
00
72
DA
8E
8C
84
84
8E
DE
72
00
20
20
38
ENDCHAR
STARTCHAR 1FB8
ENCODING 8120
SWIDTH 540 0
DWIDTH 9 0
BBX 8 16 0 1
BITMAP
62
3E
18
00
18
1C
14
34
24
26
26
7E
62
43
43
C1
ENDCHAR
STARTCHAR 1FB9
ENCODING 8121
SWIDTH 540 0
DWIDTH 9 0
BBX 8 15 0 1
BITMAP
3E
00
00
18
1C
14
34
24
26
26
7E
62
43
43
C1
ENDCHAR
STARTCHAR 1FBA
ENCODING 8122
SWIDTH 540 0
DWIDTH 9 0
BBX 8 16 0 1
BITMAP
38
08
04
00
18
1C
14
34
24
26
26
7E
62
43
43
C1
ENDCHAR
STARTCHAR 1FBB
ENCODING 8123
SWIDTH 540 0
DWIDTH 9 0
BBX 8 16 0 1
BITMAP
0C
18
10
00
18
1C
14
34
24
26
26
7E
62
43
43
C1
ENDCHAR
STARTCHAR 1FBC
ENCODING 8124
SWIDTH 540 0
DWIDTH 9 0
BBX 8 16 0 -4
BITMAP
18
1C
14
34
24
26
26
7E
62
43
43
C1
00
10
10
1C
ENDCHAR
STARTCHAR 1FBD
ENCODING 8125
SWIDTH 540 0
DWIDTH 9 0
BBX 4 3 2 11
BITMAP
F0
30
20
ENDCHAR
STARTCHAR 1FBE
ENCODING 8126
SWIDTH 540 0
DWIDTH 9 0
BBX 3 3 3 -5
BITMAP
80
80
E0
ENDCHAR
STARTCHAR 1FBF
ENCODING 8127
SWIDTH 540 0
DWIDTH 9 0
BBX 4 3 2 11
BITMAP
F0
30
20
ENDCHAR
STARTCHAR 1FC0
ENCODING 8128
SWIDTH 540 0
DWIDTH 9 0
BBX 6 3 1 9
BITMAP
40
74
DC
ENDCHAR
STARTCHAR 1FC1
ENCODING 8129
SWIDTH 540 0
DWIDTH 9 0
BBX 6 6 1 11
BITMAP
64
DC
00
68
68
68
ENDCHAR
STARTCHAR 1FC2
ENCODING 8130
SWIDTH 540 0
DWIDTH 9 0
BBX 6 17 1 -5
BITMAP
60
30
18
00
BC
E4
C4
C4
C4
C4
C4
C4
C4
04
C4
C4
F4
ENDCHAR
STARTCHAR 1FC3
ENCODING 8131
SWIDTH 540 0
DWIDTH 9 0
BBX 6 13 1 -5
BITMAP
BC
E4
C4
C4
C4
C4
C4
C4
C4
04
C4
C4
F4
ENDCHAR
STARTCHAR 1FC4
ENCODING 8132
SWIDTH 540 0
DWIDTH 9 0
BBX 6 17 1 -5
BITMAP
18
30
20
00
BC
E4
C4
C4
C4
C4
C4
C4
C4
04
C4
C4
F4
ENDCHAR
STARTCHAR 1FC6
ENCODING 8134
SWIDTH 540 0
DWIDTH 9 0
BBX 6 17 1 -4
BITMAP
40
74
DC
00
BC
E4
C4
C4
C4
C4
C4
C4
C4
04
04
04
04
ENDCHAR
STARTCHAR 1FC7
ENCODING 8135
SWIDTH 540 0
DWIDTH 9 0
BBX 6 17 1 -5
BITMAP
40
74
DC
00
BC
E4
C4
C4
C4
C4
C4
C4
C4
04
C4
C4
F4
ENDCHAR
STARTCHAR 1FC8
ENCODING 8136
SWIDTH 540 0
DWIDTH 9 0
BBX 6 16 1 1
BITMAP
70
10
08
00
FC
C0
C0
C0
C0
FC
C0
C0
C0
C0
C0
FC
ENDCHAR
STARTCHAR 1FC9
ENCODING 8137
SWIDTH 540 0
DWIDTH 9 0
BBX 6 16 1 1
BITMAP
18
30
20
00
FC
C0
C0
C0
C0
FC
C0
C0
C0
C0
C0
FC
ENDCHAR
STARTCHAR 1FCA
ENCODING 8138
SWIDTH 540 0
DWIDTH 9 0
BBX 6 16 1 1
BITMAP
70
10
08
00
84
84
84
84
84
FC
84
84
84
84
84
84
ENDCHAR
STARTCHAR 1FCB
ENCODING 8139
SWIDTH 540 0
DWIDTH 9 0
BBX 6 16 1 1
BITMAP
18
30
20
00
84
84
84
84
84
FC
84
84
84
84
84
84
ENDCHAR
STARTCHAR 1FCC
ENCODING 8140
SWIDTH 540 0
DWIDTH 9 0
BBX 6 16 1 -4
BITMAP
84
84
84
84
84
FC
84
84
84
84
84
84
00
20
20
38
ENDCHAR
STARTCHAR 1FCD
ENCODING 8141
SWIDTH 540 0
DWIDTH 9 0
BBX 7 3 1 11
BITMAP
F8
6C
46
ENDCHAR
STARTCHAR 1FCE
ENCODING 8142
SWIDTH 540 0
DWIDTH 9 0
BBX 7 3 1 11
BITMAP
E6
6C
58
ENDCHAR
STARTCHAR 1FCF
ENCODING 8143
SWIDTH 540 0
DWIDTH 9 0
BBX 6 6 1 10
BITMAP
44
74
CC
30
18
10
ENDCHAR
STARTCHAR 1FD0
ENCODING 8144
SWIDTH 540 0
DWIDTH 9 0
BBX 6 13 1 -1
BITMAP
C4
4C
78
00
20
20
20
20
20
20
20
30
3C
ENDCHAR
STARTCHAR 1FD1
ENCODING 8145
SWIDTH 540 0
DWIDTH 9 0
BBX 5 12 2 -1
BITMAP
F8
00
00
40
40
40
40
40
40
40
60
78
ENDCHAR
STARTCHAR 1FD2
ENCODING 8146
SWIDTH 540 0
DWIDTH 9 0
BBX 5 16 2 0
BITMAP
E0
20
10
D0
D0
D0
00
40
40
40
40
40
40
40
60
78
ENDCHAR
STARTCHAR 1FD3
ENCODING 8147
SWIDTH 540 0
DWIDTH 9 0
BBX 5 16 2 0
BITMAP
30
60
40
D0
D0
D0
00
40
40
40
40
40
40
40
60
78
ENDCHAR
STARTCHAR 1FD6
ENCODING 8150
SWIDTH 540 0
DWIDTH 9 0
BBX 6 13 1 -1
BITMAP
40
74
DC
00
20
20
20
20
20
20
20
30
3C
ENDCHAR
STARTCHAR 1FD7
ENCODING 8151
SWIDTH 540 0
DWIDTH 9 0
BBX 6 16 1 0
BITMAP
64
DC
00
68
68
68
00
20
20
20
20
20
20
20
30
3C
ENDCHAR
STARTCHAR 1FD8
ENCODING 8152
SWIDTH 540 0
DWIDTH 9 0
BBX 6 16 1 1
BITMAP
C4
7C
30
00
7C
10
10
10
10
10
10
10
10
10
10
7C
ENDCHAR
STARTCHAR 1FD9
ENCODING 8153
SWIDTH 540 0
DWIDTH 9 0
BBX 5 15 2 1
BITMAP
F8
00
00
F8
20
20
20
20
20
20
20
20
20
20
F8
ENDCHAR
STARTCHAR 1FDA
ENCODING 8154
SWIDTH 540 0
DWIDTH 9 0
BBX 5 16 2 1
BITMAP
E0
20
10
00
F8
20
20
20
20
20
20
20
20
20
20
F8
ENDCHAR
STARTCHAR 1FDB
ENCODING 8155
SWIDTH 540 0
DWIDTH 9 0
BBX 5 16 2 1
BITMAP
30
60
40
00
F8
20
20
20
20
20
20
20
20
20
20
F8
ENDCHAR
STARTCHAR 1FDD
ENCODING 8157
SWIDTH 540 0
DWIDTH 9 0
BBX 7 3 1 11
BITMAP
F8
8C
C6
ENDCHAR
STARTCHAR 1FDE
ENCODING 8158
SWIDTH 540 0
DWIDTH 9 0
BBX 7 3 1 11
BITMAP
E6
8C
D8
ENDCHAR
STARTCHAR 1FDF
ENCODING 8159
SWIDTH 540 0
DWIDTH 9 0
BBX 6 6 1 10
BITMAP
44
74
CC
38
20
30
ENDCHAR
STARTCHAR 1FE0
ENCODING 8160
SWIDTH 540 0
DWIDTH 9 0
BBX 6 13 1 -1
BITMAP
C4
4C
78
00
CC
C4
C4
C4
C4
C4
C4
CC
78
ENDCHAR
STARTCHAR 1FE1
ENCODING 8161
SWIDTH 540 0
DWIDTH 9 0
BBX 6 12 1 -1
BITMAP
7C
00
00
CC
C4
C4
C4
C4
C4
C4
CC
78
ENDCHAR
STARTCHAR 1FE2
ENCODING 8162
SWIDTH 540 0
DWIDTH 9 0
BBX 6 16 1 0
BITMAP
70
10
08
68
68
68
00
CC
C4
C4
C4
C4
C4
C4
CC
78
ENDCHAR
STARTCHAR 1FE3
ENCODING 8163
SWIDTH 540 0
DWIDTH 9 0
BBX 6 16 1 0
BITMAP
18
30
20
68
68
68
00
CC
C4
C4
C4
C4
C4
C4
CC
78
ENDCHAR
STARTCHAR 1FE4
ENCODING 8164
SWIDTH 540 0
DWIDTH 9 0
BBX 7 17 1 -3
BITMAP
78
18
10
20
38
6C
C4
86
86
86
C4
CC
B8
80
80
80
80
ENDCHAR
STARTCHAR 1FE5
ENCODING 8165
SWIDTH 540 0
DWIDTH 9 0
BBX 7 17 1 -3
BITMAP
38
60
30
00
38
6C
C4
86
86
86
C4
CC
B8
80
80
80
80
ENDCHAR
STARTCHAR 1FE6
ENCODING 8166
SWIDTH 540 0
DWIDTH 9 0
BBX 6 13 1 -1
BITMAP
40
74
DC
00
CC
C4
C4
C4
C4
C4
C4
CC
78
ENDCHAR
STARTCHAR 1FE7
ENCODING 8167
SWIDTH 540 0
DWIDTH 9 0
BBX 6 16 1 0
BITMAP
64
DC
00
68
68
68
00
CC
C4
C4
C4
C4
C4
C4
CC
78
ENDCHAR
STARTCHAR 1FE8
ENCODING 8168
SWIDTH 540 0
DWIDTH 9 0
BBX 8 16 0 1
BITMAP
62
3E
18
00
C3
62
26
24
14
1C
18
08
08
08
08
08
ENDCHAR
STARTCHAR 1FE9
ENCODING 8169
SWIDTH 540 0
DWIDTH 9 0
BBX 8 15 0 1
BITMAP
3E
00
00
C3
62
26
24
14
1C
18
08
08
08
08
08
ENDCHAR
STARTCHAR 1FEA
ENCODING 8170
SWIDTH 540 0
DWIDTH 9 0
BBX 8 16 0 1
BITMAP
38
08
04
00
C3
62
26
24
14
1C
18
08
08
08
08
08
ENDCHAR
STARTCHAR 1FEB
ENCODING 8171
SWIDTH 540 0
DWIDTH 9 0
BBX 8 16 0 1
BITMAP
0C
18
10
00
C3
62
26
24
14
1C
18
08
08
08
08
08
ENDCHAR
STARTCHAR 1FEC
ENCODING 8172
SWIDTH 540 0
DWIDTH 9 0
BBX 7 17 1 0
BITMAP
08
38
60
30
70
FC
C6
C6
C6
C6
CC
F8
C0
C0
C0
C0
C0
ENDCHAR
STARTCHAR 1FED
ENCODING 8173
SWIDTH 540 0
DWIDTH 9 0
BBX 4 6 2 11
BITMAP
E0
20
10
D0
D0
D0
ENDCHAR
STARTCHAR 1FEE
ENCODING 8174
SWIDTH 540 0
DWIDTH 9 0
BBX 4 6 2 11
BITMAP
30
60
40
D0
D0
D0
ENDCHAR
STARTCHAR 1FEF
ENCODING 8175
SWIDTH 540 0
DWIDTH 9 0
BBX 4 3 2 10
BITMAP
C0
60
30
ENDCHAR
STARTCHAR 1FF2
ENCODING 8178
SWIDTH 540 0
DWIDTH 9 0
BBX 7 17 1 -5
BITMAP
60
30
18
00
C4
96
96
92
92
92
B2
B6
EC
00
20
20
38
ENDCHAR
STARTCHAR 1FF3
ENCODING 8179
SWIDTH 540 0
DWIDTH 9 0
BBX 7 13 1 -5
BITMAP
C4
96
96
92
92
92
B2
B6
EC
00
20
20
38
ENDCHAR
STARTCHAR 1FF4
ENCODING 8180
SWIDTH 540 0
DWIDTH 9 0
BBX 7 17 1 -5
BITMAP
18
30
20
00
C4
96
96
92
92
92
B2
B6
EC
00
20
20
38
ENDCHAR
STARTCHAR 1FF6
ENCODING 8182
SWIDTH 540 0
DWIDTH 9 0
BBX 7 13 1 -1
BITMAP
40
74
DC
00
C4
96
96
92
92
92
B2
B6
EC
ENDCHAR
STARTCHAR 1FF7
ENCODING 8183
SWIDTH 540 0
DWIDTH 9 0
BBX 7 17 1 -5
BITMAP
40
74
DC
00
C4
96
96
92
92
92
B2
B6
EC
00
20
20
38
ENDCHAR
STARTCHAR 1FF8
ENCODING 8184
SWIDTH 540 0
DWIDTH 9 0
BBX 7 16 1 0
BITMAP
70
10
08
30
7C
C4
86
86
86
86
86
86
86
84
CC
78
ENDCHAR
STARTCHAR 1FF9
ENCODING 8185
SWIDTH 540 0
DWIDTH 9 0
BBX 7 16 1 0
BITMAP
18
30
20
30
7C
C4
86
86
86
86
86
86
86
84
CC
78
ENDCHAR
STARTCHAR 1FFA
ENCODING 8186
SWIDTH 540 0
DWIDTH 9 0
BBX 7 16 1 1
BITMAP
70
10
08
30
7C
C4
86
86
86
86
86
86
86
C4
48
EE
ENDCHAR
STARTCHAR 1FFB
ENCODING 8187
SWIDTH 540 0
DWIDTH 9 0
BBX 7 16 1 1
BITMAP
18
30
20
30
7C
C4
86
86
86
86
86
86
86
C4
48
EE
ENDCHAR
STARTCHAR 1FFC
ENCODING 8188
SWIDTH 540 0
DWIDTH 9 0
BBX 7 17 1 -5
BITMAP
30
7C
C4
86
86
86
86
86
86
86
C4
48
EE
00
20
20
38
ENDCHAR
STARTCHAR 1FFD
ENCODING 8189
SWIDTH 540 0
DWIDTH 9 0
BBX 3 3 3 10
BITMAP
60
C0
80
ENDCHAR
STARTCHAR 1FFE
ENCODING 8190
SWIDTH 540 0
DWIDTH 9 0
BBX 4 3 2 11
BITMAP
70
C0
60
ENDCHAR
STARTCHAR 2010
ENCODING 8208
SWIDTH 1020 0
DWIDTH 17 0
BBX 5 1 6 5
BITMAP
F8
ENDCHAR
STARTCHAR 2013
ENCODING 8211
SWIDTH 540 0
DWIDTH 9 0
BBX 6 1 1 5
BITMAP
FC
ENDCHAR
STARTCHAR 2014
ENCODING 8212
SWIDTH 540 0
DWIDTH 9 0
BBX 9 1 0 5
BITMAP
FF80
ENDCHAR
STARTCHAR 2015
ENCODING 8213
SWIDTH 1020 0
DWIDTH 17 0
BBX 17 1 0 5
BITMAP
FFFF80
ENDCHAR
STARTCHAR 2016
ENCODING 8214
SWIDTH 540 0
DWIDTH 9 0
BBX 4 18 2 -4
BITMAP
90
90
90
90
90
90
90
90
90
90
90
90
90
90
90
90
90
90
ENDCHAR
STARTCHAR 2018
ENCODING 8216
SWIDTH 540 0
DWIDTH 9 0
BBX 3 5 3 9
BITMAP
60
40
C0
C0
C0
ENDCHAR
STARTCHAR 2019
ENCODING 8217
SWIDTH 540 0
DWIDTH 9 0
BBX 3 5 3 9
BITMAP
60
C0
C0
80
80
ENDCHAR
STARTCHAR 201A
ENCODING 8218
SWIDTH 540 0
DWIDTH 9 0
BBX 3 5 3 -3
BITMAP
60
40
C0
C0
80
ENDCHAR
STARTCHAR 201B
ENCODING 8219
SWIDTH 540 0
DWIDTH 9 0
BBX 3 5 3 9
BITMAP
C0
C0
40
60
20
ENDCHAR
STARTCHAR 201C
ENCODING 8220
SWIDTH 540 0
DWIDTH 9 0
BBX 6 5 1 9
BITMAP
2C
28
68
58
D8
ENDCHAR
STARTCHAR 201D
ENCODING 8221
SWIDTH 540 0
DWIDTH 9 0
BBX 5 5 2 9
BITMAP
D8
D0
90
A0
A0
ENDCHAR
STARTCHAR 201E
ENCODING 8222
SWIDTH 540 0
DWIDTH 9 0
BBX 5 5 2 -3
BITMAP
58
D8
D0
B0
A0
ENDCHAR
STARTCHAR 201F
ENCODING 8223
SWIDTH 540 0
DWIDTH 9 0
BBX 5 5 2 9
BITMAP
F0
D0
58
48
48
ENDCHAR
STARTCHAR 2020
ENCODING 8224
SWIDTH 540 0
DWIDTH 9 0
BBX 6 14 1 -2
BITMAP
10
10
10
FC
10
10
10
10
10
10
10
10
10
10
ENDCHAR
STARTCHAR 2021
ENCODING 8225
SWIDTH 540 0
DWIDTH 9 0
BBX 6 14 1 -2
BITMAP
10
10
10
FC
10
10
10
10
FC
10
10
10
10
10
ENDCHAR
STARTCHAR 2022
ENCODING 8226
SWIDTH 540 0
DWIDTH 9 0
BBX 3 3 3 4
BITMAP
E0
E0
40
ENDCHAR
STARTCHAR 2025
ENCODING 8229
SWIDTH 1020 0
DWIDTH 17 0
BBX 11 2 3 5
BITMAP
C060
C060
ENDCHAR
STARTCHAR 2026
ENCODING 8230
SWIDTH 1020 0
DWIDTH 17 0
BBX 13 2 2 5
BITMAP
C218
C218
ENDCHAR
STARTCHAR 2030
ENCODING 8240
SWIDTH 540 0
DWIDTH 9 0
BBX 8 13 0 -1
BITMAP
20
70
D8
D8
D1
77
1C
60
BF
49
49
49
3F
ENDCHAR
STARTCHAR 2032
ENCODING 8242
SWIDTH 540 0
DWIDTH 9 0
BBX 3 3 3 10
BITMAP
60
C0
80
ENDCHAR
STARTCHAR 2033
ENCODING 8243
SWIDTH 540 0
DWIDTH 9 0
BBX 6 4 1 10
BITMAP
6C
48
48
90
ENDCHAR
STARTCHAR 2035
ENCODING 8245
SWIDTH 540 0
DWIDTH 9 0
BBX 3 4 3 10
BITMAP
C0
40
40
20
ENDCHAR
STARTCHAR 2036
ENCODING 8246
SWIDTH 540 0
DWIDTH 9 0
BBX 6 3 1 10
BITMAP
D8
6C
24
ENDCHAR
STARTCHAR 2039
ENCODING 8249
SWIDTH 540 0
DWIDTH 9 0
BBX 4 8 2 1
BITMAP
30
20
60
C0
C0
60
20
30
ENDCHAR
STARTCHAR 203A
ENCODING 8250
SWIDTH 540 0
DWIDTH 9 0
BBX 5 8 2 1
BITMAP
C0
60
30
10
18
30
60
40
ENDCHAR
STARTCHAR 203B
ENCODING 8251
SWIDTH 1020 0
DWIDTH 17 0
BBX 13 13 2 -1
BITMAP
8210
4718
2620
1040
0880
0500
E238
C518
0880
1040
2020
4710
8708
ENDCHAR
STARTCHAR 203C
ENCODING 8252
SWIDTH 1020 0
DWIDTH 17 0
BBX 7 12 5 1
BITMAP
82
82
82
82
82
82
82
82
82
00
82
82
ENDCHAR
STARTCHAR 203E
ENCODING 8254
SWIDTH 540 0
DWIDTH 9 0
BBX 9 1 0 15
BITMAP
FF80
ENDCHAR
STARTCHAR 203F
ENCODING 8255
SWIDTH 540 0
DWIDTH 9 0
BBX 8 3 0 -3
BITMAP
81
63
3C
ENDCHAR
STARTCHAR 2040
ENCODING 8256
SWIDTH 540 0
DWIDTH 9 0
BBX 7 2 1 13
BITMAP
FC
82
ENDCHAR
STARTCHAR 2042
ENCODING 8258
SWIDTH 540 0
DWIDTH 9 0
BBX 8 11 0 1
BITMAP
08
2C
18
3C
08
00
22
BF
62
FF
22
ENDCHAR
STARTCHAR 2047
ENCODING 8263
SWIDTH 1020 0
DWIDTH 17 0
BBX 15 13 1 0
BITMAP
1870
FFFC
0106
0106
0106
020C
0C18
1820
1060
0000
0000
1060
1060
ENDCHAR
STARTCHAR 2048
ENCODING 8264
SWIDTH 1020 0
DWIDTH 17 0
BBX 11 13 2 0
BITMAP
3800
FE20
0320
0320
0320
0620
0820
1020
3020
0020
0000
3020
3020
ENDCHAR
STARTCHAR 2049
ENCODING 8265
SWIDTH 1020 0
DWIDTH 17 0
BBX 11 13 4 0
BITMAP
0300
9FC0
8020
8020
8060
80C0
8180
8300
8200
8000
0000
8600
8600
ENDCHAR
STARTCHAR 204A
ENCODING 8266
SWIDTH 540 0
DWIDTH 9 0
BBX 6 13 1 -4
BITMAP
FC
0C
0C
0C
08
08
08
08
08
08
18
18
18
ENDCHAR
STARTCHAR 2051
ENCODING 8273
SWIDTH 1020 0
DWIDTH 17 0
BBX 5 13 6 0
BITMAP
20
A8
70
F8
20
20
00
20
20
F8
20
F8
20
ENDCHAR
STARTCHAR 2053
ENCODING 8275
SWIDTH 540 0
DWIDTH 9 0
BBX 8 2 0 5
BITMAP
79
8F
ENDCHAR
STARTCHAR 2070
ENCODING 8304
SWIDTH 540 0
DWIDTH 9 0
BBX 4 8 2 4
BITMAP
60
50
90
B0
D0
D0
90
70
ENDCHAR
STARTCHAR 2071
ENCODING 8305
SWIDTH 540 0
DWIDTH 9 0
BBX 3 8 3 4
BITMAP
40
40
00
C0
40
40
40
E0
ENDCHAR
STARTCHAR 2074
ENCODING 8308
SWIDTH 540 0
DWIDTH 9 0
BBX 4 7 2 5
BITMAP
30
50
50
90
F0
10
10
ENDCHAR
STARTCHAR 2075
ENCODING 8309
SWIDTH 540 0
DWIDTH 9 0
BBX 4 7 2 5
BITMAP
70
40
60
90
10
10
70
ENDCHAR
STARTCHAR 2076
ENCODING 8310
SWIDTH 540 0
DWIDTH 9 0
BBX 4 8 2 4
BITMAP
20
50
80
F0
90
90
90
70
ENDCHAR
STARTCHAR 2077
ENCODING 8311
SWIDTH 540 0
DWIDTH 9 0
BBX 4 7 2 5
BITMAP
F0
10
20
20
20
40
40
ENDCHAR
STARTCHAR 2078
ENCODING 8312
SWIDTH 540 0
DWIDTH 9 0
BBX 4 8 2 4
BITMAP
60
D0
90
50
70
90
90
70
ENDCHAR
STARTCHAR 2079
ENCODING 8313
SWIDTH 540 0
DWIDTH 9 0
BBX 4 8 2 4
BITMAP
40
F0
90
90
D0
70
10
60
ENDCHAR
STARTCHAR 207A
ENCODING 8314
SWIDTH 540 0
DWIDTH 9 0
BBX 4 6 2 5
BITMAP
20
20
20
F0
20
20
ENDCHAR
STARTCHAR 207B
ENCODING 8315
SWIDTH 540 0
DWIDTH 9 0
BBX 4 1 2 8
BITMAP
F0
ENDCHAR
STARTCHAR 207C
ENCODING 8316
SWIDTH 540 0
DWIDTH 9 0
BBX 4 4 2 6
BITMAP
F0
00
00
F0
ENDCHAR
STARTCHAR 207D
ENCODING 8317
SWIDTH 540 0
DWIDTH 9 0
BBX 3 10 3 3
BITMAP
60
40
80
80
80
80
80
80
40
20
ENDCHAR
STARTCHAR 207E
ENCODING 8318
SWIDTH 540 0
DWIDTH 9 0
BBX 3 10 3 3
BITMAP
80
40
40
20
20
20
40
40
40
80
ENDCHAR
STARTCHAR 207F
ENCODING 8319
SWIDTH 540 0
DWIDTH 9 0
BBX 4 5 2 5
BITMAP
F0
90
90
90
90
ENDCHAR
STARTCHAR 2080
ENCODING 8320
SWIDTH 540 0
DWIDTH 9 0
BBX 4 8 2 -1
BITMAP
20
50
90
B0
D0
D0
90
70
ENDCHAR
STARTCHAR 2081
ENCODING 8321
SWIDTH 540 0
DWIDTH 9 0
BBX 3 7 2 1
BITMAP
60
A0
20
20
20
20
20
ENDCHAR
STARTCHAR 2082
ENCODING 8322
SWIDTH 540 0
DWIDTH 9 0
BBX 4 8 2 0
BITMAP
20
D0
10
10
20
20
40
F0
ENDCHAR
STARTCHAR 2083
ENCODING 8323
SWIDTH 540 0
DWIDTH 9 0
BBX 4 7 2 0
BITMAP
F0
20
40
30
10
10
70
ENDCHAR
STARTCHAR 2084
ENCODING 8324
SWIDTH 540 0
DWIDTH 9 0
BBX 4 7 2 1
BITMAP
30
50
50
90
F0
10
10
ENDCHAR
STARTCHAR 2085
ENCODING 8325
SWIDTH 540 0
DWIDTH 9 0
BBX 4 7 2 0
BITMAP
70
40
60
90
10
10
70
ENDCHAR
STARTCHAR 2086
ENCODING 8326
SWIDTH 540 0
DWIDTH 9 0
BBX 4 8 2 -1
BITMAP
20
50
80
F0
90
90
90
70
ENDCHAR
STARTCHAR 2087
ENCODING 8327
SWIDTH 540 0
DWIDTH 9 0
BBX 4 7 2 1
BITMAP
F0
10
20
20
20
40
40
ENDCHAR
STARTCHAR 2088
ENCODING 8328
SWIDTH 540 0
DWIDTH 9 0
BBX 4 8 2 -1
BITMAP
20
D0
90
50
70
90
90
70
ENDCHAR
STARTCHAR 2089
ENCODING 8329
SWIDTH 540 0
DWIDTH 9 0
BBX 4 8 2 -1
BITMAP
20
D0
90
90
D0
70
10
60
ENDCHAR
STARTCHAR 208A
ENCODING 8330
SWIDTH 540 0
DWIDTH 9 0
BBX 4 5 2 0
BITMAP
20
20
F0
20
20
ENDCHAR
STARTCHAR 208B
ENCODING 8331
SWIDTH 540 0
DWIDTH 9 0
BBX 4 1 2 2
BITMAP
F0
ENDCHAR
STARTCHAR 208C
ENCODING 8332
SWIDTH 540 0
DWIDTH 9 0
BBX 4 4 2 1
BITMAP
F0
00
00
F0
ENDCHAR
STARTCHAR 208D
ENCODING 8333
SWIDTH 540 0
DWIDTH 9 0
BBX 3 10 3 -2
BITMAP
60
40
80
80
80
80
80
80
40
20
ENDCHAR
STARTCHAR 208E
ENCODING 8334
SWIDTH 540 0
DWIDTH 9 0
BBX 3 10 3 -2
BITMAP
80
40
40
20
20
20
40
40
40
80
ENDCHAR
STARTCHAR 20A9
ENCODING 8361
SWIDTH 540 0
DWIDTH 9 0
BBX 8 12 0 1
BITMAP
C1
49
59
59
5B
57
FF
56
56
76
66
66
ENDCHAR
STARTCHAR 20AB
ENCODING 8363
SWIDTH 540 0
DWIDTH 9 0
BBX 8 16 0 -4
BITMAP
02
02
3F
02
3A
66
46
42
C2
42
42
66
3A
00
00
3E
ENDCHAR
STARTCHAR 20AC
ENCODING 8364
SWIDTH 540 0
DWIDTH 9 0
BBX 8 13 0 -1
BITMAP
04
1F
30
20
20
FE
20
20
FE
20
30
31
1F
ENDCHAR
STARTCHAR 20AF
ENCODING 8367
SWIDTH 540 0
DWIDTH 9 0
BBX 8 17 0 -4
BITMAP
20
F0
68
48
4E
4D
4D
49
49
49
59
DB
EE
08
18
18
18
ENDCHAR
STARTCHAR 2103
ENCODING 8451
SWIDTH 1020 0
DWIDTH 17 0
BBX 14 13 1 1
BITMAP
E000
93E0
9638
6C08
080C
1800
1800
1800
1800
180C
080C
0C18
07F0
ENDCHAR
STARTCHAR 210F
ENCODING 8463
SWIDTH 540 0
DWIDTH 9 0
BBX 8 12 0 0
BITMAP
10
10
7C
20
2F
33
63
63
42
42
42
C6
ENDCHAR
STARTCHAR 2113
ENCODING 8467
SWIDTH 540 0
DWIDTH 9 0
BBX 8 12 0 1
BITMAP
0E
1A
12
12
32
22
26
24
2C
39
73
DE
ENDCHAR
STARTCHAR 2116
ENCODING 8470
SWIDTH 540 0
DWIDTH 9 0
BBX 8 12 0 1
BITMAP
D8
D8
D8
FF
FD
FD
FD
FD
DD
DB
D8
DF
ENDCHAR
STARTCHAR 2121
ENCODING 8481
SWIDTH 1020 0
DWIDTH 17 0
BBX 15 12 1 0
BITMAP
FC00
2000
2000
27D0
2610
2610
2610
2790
2610
2610
2610
27DE
ENDCHAR
STARTCHAR 2122
ENCODING 8482
SWIDTH 540 0
DWIDTH 9 0
BBX 7 6 1 7
BITMAP
F2
5A
5E
56
52
52
ENDCHAR
STARTCHAR 2126
ENCODING 8486
SWIDTH 540 0
DWIDTH 9 0
BBX 7 13 1 0
BITMAP
30
7C
C4
86
86
86
86
86
86
86
C4
48
EE
ENDCHAR
STARTCHAR 2127
ENCODING 8487
SWIDTH 540 0
DWIDTH 9 0
BBX 7 12 1 0
BITMAP
EE
4C
C4
86
86
86
86
86
86
84
CC
78
ENDCHAR
STARTCHAR 212B
ENCODING 8491
SWIDTH 1020 0
DWIDTH 17 0
BBX 11 14 3 0
BITMAP
0400
0A00
0A00
0400
0E00
0A00
0A00
1100
1100
3180
3F80
60C0
4040
C060
ENDCHAR
STARTCHAR 2135
ENCODING 8501
SWIDTH 540 0
DWIDTH 9 0
BBX 8 13 0 0
BITMAP
22
46
43
65
25
38
6C
66
62
63
23
E2
04
ENDCHAR
STARTCHAR 2153
ENCODING 8531
SWIDTH 540 0
DWIDTH 9 0
BBX 8 15 0 -1
BITMAP
22
62
24
24
24
28
28
14
1F
11
21
26
41
49
87
ENDCHAR
STARTCHAR 2154
ENCODING 8532
SWIDTH 540 0
DWIDTH 9 0
BBX 8 15 0 -1
BITMAP
73
52
12
14
24
48
48
B4
1F
11
21
26
41
49
87
ENDCHAR
STARTCHAR 2155
ENCODING 8533
SWIDTH 540 0
DWIDTH 9 0
BBX 8 15 0 -1
BITMAP
22
62
24
24
24
28
28
10
1F
18
2E
29
41
49
87
ENDCHAR
STARTCHAR 2160
ENCODING 8544
SWIDTH 1020 0
DWIDTH 17 0
BBX 1 12 8 0
BITMAP
80
80
80
80
80
80
80
80
80
80
80
80
ENDCHAR
STARTCHAR 2161
ENCODING 8545
SWIDTH 1020 0
DWIDTH 17 0
BBX 7 12 5 0
BITMAP
C6
C6
C6
C6
C6
C6
C6
C6
C6
C6
C6
C6
ENDCHAR
STARTCHAR 2162
ENCODING 8546
SWIDTH 1020 0
DWIDTH 17 0
BBX 11 12 3 0
BITMAP
C460
C460
C460
C460
C460
C460
C460
C460
C460
C460
C460
C460
ENDCHAR
STARTCHAR 2163
ENCODING 8547
SWIDTH 1020 0
DWIDTH 17 0
BBX 13 12 3 0
BITMAP
B018
9030
9830
9820
8860
8C60
8C40
84C0
8680
8280
8380
8300
ENDCHAR
STARTCHAR 2164
ENCODING 8548
SWIDTH 1020 0
DWIDTH 17 0
BBX 11 12 3 0
BITMAP
C060
C060
60C0
60C0
2080
3180
3180
1100
1B00
0A00
0E00
0E00
ENDCHAR
STARTCHAR 2165
ENCODING 8549
SWIDTH 1020 0
DWIDTH 17 0
BBX 13 12 1 0
BITMAP
C068
6048
60C8
20C8
3088
3188
1188
1908
0B08
0A08
0E08
0608
ENDCHAR
STARTCHAR 2166
ENCODING 8550
SWIDTH 1020 0
DWIDTH 17 0
BBX 14 12 1 0
BITMAP
C1A4
C124
4324
6324
6224
2224
2624
3624
1424
1424
1C24
1824
ENDCHAR
STARTCHAR 2167
ENCODING 8551
SWIDTH 1020 0
DWIDTH 17 0
BBX 15 12 1 0
BITMAP
82D6
C2D6
C6D6
46D6
44D6
64D6
64D6
2CD6
28D6
38D6
38D6
18D6
ENDCHAR
STARTCHAR 2168
ENCODING 8552
SWIDTH 1020 0
DWIDTH 17 0
BBX 13 13 3 0
BITMAP
9830
8C60
8440
86C0
8280
8380
8380
8280
86C0
8C60
8820
9830
2008
ENDCHAR
STARTCHAR 2169
ENCODING 8553
SWIDTH 1020 0
DWIDTH 17 0
BBX 11 12 3 0
BITMAP
E0E0
60C0
3180
1B00
0A00
0E00
0E00
1B00
1100
3180
60C0
C060
ENDCHAR
STARTCHAR 216A
ENCODING 8554
SWIDTH 1020 0
DWIDTH 17 0
BBX 12 12 2 0
BITMAP
C190
6310
2210
3610
1410
1C10
1C10
1410
3610
6310
4110
C190
ENDCHAR
STARTCHAR 216B
ENCODING 8555
SWIDTH 1020 0
DWIDTH 17 0
BBX 14 13 1 0
BITMAP
4324
6224
2624
3424
1C24
1824
1C24
1424
3624
6224
6324
C124
0080
ENDCHAR
STARTCHAR 2170
ENCODING 8560
SWIDTH 1020 0
DWIDTH 17 0
BBX 1 12 8 0
BITMAP
80
80
00
00
80
80
80
80
80
80
80
80
ENDCHAR
STARTCHAR 2171
ENCODING 8561
SWIDTH 1020 0
DWIDTH 17 0
BBX 7 12 5 0
BITMAP
C6
C6
00
00
C4
C4
C4
C4
C4
C4
C4
C4
ENDCHAR
STARTCHAR 2172
ENCODING 8562
SWIDTH 1020 0
DWIDTH 17 0
BBX 9 12 4 0
BITMAP
C980
C980
0000
0000
8880
8880
8880
8880
8880
8880
8880
8880
ENDCHAR
STARTCHAR 2173
ENCODING 8563
SWIDTH 1020 0
DWIDTH 17 0
BBX 11 12 4 0
BITMAP
8000
8000
0000
0000
B060
98C0
98C0
8880
8D80
8500
8700
8200
ENDCHAR
STARTCHAR 2174
ENCODING 8564
SWIDTH 1020 0
DWIDTH 17 0
BBX 9 8 4 0
BITMAP
C180
4100
6300
2200
3600
3600
1400
1C00
ENDCHAR
STARTCHAR 2175
ENCODING 8565
SWIDTH 1020 0
DWIDTH 17 0
BBX 11 12 2 0
BITMAP
0020
0020
0000
0000
C1A0
6320
6320
2220
3620
1420
1C20
0820
ENDCHAR
STARTCHAR 2176
ENCODING 8566
SWIDTH 1020 0
DWIDTH 17 0
BBX 13 12 2 0
BITMAP
0098
0098
0000
0000
8698
C498
4498
4C98
6898
2898
3898
3098
ENDCHAR
STARTCHAR 2177
ENCODING 8567
SWIDTH 1020 0
DWIDTH 17 0
BBX 14 12 1 0
BITMAP
00D4
00D4
0000
0000
C3D4
42D4
66D4
24D4
24D4
3CD4
18D4
18D4
ENDCHAR
STARTCHAR 2178
ENCODING 8568
SWIDTH 1020 0
DWIDTH 17 0
BBX 12 13 3 0
BITMAP
C000
C000
0000
0000
D860
CCC0
C680
C380
C380
C6C0
CC40
D860
0010
ENDCHAR
STARTCHAR 2179
ENCODING 8569
SWIDTH 1020 0
DWIDTH 17 0
BBX 9 8 4 0
BITMAP
C180
6300
3600
1C00
1C00
3600
6300
C180
ENDCHAR
STARTCHAR 217A
ENCODING 8570
SWIDTH 1020 0
DWIDTH 17 0
BBX 12 13 2 0
BITMAP
0030
0030
0000
0000
61B0
3330
1630
1C30
1C30
3630
2330
61B0
8000
ENDCHAR
STARTCHAR 217B
ENCODING 8571
SWIDTH 1020 0
DWIDTH 17 0
BBX 13 12 2 0
BITMAP
00D8
00D8
0000
0000
C6D8
6CD8
28D8
38D8
38D8
68D8
44D8
C6D8
ENDCHAR
STARTCHAR 2190
ENCODING 8592
SWIDTH 540 0
DWIDTH 9 0
BBX 8 8 0 3
BITMAP
18
10
20
7F
E0
30
10
18
ENDCHAR
STARTCHAR 2191
ENCODING 8593
SWIDTH 540 0
DWIDTH 9 0
BBX 8 13 0 0
BITMAP
10
18
3C
6B
89
08
08
08
08
08
08
08
08
ENDCHAR
STARTCHAR 2192
ENCODING 8594
SWIDTH 540 0
DWIDTH 9 0
BBX 8 8 0 3
BITMAP
08
0C
06
FF
02
04
0C
08
ENDCHAR
STARTCHAR 2193
ENCODING 8595
SWIDTH 540 0
DWIDTH 9 0
BBX 8 12 0 0
BITMAP
08
08
08
08
08
08
08
08
C9
6E
3C
08
ENDCHAR
STARTCHAR 2194
ENCODING 8596
SWIDTH 540 0
DWIDTH 9 0
BBX 8 8 0 3
BITMAP
34
22
42
7F
C1
62
24
34
ENDCHAR
STARTCHAR 2195
ENCODING 8597
SWIDTH 540 0
DWIDTH 9 0
BBX 8 13 0 -1
BITMAP
10
18
3C
6B
89
08
08
08
08
C9
6E
3C
08
ENDCHAR
STARTCHAR 2196
ENCODING 8598
SWIDTH 540 0
DWIDTH 9 0
BBX 8 12 0 1
BITMAP
30
3E
73
58
88
08
0C
04
04
02
02
02
ENDCHAR
STARTCHAR 2197
ENCODING 8599
SWIDTH 540 0
DWIDTH 9 0
BBX 7 12 1 1
BITMAP
18
7C
94
12
12
20
20
60
40
40
C0
80
ENDCHAR
STARTCHAR 2198
ENCODING 8600
SWIDTH 540 0
DWIDTH 9 0
BBX 7 12 1 1
BITMAP
80
40
40
40
20
20
30
12
16
DC
3C
08
ENDCHAR
STARTCHAR 2199
ENCODING 8601
SWIDTH 540 0
DWIDTH 9 0
BBX 8 12 0 1
BITMAP
02
02
06
04
04
0C
08
C8
50
76
3D
20
ENDCHAR
STARTCHAR 21A8
ENCODING 8616
SWIDTH 1020 0
DWIDTH 17 0
BBX 9 15 4 -1
BITMAP
0800
1C00
3E00
2A00
4900
8980
0800
0800
0800
8900
4980
2A00
1C00
0800
FF80
ENDCHAR
STARTCHAR 21B0
ENCODING 8624
SWIDTH 540 0
DWIDTH 9 0
BBX 7 13 0 0
BITMAP
10
18
30
60
FE
62
32
1A
02
02
02
02
02
ENDCHAR
STARTCHAR 21B1
ENCODING 8625
SWIDTH 540 0
DWIDTH 9 0
BBX 7 13 1 0
BITMAP
10
18
08
04
FE
84
88
90
80
80
80
80
80
ENDCHAR
STARTCHAR 21B2
ENCODING 8626
SWIDTH 540 0
DWIDTH 9 0
BBX 7 12 0 0
BITMAP
02
02
02
02
12
1A
22
62
FE
20
30
18
ENDCHAR
STARTCHAR 21B3
ENCODING 8627
SWIDTH 540 0
DWIDTH 9 0
BBX 7 12 1 0
BITMAP
80
80
80
80
90
98
8C
84
FE
0C
08
10
ENDCHAR
STARTCHAR 21B4
ENCODING 8628
SWIDTH 540 0
DWIDTH 9 0
BBX 7 11 1 0
BITMAP
F0
10
10
10
10
10
10
92
54
38
10
ENDCHAR
STARTCHAR 21B5
ENCODING 8629
SWIDTH 540 0
DWIDTH 9 0
BBX 7 10 0 1
BITMAP
02
02
12
1A
22
42
FE
20
10
18
ENDCHAR
STARTCHAR 21B9
ENCODING 8633
SWIDTH 540 0
DWIDTH 9 0
BBX 7 14 1 0
BITMAP
B0
A0
C0
FE
FE
D0
B2
BA
0E
FE
06
0A
12
10
ENDCHAR
STARTCHAR 21C4
ENCODING 8644
SWIDTH 540 0
DWIDTH 9 0
BBX 8 14 0 0
BITMAP
04
06
02
7F
7F
22
36
24
40
FF
40
20
20
30
ENDCHAR
STARTCHAR 21C5
ENCODING 8645
SWIDTH 540 0
DWIDTH 9 0
BBX 8 13 0 -1
BITMAP
20
24
74
6C
AC
24
24
24
24
35
2F
26
24
ENDCHAR
STARTCHAR 21C6
ENCODING 8646
SWIDTH 540 0
DWIDTH 9 0
BBX 8 14 0 0
BITMAP
10
20
60
7F
FF
64
24
12
02
7F
02
02
04
04
ENDCHAR
STARTCHAR 21C7
ENCODING 8647
SWIDTH 540 0
DWIDTH 9 0
BBX 8 13 0 -1
BITMAP
08
10
20
7F
FF
20
10
38
60
7F
E0
30
18
ENDCHAR
STARTCHAR 21C8
ENCODING 8648
SWIDTH 540 0
DWIDTH 9 0
BBX 8 13 0 0
BITMAP
24
26
7E
6D
A5
24
24
24
24
24
24
24
24
ENDCHAR
STARTCHAR 21C9
ENCODING 8649
SWIDTH 540 0
DWIDTH 9 0
BBX 8 13 0 -1
BITMAP
08
0C
06
FF
FF
06
0C
04
06
FF
02
04
08
ENDCHAR
STARTCHAR 21CA
ENCODING 8650
SWIDTH 540 0
DWIDTH 9 0
BBX 8 12 0 0
BITMAP
24
24
24
24
24
24
24
24
B5
7F
36
24
ENDCHAR
STARTCHAR 21D0
ENCODING 8656
SWIDTH 1020 0
DWIDTH 17 0
BBX 12 9 2 1
BITMAP
0800
0800
1000
7FF0
C000
7FF0
2000
1000
0800
ENDCHAR
STARTCHAR 21D1
ENCODING 8657
SWIDTH 1020 0
DWIDTH 17 0
BBX 9 13 4 0
BITMAP
0800
1400
1400
3600
5500
9480
1400
1400
1400
1400
1400
1400
1400
ENDCHAR
STARTCHAR 21D2
ENCODING 8658
SWIDTH 1020 0
DWIDTH 17 0
BBX 12 9 3 1
BITMAP
0200
0100
0080
FFE0
0030
FFE0
0040
0080
0100
ENDCHAR
STARTCHAR 21D3
ENCODING 8659
SWIDTH 1020 0
DWIDTH 17 0
BBX 9 12 4 0
BITMAP
1400
1400
1400
1400
1400
1400
1400
9480
5500
3600
1400
0800
ENDCHAR
STARTCHAR 21D4
ENCODING 8660
SWIDTH 1020 0
DWIDTH 17 0
BBX 15 9 1 1
BITMAP
0840
0C20
1010
3FF8
4004
FFFE
2008
1830
0440
ENDCHAR
STARTCHAR 21D5
ENCODING 8661
SWIDTH 1020 0
DWIDTH 17 0
BBX 9 14 4 0
BITMAP
0800
1400
3600
5500
9480
1400
1400
1400
1400
D580
5500
3600
1400
0800
ENDCHAR
STARTCHAR 21D6
ENCODING 8662
SWIDTH 1020 0
DWIDTH 17 0
BBX 10 10 4 1
BITMAP
F000
AC00
9000
C800
A400
9200
8900
0480
0240
0100
ENDCHAR
STARTCHAR 21D7
ENCODING 8663
SWIDTH 1020 0
DWIDTH 17 0
BBX 10 10 3 1
BITMAP
03C0
0D40
0240
04C0
0940
1240
2440
4800
9000
2000
ENDCHAR
STARTCHAR 21D8
ENCODING 8664
SWIDTH 1020 0
DWIDTH 17 0
BBX 10 10 3 2
BITMAP
2000
9000
4800
2440
1240
0940
04C0
0240
0F40
1080
ENDCHAR
STARTCHAR 21D9
ENCODING 8665
SWIDTH 1020 0
DWIDTH 17 0
BBX 10 10 4 2
BITMAP
0100
0280
04C0
8900
9200
A400
C800
9000
BC00
4000
ENDCHAR
STARTCHAR 21E4
ENCODING 8676
SWIDTH 540 0
DWIDTH 9 0
BBX 7 8 1 3
BITMAP
90
A0
C0
FE
C0
A0
B0
90
ENDCHAR
STARTCHAR 21E5
ENCODING 8677
SWIDTH 540 0
DWIDTH 9 0
BBX 7 8 1 3
BITMAP
32
1A
0A
FE
0E
0A
12
22
ENDCHAR
STARTCHAR 21E6
ENCODING 8678
SWIDTH 1020 0
DWIDTH 17 0
BBX 13 13 2 -1
BITMAP
0200
0200
0600
1A00
23F8
4008
8008
C008
2008
13F8
0A00
0600
0200
ENDCHAR
STARTCHAR 21E7
ENCODING 8679
SWIDTH 1020 0
DWIDTH 17 0
BBX 13 13 2 1
BITMAP
0200
0500
0880
1040
1040
2020
4010
B0E8
1080
1080
1080
1080
0F80
ENDCHAR
STARTCHAR 21E8
ENCODING 8680
SWIDTH 1020 0
DWIDTH 17 0
BBX 13 13 2 -1
BITMAP
0400
0200
0300
02C0
FE20
8010
8008
8018
8020
FE40
0280
0300
0200
ENDCHAR
STARTCHAR 21E9
ENCODING 8681
SWIDTH 1020 0
DWIDTH 17 0
BBX 13 13 2 0
BITMAP
1F80
1080
1080
1080
1080
F078
4010
2020
1040
0880
0500
0700
0200
ENDCHAR
STARTCHAR 21EA
ENCODING 8682
SWIDTH 1020 0
DWIDTH 17 0
BBX 13 13 2 1
BITMAP
0200
0500
0880
1040
1040
2020
4010
B0E8
1080
0F00
0F80
1080
0F80
ENDCHAR
STARTCHAR 21EB
ENCODING 8683
SWIDTH 1020 0
DWIDTH 17 0
BBX 13 13 2 1
BITMAP
0200
0500
0880
1040
1040
2020
4010
B0E8
1080
1080
F078
8008
FFF8
ENDCHAR
STARTCHAR 21EC
ENCODING 8684
SWIDTH 1020 0
DWIDTH 17 0
BBX 13 13 2 1
BITMAP
0200
0500
0880
1040
1FC0
2020
4010
B0E8
1080
1080
F078
8008
FFF8
ENDCHAR
STARTCHAR 21ED
ENCODING 8685
SWIDTH 1020 0
DWIDTH 17 0
BBX 13 13 2 1
BITMAP
0200
0700
0A80
1240
1240
2220
4210
B2E8
1280
1280
F278
8208
FFF8
ENDCHAR
STARTCHAR 2200
ENCODING 8704
SWIDTH 1020 0
DWIDTH 17 0
BBX 15 15 1 -2
BITMAP
C006
4004
600C
2008
3018
1FF0
1830
0820
0C60
0440
0440
0280
0280
0100
0100
ENDCHAR
STARTCHAR 2202
ENCODING 8706
SWIDTH 1020 0
DWIDTH 17 0
BBX 8 13 4 0
BITMAP
3C
62
03
03
01
3D
67
C3
83
82
82
C4
7C
ENDCHAR
STARTCHAR 2203
ENCODING 8707
SWIDTH 1020 0
DWIDTH 17 0
BBX 12 13 2 0
BITMAP
FFF0
0010
0010
0010
0010
0010
FFF0
0010
0010
0010
0010
0010
FFF0
ENDCHAR
STARTCHAR 2205
ENCODING 8709
SWIDTH 540 0
DWIDTH 9 0
BBX 8 14 0 -1
BITMAP
19
3F
22
66
46
4E
4A
5A
52
72
62
66
7C
80
ENDCHAR
STARTCHAR 2207
ENCODING 8711
SWIDTH 1020 0
DWIDTH 17 0
BBX 13 13 2 0
BITMAP
FFF8
4010
6010
2020
3020
1040
18C0
0880
0D80
0500
0700
0200
0200
ENDCHAR
STARTCHAR 2208
ENCODING 8712
SWIDTH 1020 0
DWIDTH 17 0
BBX 13 13 2 0
BITMAP
0FF8
3800
4000
C000
8000
8000
FFF8
8000
8000
C000
4000
3000
0FF8
ENDCHAR
STARTCHAR 2209
ENCODING 8713
SWIDTH 540 0
DWIDTH 9 0
BBX 7 13 1 0
BITMAP
0C
1E
78
C8
98
90
FE
90
B0
E0
60
3E
60
ENDCHAR
STARTCHAR 220B
ENCODING 8715
SWIDTH 1020 0
DWIDTH 17 0
BBX 13 13 2 0
BITMAP
FF80
00E0
0010
0018
0008
0008
FFF8
0008
0008
0018
0010
0060
FF80
ENDCHAR
STARTCHAR 2212
ENCODING 8722
SWIDTH 540 0
DWIDTH 9 0
BBX 7 1 1 6
BITMAP
FE
ENDCHAR
STARTCHAR 2213
ENCODING 8723
SWIDTH 540 0
DWIDTH 9 0
BBX 7 12 1 1
BITMAP
FE
00
00
10
10
10
10
FE
10
10
10
10
ENDCHAR
STARTCHAR 2217
ENCODING 8727
SWIDTH 540 0
DWIDTH 9 0
BBX 8 8 0 0
BITMAP
08
8A
EB
3E
3C
EF
89
08
ENDCHAR
STARTCHAR 2219
ENCODING 8729
SWIDTH 540 0
DWIDTH 9 0
BBX 4 4 2 5
BITMAP
70
F0
70
20
ENDCHAR
STARTCHAR 221A
ENCODING 8730
SWIDTH 540 0
DWIDTH 9 0
BBX 8 15 0 -2
BITMAP
01
01
01
03
02
02
02
E2
26
24
24
34
14
1C
18
ENDCHAR
STARTCHAR 221D
ENCODING 8733
SWIDTH 1020 0
DWIDTH 17 0
BBX 14 7 1 3
BITMAP
3838
644C
C284
8100
C288
46CC
3838
ENDCHAR
STARTCHAR 221E
ENCODING 8734
SWIDTH 1020 0
DWIDTH 17 0
BBX 15 7 1 3
BITMAP
3838
66CC
C286
8102
C286
66CC
3838
ENDCHAR
STARTCHAR 221F
ENCODING 8735
SWIDTH 1020 0
DWIDTH 17 0
BBX 14 14 2 0
BITMAP
8000
8000
8000
8000
8000
8000
8000
8000
8000
8000
8000
8000
8000
FFFC
ENDCHAR
STARTCHAR 2220
ENCODING 8736
SWIDTH 1020 0
DWIDTH 17 0
BBX 14 14 1 0
BITMAP
0008
000C
0018
0030
0060
00C0
0180
0300
0600
0C00
1800
3000
6000
FFFC
ENDCHAR
STARTCHAR 2225
ENCODING 8741
SWIDTH 1020 0
DWIDTH 17 0
BBX 9 15 4 -2
BITMAP
0480
0C80
0900
0900
1900
1200
1200
3600
2400
2400
4C00
4800
4800
9800
9000
ENDCHAR
STARTCHAR 2226
ENCODING 8742
SWIDTH 540 0
DWIDTH 9 0
BBX 7 15 1 -2
BITMAP
12
16
24
24
A4
E4
68
78
58
4C
4A
90
90
90
90
ENDCHAR
STARTCHAR 2227
ENCODING 8743
SWIDTH 1020 0
DWIDTH 17 0
BBX 13 15 2 0
BITMAP
0200
0200
0500
0500
0880
0880
18C0
1040
3060
2020
6030
4010
C018
8008
8008
ENDCHAR
STARTCHAR 2228
ENCODING 8744
SWIDTH 1020 0
DWIDTH 17 0
BBX 15 15 1 -2
BITMAP
C006
4004
600C
2008
3018
1010
1830
0820
0C60
0440
0440
0280
0280
0100
0100
ENDCHAR
STARTCHAR 2229
ENCODING 8745
SWIDTH 1020 0
DWIDTH 17 0
BBX 13 13 2 0
BITMAP
1FC0
3060
4010
4010
8008
8008
8008
8008
8008
8008
8008
8008
8008
ENDCHAR
STARTCHAR 222A
ENCODING 8746
SWIDTH 1020 0
DWIDTH 17 0
BBX 13 13 2 0
BITMAP
8008
8008
8008
8008
8008
8008
8008
8008
8008
4010
4010
2020
1FC0
ENDCHAR
STARTCHAR 222B
ENCODING 8747
SWIDTH 1020 0
DWIDTH 17 0
BBX 9 15 4 -1
BITMAP
0700
0500
0C80
0800
0800
0800
0800
0800
0800
0800
0800
0800
9800
D000
7000
ENDCHAR
STARTCHAR 222C
ENCODING 8748
SWIDTH 1020 0
DWIDTH 17 0
BBX 15 15 1 -1
BITMAP
071C
0594
04A6
0C20
0820
0820
0820
0820
0820
0820
0820
0860
CA40
5340
71C0
ENDCHAR
STARTCHAR 222E
ENCODING 8750
SWIDTH 1020 0
DWIDTH 17 0
BBX 9 15 4 -1
BITMAP
0700
0500
0C80
0800
0800
1C00
2A00
2A00
2A00
1C00
0800
0800
9800
D000
7000
ENDCHAR
STARTCHAR 2234
ENCODING 8756
SWIDTH 1020 0
DWIDTH 17 0
BBX 11 11 3 1
BITMAP
0400
0C00
0000
0000
0000
0000
0000
0000
0000
C060
C060
ENDCHAR
STARTCHAR 2235
ENCODING 8757
SWIDTH 1020 0
DWIDTH 17 0
BBX 11 11 3 1
BITMAP
C060
C060
0000
0000
0000
0000
0000
0000
0000
0C00
0400
ENDCHAR
STARTCHAR 223C
ENCODING 8764
SWIDTH 540 0
DWIDTH 9 0
BBX 7 2 1 5
BITMAP
F2
9C
ENDCHAR
STARTCHAR 223D
ENCODING 8765
SWIDTH 1020 0
DWIDTH 17 0
BBX 15 7 1 3
BITMAP
3838
644C
C086
8102
C206
4644
3838
ENDCHAR
STARTCHAR 2243
ENCODING 8771
SWIDTH 540 0
DWIDTH 9 0
BBX 7 6 1 3
BITMAP
40
FE
0C
00
00
FE
ENDCHAR
STARTCHAR 2245
ENCODING 8773
SWIDTH 540 0
DWIDTH 9 0
BBX 7 7 1 3
BITMAP
F6
1C
00
00
FE
00
FE
ENDCHAR
STARTCHAR 2248
ENCODING 8776
SWIDTH 540 0
DWIDTH 9 0
BBX 7 6 1 2
BITMAP
40
FE
0C
00
F6
0C
ENDCHAR
STARTCHAR 2252
ENCODING 8786
SWIDTH 1020 0
DWIDTH 17 0
BBX 11 11 3 1
BITMAP
3000
3000
0000
FFE0
0000
0000
0000
FFE0
0000
0180
0180
ENDCHAR
STARTCHAR 2260
ENCODING 8800
SWIDTH 1020 0
DWIDTH 17 0
BBX 11 12 3 1
BITMAP
0180
0100
0200
FFE0
0600
0400
0C00
FFE0
1800
1000
1000
2000
ENDCHAR
STARTCHAR 2261
ENCODING 8801
SWIDTH 1020 0
DWIDTH 17 0
BBX 11 9 3 2
BITMAP
FFE0
0000
0000
0000
FFE0
0000
0000
0000
FFE0
ENDCHAR
STARTCHAR 2262
ENCODING 8802
SWIDTH 540 0
DWIDTH 9 0
BBX 7 13 1 0
BITMAP
0C
08
08
FE
10
10
FE
30
20
FE
FE
40
40
ENDCHAR
STARTCHAR 2264
ENCODING 8804
SWIDTH 540 0
DWIDTH 9 0
BBX 6 10 1 0
BITMAP
04
18
70
C0
C0
30
1C
04
00
FC
ENDCHAR
STARTCHAR 2265
ENCODING 8805
SWIDTH 540 0
DWIDTH 9 0
BBX 6 10 1 0
BITMAP
C0
60
18
04
04
18
60
C0
00
FC
ENDCHAR
STARTCHAR 2266
ENCODING 8806
SWIDTH 1020 0
DWIDTH 17 0
BBX 12 13 2 0
BITMAP
0030
01C0
0F00
3800
F800
0F00
01C0
0030
0000
7FF0
0000
0000
7FF0
ENDCHAR
STARTCHAR 2267
ENCODING 8807
SWIDTH 1020 0
DWIDTH 17 0
BBX 12 13 3 0
BITMAP
C000
3800
0F00
01C0
01F0
0F00
3800
C000
0000
FFE0
0000
0000
FFE0
ENDCHAR
STARTCHAR 226A
ENCODING 8810
SWIDTH 1020 0
DWIDTH 17 0
BBX 13 15 2 -1
BITMAP
0198
0330
0660
08C0
1100
2200
4400
8800
4400
2200
1100
0880
0440
0230
0198
ENDCHAR
STARTCHAR 226B
ENCODING 8811
SWIDTH 1020 0
DWIDTH 17 0
BBX 13 15 2 -1
BITMAP
CC00
6600
3300
1880
0440
0220
0110
0088
0110
0220
0440
0880
1100
6200
CC00
ENDCHAR
STARTCHAR 2276
ENCODING 8822
SWIDTH 540 0
DWIDTH 9 0
BBX 8 13 0 0
BITMAP
01
06
18
60
B0
0C
43
30
0C
03
0C
30
40
ENDCHAR
STARTCHAR 2277
ENCODING 8823
SWIDTH 540 0
DWIDTH 9 0
BBX 8 13 0 0
BITMAP
40
70
1C
07
0C
30
43
0E
38
E0
18
06
03
ENDCHAR
STARTCHAR 2282
ENCODING 8834
SWIDTH 1020 0
DWIDTH 17 0
BBX 13 13 2 0
BITMAP
0FF8
3800
4000
C000
8000
8000
8000
8000
8000
8000
4000
3000
0FF8
ENDCHAR
STARTCHAR 2283
ENCODING 8835
SWIDTH 1020 0
DWIDTH 17 0
BBX 13 13 2 0
BITMAP
FF80
00E0
0010
0018
0008
0008
0008
0008
0008
0008
0010
0060
FF80
ENDCHAR
STARTCHAR 2284
ENCODING 8836
SWIDTH 540 0
DWIDTH 9 0
BBX 7 13 1 0
BITMAP
0C
1E
78
C8
98
90
90
90
B0
E0
60
3E
60
ENDCHAR
STARTCHAR 2285
ENCODING 8837
SWIDTH 540 0
DWIDTH 9 0
BBX 7 12 1 1
BITMAP
E8
18
14
16
12
32
22
26
24
38
F0
40
ENDCHAR
STARTCHAR 2286
ENCODING 8838
SWIDTH 1020 0
DWIDTH 17 0
BBX 13 13 2 -1
BITMAP
3FF8
6000
C000
8000
8000
8000
8000
C000
7FF8
0FF8
0000
0000
FFF8
ENDCHAR
STARTCHAR 2287
ENCODING 8839
SWIDTH 1020 0
DWIDTH 17 0
BBX 13 13 2 -1
BITMAP
FFE0
0030
0018
0008
0008
0008
0008
0018
FFF0
FF80
0000
0000
FFF8
ENDCHAR
STARTCHAR 228A
ENCODING 8842
SWIDTH 540 0
DWIDTH 9 0
BBX 7 12 1 0
BITMAP
7E
C0
80
80
80
80
C0
3E
00
18
FE
20
ENDCHAR
STARTCHAR 228B
ENCODING 8843
SWIDTH 540 0
DWIDTH 9 0
BBX 7 12 1 0
BITMAP
F8
04
06
02
02
06
0C
F8
00
18
FE
20
ENDCHAR
STARTCHAR 2295
ENCODING 8853
SWIDTH 540 0
DWIDTH 9 0
BBX 8 8 0 3
BITMAP
3E
4A
89
BF
89
49
22
1C
ENDCHAR
STARTCHAR 2296
ENCODING 8854
SWIDTH 540 0
DWIDTH 9 0
BBX 8 8 0 3
BITMAP
3E
42
81
BF
81
41
22
1C
ENDCHAR
STARTCHAR 2297
ENCODING 8855
SWIDTH 540 0
DWIDTH 9 0
BBX 8 8 0 3
BITMAP
3E
66
95
89
95
65
22
1C
ENDCHAR
STARTCHAR 22A5
ENCODING 8869
SWIDTH 1020 0
DWIDTH 17 0
BBX 15 14 1 0
BITMAP
0100
0100
0100
0100
0100
0100
0100
0100
0100
0100
0100
0100
0100
FFFE
ENDCHAR
STARTCHAR 22BF
ENCODING 8895
SWIDTH 1020 0
DWIDTH 17 0
BBX 13 14 2 0
BITMAP
0008
0008
0018
0028
0048
0088
0108
0208
0408
0808
1008
2008
4008
FFF8
ENDCHAR
STARTCHAR 22DA
ENCODING 8922
SWIDTH 540 0
DWIDTH 9 0
BBX 8 15 0 -1
BITMAP
01
07
18
E0
1C
07
00
7F
00
60
18
07
1C
70
80
ENDCHAR
STARTCHAR 22DB
ENCODING 8923
SWIDTH 540 0
DWIDTH 9 0
BBX 8 15 0 -1
BITMAP
80
60
1C
07
18
60
00
7F
00
03
1C
60
B8
07
01
ENDCHAR
STARTCHAR 22EE
ENCODING 8942
SWIDTH 1020 0
DWIDTH 17 0
BBX 1 14 8 -3
BITMAP
80
80
00
00
00
00
80
80
00
00
00
00
80
80
ENDCHAR
STARTCHAR 22EF
ENCODING 8943
SWIDTH 1020 0
DWIDTH 17 0
BBX 13 2 2 4
BITMAP
C218
C218
ENDCHAR
STARTCHAR 2305
ENCODING 8965
SWIDTH 540 0
DWIDTH 9 0
BBX 7 8 1 2
BITMAP
FE
20
10
30
28
48
44
84
ENDCHAR
STARTCHAR 2306
ENCODING 8966
SWIDTH 540 0
DWIDTH 9 0
BBX 7 11 1 1
BITMAP
FE
FE
00
FE
20
10
30
28
48
44
84
ENDCHAR
STARTCHAR 2308
ENCODING 8968
SWIDTH 540 0
DWIDTH 9 0
BBX 4 16 3 -2
BITMAP
F0
80
80
80
80
80
80
80
80
80
80
80
80
80
80
80
ENDCHAR
STARTCHAR 2309
ENCODING 8969
SWIDTH 540 0
DWIDTH 9 0
BBX 5 16 1 -2
BITMAP
F8
08
08
08
08
08
08
08
08
08
08
08
08
08
08
08
ENDCHAR
STARTCHAR 230A
ENCODING 8970
SWIDTH 540 0
DWIDTH 9 0
BBX 4 16 3 -2
BITMAP
80
80
80
80
80
80
80
80
80
80
80
80
80
80
80
F0
ENDCHAR
STARTCHAR 230B
ENCODING 8971
SWIDTH 540 0
DWIDTH 9 0
BBX 5 16 1 -2
BITMAP
08
08
08
08
08
08
08
08
08
08
08
08
08
08
08
F8
ENDCHAR
STARTCHAR 2312
ENCODING 8978
SWIDTH 1020 0
DWIDTH 17 0
BBX 17 3 0 11
BITMAP
0FF800
380E00
C00180
ENDCHAR
STARTCHAR 2318
ENCODING 8984
SWIDTH 1020 0
DWIDTH 17 0
BBX 13 13 2 -1
BITMAP
2020
78F0
8888
8888
7FF0
1FC0
0880
0880
7FF0
C898
8888
C898
7070
ENDCHAR
STARTCHAR 2325
ENCODING 8997
SWIDTH 1020 0
DWIDTH 17 0
BBX 13 12 2 1
BITMAP
F8F8
0800
0400
0400
0200
0200
0200
0100
0100
0100
0080
00F8
ENDCHAR
STARTCHAR 2329
ENCODING 9001
SWIDTH 540 0
DWIDTH 9 0
BBX 6 16 1 -2
BITMAP
0C
08
18
30
30
60
40
C0
C0
60
20
30
10
18
0C
04
ENDCHAR
STARTCHAR 232A
ENCODING 9002
SWIDTH 540 0
DWIDTH 9 0
BBX 7 16 1 -2
BITMAP
C0
60
20
30
18
18
0C
04
0E
0C
18
10
30
60
60
C0
ENDCHAR
STARTCHAR 23BE
ENCODING 9150
SWIDTH 1020 0
DWIDTH 17 0
BBX 9 17 8 -3
BITMAP
FF80
8000
8000
8000
8000
8000
8000
8000
8000
8000
8000
8000
8000
8000
8000
8000
8000
ENDCHAR
STARTCHAR 23BF
ENCODING 9151
SWIDTH 1020 0
DWIDTH 17 0
BBX 9 17 8 -3
BITMAP
8000
8000
8000
8000
8000
8000
8000
8000
8000
8000
8000
8000
8000
8000
8000
8000
FF80
ENDCHAR
STARTCHAR 23C0
ENCODING 9152
SWIDTH 1020 0
DWIDTH 17 0
BBX 13 17 2 -3
BITMAP
0200
0200
0F80
3260
4210
4210
8208
8208
8208
8208
8208
4210
4210
2220
1FC0
0200
0200
ENDCHAR
STARTCHAR 23C1
ENCODING 9153
SWIDTH 1020 0
DWIDTH 17 0
BBX 17 17 0 -3
BITMAP
FFFF80
008000
03E000
0C9800
108400
108400
208200
208200
208200
208200
208200
108400
108400
088800
07F000
008000
008000
ENDCHAR
STARTCHAR 23C2
ENCODING 9154
SWIDTH 1020 0
DWIDTH 17 0
BBX 17 17 0 -3
BITMAP
008000
008000
03E000
0C9800
108400
108400
208200
208200
208200
208200
208200
108400
108400
088800
07F000
008000
FFFF80
ENDCHAR
STARTCHAR 23C3
ENCODING 9155
SWIDTH 1020 0
DWIDTH 17 0
BBX 15 17 1 -3
BITMAP
0100
0100
0100
0100
0380
0540
0540
0920
1120
1110
2108
2108
4104
8104
7FFA
0100
0100
ENDCHAR
STARTCHAR 23C4
ENCODING 9156
SWIDTH 1020 0
DWIDTH 17 0
BBX 17 17 0 -3
BITMAP
FFFF80
008000
008000
008000
01C000
02A000
02A000
049000
089000
088800
108400
108400
208200
408200
3FFD00
008000
008000
ENDCHAR
STARTCHAR 23C5
ENCODING 9157
SWIDTH 1020 0
DWIDTH 17 0
BBX 17 17 0 -3
BITMAP
008000
008000
008000
008000
01C000
02A000
02A000
049000
089000
088800
108400
108400
208200
408200
3FFD00
008000
FFFF80
ENDCHAR
STARTCHAR 23C6
ENCODING 9158
SWIDTH 1020 0
DWIDTH 17 0
BBX 15 17 1 -3
BITMAP
0100
0100
0100
0100
0100
0100
2100
DD00
0300
01C6
0138
0100
0100
0100
0100
0100
0100
ENDCHAR
STARTCHAR 23C7
ENCODING 9159
SWIDTH 1020 0
DWIDTH 17 0
BBX 17 17 0 -3
BITMAP
FFFF80
008000
008000
008000
008000
008000
108000
6E8000
018000
00E300
009C00
008000
008000
008000
008000
008000
008000
ENDCHAR
STARTCHAR 23C8
ENCODING 9160
SWIDTH 1020 0
DWIDTH 17 0
BBX 17 17 0 -3
BITMAP
008000
008000
008000
008000
008000
008000
108000
6E8000
018000
00E300
009C00
008000
008000
008000
008000
008000
FFFF80
ENDCHAR
STARTCHAR 23C9
ENCODING 9161
SWIDTH 1020 0
DWIDTH 17 0
BBX 17 17 0 -3
BITMAP
FFFF80
008000
008000
008000
008000
008000
008000
008000
008000
008000
008000
008000
008000
008000
008000
008000
008000
ENDCHAR
STARTCHAR 23CA
ENCODING 9162
SWIDTH 1020 0
DWIDTH 17 0
BBX 17 17 0 -3
BITMAP
008000
008000
008000
008000
008000
008000
008000
008000
008000
008000
008000
008000
008000
008000
008000
008000
FFFF80
ENDCHAR
STARTCHAR 23CB
ENCODING 9163
SWIDTH 1020 0
DWIDTH 17 0
BBX 9 17 0 -3
BITMAP
FF80
0080
0080
0080
0080
0080
0080
0080
0080
0080
0080
0080
0080
0080
0080
0080
0080
ENDCHAR
STARTCHAR 23CC
ENCODING 9164
SWIDTH 1020 0
DWIDTH 17 0
BBX 9 17 0 -3
BITMAP
0080
0080
0080
0080
0080
0080
0080
0080
0080
0080
0080
0080
0080
0080
0080
0080
FF80
ENDCHAR
STARTCHAR 23CE
ENCODING 9166
SWIDTH 540 0
DWIDTH 9 0
BBX 7 13 0 0
BITMAP
06
06
06
16
16
36
4E
42
C2
4C
30
10
10
ENDCHAR
STARTCHAR 23CF
ENCODING 9167
SWIDTH 1020 0
DWIDTH 17 0
BBX 13 10 2 1
BITMAP
0200
0700
0F80
1FC0
3FE0
7FF0
8008
0000
FFF8
FFF8
ENDCHAR
STARTCHAR 2400
ENCODING 9216
SWIDTH 540 0
DWIDTH 9 0
BBX 6 12 0 1
BITMAP
60
A0
A0
A0
18
18
18
18
04
04
04
04
ENDCHAR
STARTCHAR 2401
ENCODING 9217
SWIDTH 540 0
DWIDTH 9 0
BBX 8 12 0 1
BITMAP
E0
40
20
40
18
18
18
18
05
05
07
05
ENDCHAR
STARTCHAR 2402
ENCODING 9218
SWIDTH 540 0
DWIDTH 9 0
BBX 8 12 0 1
BITMAP
E0
40
20
40
18
10
10
10
05
02
02
05
ENDCHAR
STARTCHAR 2403
ENCODING 9219
SWIDTH 540 0
DWIDTH 9 0
BBX 8 12 0 1
BITMAP
E0
60
80
60
18
10
10
10
05
02
02
05
ENDCHAR
STARTCHAR 2404
ENCODING 9220
SWIDTH 540 0
DWIDTH 9 0
BBX 8 12 0 1
BITMAP
E0
60
80
60
18
18
18
18
03
02
02
02
ENDCHAR
STARTCHAR 2405
ENCODING 9221
SWIDTH 540 0
DWIDTH 9 0
BBX 8 13 0 0
BITMAP
E0
60
80
60
18
18
18
18
07
05
05
05
03
ENDCHAR
STARTCHAR 2406
ENCODING 9222
SWIDTH 540 0
DWIDTH 9 0
BBX 8 12 0 1
BITMAP
40
A0
E0
A0
18
10
10
08
05
02
02
05
ENDCHAR
STARTCHAR 2407
ENCODING 9223
SWIDTH 540 0
DWIDTH 9 0
BBX 6 12 0 1
BITMAP
E0
40
A0
40
18
18
10
18
04
04
04
04
ENDCHAR
STARTCHAR 2408
ENCODING 9224
SWIDTH 540 0
DWIDTH 9 0
BBX 5 8 2 5
BITMAP
C0
C0
C0
C0
30
20
10
18
ENDCHAR
STARTCHAR 2409
ENCODING 9225
SWIDTH 540 0
DWIDTH 9 0
BBX 5 8 2 5
BITMAP
40
C0
40
40
38
10
10
10
ENDCHAR
STARTCHAR 240A
ENCODING 9226
SWIDTH 540 0
DWIDTH 9 0
BBX 4 8 2 5
BITMAP
80
80
80
C0
30
10
20
20
ENDCHAR
STARTCHAR 240B
ENCODING 9227
SWIDTH 540 0
DWIDTH 9 0
BBX 6 8 1 5
BITMAP
A0
60
20
40
1C
08
08
08
ENDCHAR
STARTCHAR 240C
ENCODING 9228
SWIDTH 540 0
DWIDTH 9 0
BBX 4 8 2 5
BITMAP
C0
C0
80
80
30
10
20
20
ENDCHAR
STARTCHAR 240D
ENCODING 9229
SWIDTH 540 0
DWIDTH 9 0
BBX 6 8 1 5
BITMAP
60
80
80
60
1C
18
18
14
ENDCHAR
STARTCHAR 240E
ENCODING 9230
SWIDTH 540 0
DWIDTH 9 0
BBX 5 8 2 5
BITMAP
C0
80
40
C0
30
28
28
10
ENDCHAR
STARTCHAR 240F
ENCODING 9231
SWIDTH 540 0
DWIDTH 9 0
BBX 4 8 2 5
BITMAP
C0
80
40
C0
10
10
10
10
ENDCHAR
STARTCHAR 2410
ENCODING 9232
SWIDTH 540 0
DWIDTH 9 0
BBX 8 12 0 1
BITMAP
E0
A0
A0
40
10
10
10
18
07
04
07
04
ENDCHAR
STARTCHAR 2411
ENCODING 9233
SWIDTH 540 0
DWIDTH 9 0
BBX 7 12 0 1
BITMAP
E0
A0
A0
40
18
10
10
08
02
02
02
02
ENDCHAR
STARTCHAR 2412
ENCODING 9234
SWIDTH 540 0
DWIDTH 9 0
BBX 8 12 0 1
BITMAP
E0
A0
A0
40
18
10
10
08
07
01
02
04
ENDCHAR
STARTCHAR 2413
ENCODING 9235
SWIDTH 540 0
DWIDTH 9 0
BBX 8 13 0 0
BITMAP
E0
A0
A0
40
18
10
10
08
03
02
01
05
02
ENDCHAR
STARTCHAR 2414
ENCODING 9236
SWIDTH 540 0
DWIDTH 9 0
BBX 8 12 0 1
BITMAP
E0
A0
A0
40
18
10
10
08
02
02
06
03
ENDCHAR
STARTCHAR 2415
ENCODING 9237
SWIDTH 540 0
DWIDTH 9 0
BBX 8 12 0 1
BITMAP
60
A0
A0
A0
08
18
18
18
05
02
02
05
ENDCHAR
STARTCHAR 2416
ENCODING 9238
SWIDTH 540 0
DWIDTH 9 0
BBX 8 12 0 1
BITMAP
E0
40
20
40
18
08
10
10
05
03
05
05
ENDCHAR
STARTCHAR 2417
ENCODING 9239
SWIDTH 540 0
DWIDTH 9 0
BBX 8 13 0 0
BITMAP
E0
60
80
60
18
10
10
10
07
05
07
05
02
ENDCHAR
STARTCHAR 2418
ENCODING 9240
SWIDTH 540 0
DWIDTH 9 0
BBX 8 12 0 1
BITMAP
E0
80
80
60
08
18
18
18
05
03
05
05
ENDCHAR
STARTCHAR 2419
ENCODING 9241
SWIDTH 540 0
DWIDTH 9 0
BBX 5 8 2 5
BITMAP
C0
C0
80
C0
28
28
38
28
ENDCHAR
STARTCHAR 241A
ENCODING 9242
SWIDTH 540 0
DWIDTH 9 0
BBX 8 13 0 0
BITMAP
E0
40
20
40
18
18
18
18
07
05
07
05
02
ENDCHAR
STARTCHAR 241B
ENCODING 9243
SWIDTH 540 0
DWIDTH 9 0
BBX 8 13 0 0
BITMAP
E0
60
80
60
18
10
08
18
03
04
04
05
02
ENDCHAR
STARTCHAR 241C
ENCODING 9244
SWIDTH 540 0
DWIDTH 9 0
BBX 5 8 2 5
BITMAP
C0
C0
80
80
30
20
10
18
ENDCHAR
STARTCHAR 241D
ENCODING 9245
SWIDTH 540 0
DWIDTH 9 0
BBX 6 8 1 5
BITMAP
E0
A0
A0
60
18
10
08
0C
ENDCHAR
STARTCHAR 241E
ENCODING 9246
SWIDTH 540 0
DWIDTH 9 0
BBX 5 8 2 5
BITMAP
C0
C0
C0
C0
30
20
10
18
ENDCHAR
STARTCHAR 241F
ENCODING 9247
SWIDTH 540 0
DWIDTH 9 0
BBX 6 8 1 5
BITMAP
A0
A0
A0
60
18
10
08
0C
ENDCHAR
STARTCHAR 2420
ENCODING 9248
SWIDTH 540 0
DWIDTH 9 0
BBX 5 8 2 5
BITMAP
C0
80
40
C0
38
28
30
20
ENDCHAR
STARTCHAR 2421
ENCODING 9249
SWIDTH 540 0
DWIDTH 9 0
BBX 6 12 0 1
BITMAP
E0
A0
A0
40
18
18
10
18
04
04
04
04
ENDCHAR
STARTCHAR 2422
ENCODING 9250
SWIDTH 540 0
DWIDTH 9 0
BBX 8 13 0 -1
BITMAP
60
64
78
E0
FE
72
63
61
61
61
63
72
7E
ENDCHAR
STARTCHAR 2423
ENCODING 9251
SWIDTH 540 0
DWIDTH 9 0
BBX 6 5 1 -2
BITMAP
84
84
84
84
FC
ENDCHAR
STARTCHAR 2424
ENCODING 9252
SWIDTH 540 0
DWIDTH 9 0
BBX 4 8 2 5
BITMAP
C0
C0
40
40
20
20
20
10
ENDCHAR
STARTCHAR 2425
ENCODING 9253
SWIDTH 540 0
DWIDTH 9 0
BBX 8 12 0 1
BITMAP
02
14
16
3D
2B
2A
5A
54
D4
3C
28
20
ENDCHAR
STARTCHAR 2426
ENCODING 9254
SWIDTH 540 0
DWIDTH 9 0
BBX 6 13 1 0
BITMAP
30
FC
84
80
C0
60
20
30
10
00
00
10
10
ENDCHAR
STARTCHAR 2460
ENCODING 9312
SWIDTH 1020 0
DWIDTH 17 0
BBX 17 17 0 -2
BITMAP
008000
077000
180C00
208200
438200
448100
408100
808100
808080
808100
408100
408100
408200
208200
100400
0C1800
03E000
ENDCHAR
STARTCHAR 2461
ENCODING 9313
SWIDTH 1020 0
DWIDTH 17 0
BBX 17 17 0 -2
BITMAP
008000
077000
180C00
23E200
423200
461100
441100
803100
806080
818100
430100
420100
47F200
27F200
100400
0C1800
03E000
ENDCHAR
STARTCHAR 2462
ENCODING 9314
SWIDTH 1020 0
DWIDTH 17 0
BBX 17 17 0 -2
BITMAP
008000
077000
180C00
23E200
463200
441100
403100
806100
81E080
803100
401100
441100
463200
23E200
100400
0C1800
03E000
ENDCHAR
STARTCHAR 2463
ENCODING 9315
SWIDTH 1020 0
DWIDTH 17 0
BBX 17 17 0 -2
BITMAP
008000
077000
180C00
204200
40C200
41C100
414100
824100
864080
8C4100
4FF900
404100
404200
204200
100400
0C1800
03E000
ENDCHAR
STARTCHAR 2464
ENCODING 9316
SWIDTH 1020 0
DWIDTH 17 0
BBX 17 17 0 -2
BITMAP
008000
077000
180C00
23F200
43F200
460100
460100
87E100
863080
801100
401100
441100
463200
21E200
100400
0C1800
03E000
ENDCHAR
STARTCHAR 2465
ENCODING 9317
SWIDTH 1020 0
DWIDTH 17 0
BBX 17 17 0 -2
BITMAP
008000
077000
180C00
21E200
433200
461100
440100
85E100
863080
861100
441100
461100
423200
21E200
100400
0C1800
03E000
ENDCHAR
STARTCHAR 2466
ENCODING 9318
SWIDTH 1020 0
DWIDTH 17 0
BBX 17 17 0 -2
BITMAP
008000
077000
180C00
200200
47F200
403100
402100
806100
804080
804100
40C100
408100
418200
218200
100400
0C1800
03E000
ENDCHAR
STARTCHAR 2467
ENCODING 9319
SWIDTH 1020 0
DWIDTH 17 0
BBX 17 17 0 -2
BITMAP
008000
077000
180C00
23E200
463200
441100
441100
863100
83E080
863100
441100
441100
463200
23E200
100400
0C1800
03E000
ENDCHAR
STARTCHAR 2468
ENCODING 9320
SWIDTH 1020 0
DWIDTH 17 0
BBX 17 17 0 -2
BITMAP
008000
077000
180C00
21E200
422200
461100
441100
861100
823080
83D100
401100
461100
422200
23E200
100400
0C1800
03E000
ENDCHAR
STARTCHAR 2469
ENCODING 9321
SWIDTH 1020 0
DWIDTH 17 0
BBX 17 17 0 -2
BITMAP
008000
077000
180C00
247200
5CDA00
5C8900
4C8D00
8D8D00
8D8C80
8D8D00
4C8D00
4C8900
4CDA00
2C7200
100400
0C1800
03E000
ENDCHAR
STARTCHAR 246A
ENCODING 9322
SWIDTH 1020 0
DWIDTH 17 0
BBX 17 17 0 -2
BITMAP
008000
077000
180C00
241200
4C3200
545100
441100
841100
841080
841100
441100
441100
441200
241200
100400
0C1800
03E000
ENDCHAR
STARTCHAR 246B
ENCODING 9323
SWIDTH 1020 0
DWIDTH 17 0
BBX 17 17 0 -2
BITMAP
008000
077000
180C00
247200
5CDA00
5C8900
4D8900
8C1900
8C3080
8C6100
4C4100
4C8100
4C8200
2DFA00
100400
0C1800
03E000
ENDCHAR
STARTCHAR 246C
ENCODING 9324
SWIDTH 1020 0
DWIDTH 17 0
BBX 17 17 0 -2
BITMAP
008000
077000
180C00
247200
5C9A00
5C8900
4D0900
8C1100
8C7080
8C0900
4C0900
4D8900
4C9A00
2C7200
100400
0C1800
03E000
ENDCHAR
STARTCHAR 246D
ENCODING 9325
SWIDTH 1020 0
DWIDTH 17 0
BBX 17 17 0 -2
BITMAP
008000
077000
180C00
241200
5C3200
5C3100
4C5100
8CD100
8C9080
8D9100
4DFD00
4C1100
4C1200
2C1200
100400
0C1800
03E000
ENDCHAR
STARTCHAR 246E
ENCODING 9326
SWIDTH 1020 0
DWIDTH 17 0
BBX 17 17 0 -2
BITMAP
008000
077000
180C00
24FA00
5C8200
5C8100
4C8100
8CF100
8C8880
8C0900
4C0900
4D8900
4C9A00
2C7200
100400
0C1800
03E000
ENDCHAR
STARTCHAR 246F
ENCODING 9327
SWIDTH 1020 0
DWIDTH 17 0
BBX 17 17 0 -2
BITMAP
008000
077000
180C00
247200
5CDA00
5C8900
4C8100
8DF100
8DD880
8D8900
4D8900
4C8900
4CDA00
2C7200
100400
0C1800
03E000
ENDCHAR
STARTCHAR 2470
ENCODING 9328
SWIDTH 1020 0
DWIDTH 17 0
BBX 17 17 0 -2
BITMAP
008000
077000
180C00
25FA00
5DFA00
541900
441100
841100
843080
842100
442100
446100
444200
244200
100400
0C1800
03E000
ENDCHAR
STARTCHAR 2471
ENCODING 9329
SWIDTH 1020 0
DWIDTH 17 0
BBX 17 17 0 -2
BITMAP
008000
077000
180C00
247200
5C9A00
5D8900
4D8900
8CD100
8CF080
8D8900
4D0D00
4D0900
4D9A00
2CF200
100400
0C1800
03E000
ENDCHAR
STARTCHAR 2472
ENCODING 9330
SWIDTH 1020 0
DWIDTH 17 0
BBX 17 17 0 -2
BITMAP
008000
077000
180C00
247200
5CDA00
5C8900
4D8900
8D8900
8CD880
8C6900
4C0900
4C8900
4C9A00
2C7200
100400
0C1800
03E000
ENDCHAR
STARTCHAR 2473
ENCODING 9331
SWIDTH 1020 0
DWIDTH 17 0
BBX 17 17 0 -2
BITMAP
008000
077000
180C00
263A00
492A00
496500
49C500
814500
824480
864500
4C4500
484500
4FAA00
2FBA00
100400
0C1800
03E000
ENDCHAR
STARTCHAR 24D0
ENCODING 9424
SWIDTH 1020 0
DWIDTH 17 0
BBX 17 17 0 -2
BITMAP
008000
077000
180C00
200200
400200
43C100
422100
842100
83E080
862100
462100
43F100
400200
200200
100400
0C1800
03E000
ENDCHAR
STARTCHAR 24D1
ENCODING 9425
SWIDTH 1020 0
DWIDTH 17 0
BBX 17 17 0 -2
BITMAP
008000
077000
180C00
220200
420200
420100
42E100
833100
821080
821100
421100
431100
43E200
200200
100400
0C1800
03E000
ENDCHAR
STARTCHAR 24D2
ENCODING 9426
SWIDTH 1020 0
DWIDTH 17 0
BBX 17 17 0 -2
BITMAP
008000
077000
180C00
200200
400200
41C100
422100
861100
840080
860100
423100
41E100
400200
200200
100400
0C1800
03E000
ENDCHAR
STARTCHAR 24D3
ENCODING 9427
SWIDTH 1020 0
DWIDTH 17 0
BBX 17 17 0 -2
BITMAP
008000
077000
180C00
202200
402200
402100
43A100
866100
842080
842100
442100
446100
43E200
200200
100400
0C1800
03E000
ENDCHAR
STARTCHAR 24D4
ENCODING 9428
SWIDTH 1020 0
DWIDTH 17 0
BBX 17 17 0 -2
BITMAP
008000
077000
180C00
200200
400200
41C100
422100
863100
87F080
840100
423100
41E100
400200
200200
100400
0C1800
03E000
ENDCHAR
STARTCHAR 24D5
ENCODING 9429
SWIDTH 1020 0
DWIDTH 17 0
BBX 17 17 0 -2
BITMAP
008000
077000
180C00
200200
40E200
418100
418100
87E100
818080
818100
418100
418100
418200
218200
100400
0C1800
03E000
ENDCHAR
STARTCHAR 24D6
ENCODING 9430
SWIDTH 1020 0
DWIDTH 17 0
BBX 17 17 0 -2
BITMAP
008000
077000
180C00
200200
41D200
423100
463100
863100
823080
83F100
402100
422100
41C200
200200
100400
0C1800
03E000
ENDCHAR
STARTCHAR 24D7
ENCODING 9431
SWIDTH 1020 0
DWIDTH 17 0
BBX 17 17 0 -2
BITMAP
008000
077000
180C00
220200
420200
420100
42E100
83B100
821080
821100
421100
421100
421200
200200
100400
0C1800
03E000
ENDCHAR
STARTCHAR 24D8
ENCODING 9432
SWIDTH 1020 0
DWIDTH 17 0
BBX 17 17 0 -2
BITMAP
008000
077000
180C00
200200
408200
400100
400100
808100
808080
808100
408100
408100
408200
200200
100400
0C1800
03E000
ENDCHAR
STARTCHAR 24D9
ENCODING 9433
SWIDTH 1020 0
DWIDTH 17 0
BBX 17 17 0 -2
BITMAP
008000
077000
180C00
20C200
400200
400100
40C100
80C100
80C080
80C100
40C100
40C100
40C200
23C200
100400
0C1800
03E000
ENDCHAR
STARTCHAR 24DA
ENCODING 9434
SWIDTH 1020 0
DWIDTH 17 0
BBX 17 17 0 -2
BITMAP
008000
077000
180C00
220200
420200
420100
420100
827100
82C080
838100
424100
422100
423200
200A00
100400
0C1800
03E000
ENDCHAR
STARTCHAR 24DB
ENCODING 9435
SWIDTH 1020 0
DWIDTH 17 0
BBX 17 17 0 -2
BITMAP
008000
077000
180C00
200200
408200
408100
408100
808100
808080
808100
408100
408100
408200
200200
100400
0C1800
03E000
ENDCHAR
STARTCHAR 24DC
ENCODING 9436
SWIDTH 1020 0
DWIDTH 17 0
BBX 17 17 0 -2
BITMAP
008000
077000
180C00
200200
400200
4BF100
4CD900
888900
888880
888900
488900
488900
400200
200200
100400
0C1800
03E000
ENDCHAR
STARTCHAR 24DD
ENCODING 9437
SWIDTH 1020 0
DWIDTH 17 0
BBX 17 17 0 -2
BITMAP
008000
077000
180C00
200200
400200
47E100
472100
863100
863080
863100
463100
463100
400200
200200
100400
0C1800
03E000
ENDCHAR
STARTCHAR 24DE
ENCODING 9438
SWIDTH 1020 0
DWIDTH 17 0
BBX 17 17 0 -2
BITMAP
008000
077000
180C00
200200
400200
41C100
422100
863100
841080
863100
422100
41E100
400200
200200
100400
0C1800
03E000
ENDCHAR
STARTCHAR 24DF
ENCODING 9439
SWIDTH 1020 0
DWIDTH 17 0
BBX 17 17 0 -2
BITMAP
008000
077000
180C00
200200
404200
43F100
421100
821900
821880
821100
43F100
420100
420200
200200
100400
0C1800
03E000
ENDCHAR
STARTCHAR 24E0
ENCODING 9440
SWIDTH 1020 0
DWIDTH 17 0
BBX 17 17 0 -2
BITMAP
008000
077000
180C00
200200
410200
47E100
442100
8C2100
8C2080
842100
47E100
402100
402200
200200
100400
0C1800
03E000
ENDCHAR
STARTCHAR 24E1
ENCODING 9441
SWIDTH 1020 0
DWIDTH 17 0
BBX 17 17 0 -2
BITMAP
008000
077000
180C00
200200
400200
411100
417100
818100
810080
810100
410100
410100
400200
200200
100400
0C1800
03E000
ENDCHAR
STARTCHAR 24E2
ENCODING 9442
SWIDTH 1020 0
DWIDTH 17 0
BBX 17 17 0 -2
BITMAP
008000
077000
180C00
200200
400200
41C100
422100
830100
81C080
802100
462100
43E100
400200
200200
100400
0C1800
03E000
ENDCHAR
STARTCHAR 24E3
ENCODING 9443
SWIDTH 1020 0
DWIDTH 17 0
BBX 17 17 0 -2
BITMAP
008000
077000
180C00
200200
418200
418100
43C100
818100
818080
818100
418100
418100
40E200
200200
100400
0C1800
03E000
ENDCHAR
STARTCHAR 24E4
ENCODING 9444
SWIDTH 1020 0
DWIDTH 17 0
BBX 17 17 0 -2
BITMAP
008000
077000
180C00
200200
400200
463100
463100
863100
863080
863100
423100
43F100
400200
200200
100400
0C1800
03E000
ENDCHAR
STARTCHAR 24E5
ENCODING 9445
SWIDTH 1020 0
DWIDTH 17 0
BBX 17 17 0 -2
BITMAP
008000
077000
180C00
200200
400200
400100
441100
822100
822080
836100
414100
41C100
400200
200200
100400
0C1800
03E000
ENDCHAR
STARTCHAR 24E6
ENCODING 9446
SWIDTH 1020 0
DWIDTH 17 0
BBX 17 17 0 -2
BITMAP
008000
077000
180C00
200200
400200
400100
588D00
894900
894880
855100
467100
463100
400200
200200
100400
0C1800
03E000
ENDCHAR
STARTCHAR 24E7
ENCODING 9447
SWIDTH 1020 0
DWIDTH 17 0
BBX 17 17 0 -2
BITMAP
008000
077000
180C00
200200
400200
463100
436100
814100
808080
814100
422100
463100
480A00
200200
100400
0C1800
03E000
ENDCHAR
STARTCHAR 24E8
ENCODING 9448
SWIDTH 1020 0
DWIDTH 17 0
BBX 17 17 0 -2
BITMAP
008000
077000
180C00
200200
441A00
421100
423100
812100
816080
81C100
40C100
408100
478200
200200
100400
0C1800
03E000
ENDCHAR
STARTCHAR 24E9
ENCODING 9449
SWIDTH 1020 0
DWIDTH 17 0
BBX 17 17 0 -2
BITMAP
008000
077000
180C00
200200
400200
43E100
406100
80C100
808080
810100
420100
47F100
400200
200200
100400
0C1800
03E000
ENDCHAR
STARTCHAR 24EB
ENCODING 9451
SWIDTH 1020 0
DWIDTH 17 0
BBX 17 17 0 -2
BITMAP
008000
07F000
1FFC00
3BE600
33C600
7BE700
7BE700
7BE700
FBE780
7BE700
7BE700
7BE700
3BE600
3BE600
1FFC00
07F000
01C000
ENDCHAR
STARTCHAR 24EC
ENCODING 9452
SWIDTH 1020 0
DWIDTH 17 0
BBX 17 17 0 -2
BITMAP
008000
07F000
1FFC00
3B8E00
232600
737700
737700
73F700
F3EF80
73DF00
73BF00
733F00
337E00
330600
1FFC00
07F000
01C000
ENDCHAR
STARTCHAR 24ED
ENCODING 9453
SWIDTH 1020 0
DWIDTH 17 0
BBX 17 17 0 -2
BITMAP
008000
07F000
1FFC00
3B8E00
232600
737700
73F700
73E700
F38F80
73F700
73F300
737300
332600
338E00
1FFC00
07F000
01C000
ENDCHAR
STARTCHAR 24EE
ENCODING 9454
SWIDTH 1020 0
DWIDTH 17 0
BBX 17 17 0 -2
BITMAP
008000
07F000
1FFC00
3BE600
23C600
73E700
73A700
73A700
F36780
726700
728300
73E700
33E600
33E600
1FFC00
07F000
01C000
ENDCHAR
STARTCHAR 24EF
ENCODING 9455
SWIDTH 1020 0
DWIDTH 17 0
BBX 17 17 0 -2
BITMAP
008000
07F000
1FFC00
3B0600
237E00
737F00
737F00
730700
F37780
73F300
73F300
737700
336600
338E00
1FFC00
07F000
01C000
ENDCHAR
STARTCHAR 24F0
ENCODING 9456
SWIDTH 1020 0
DWIDTH 17 0
BBX 17 17 0 -2
BITMAP
008000
07F000
1FFC00
3B8E00
232600
737700
737F00
734F00
F32780
737700
737300
737700
332600
338E00
1FFC00
07F000
01C000
ENDCHAR
STARTCHAR 24F1
ENCODING 9457
SWIDTH 1020 0
DWIDTH 17 0
BBX 17 17 0 -2
BITMAP
008000
07F000
1FFC00
3B0600
23F600
73F700
73EF00
73EF00
F3CF80
73DF00
73DF00
739F00
339E00
33BE00
1FFC00
07F000
01C000
ENDCHAR
STARTCHAR 24F2
ENCODING 9458
SWIDTH 1020 0
DWIDTH 17 0
BBX 17 17 0 -2
BITMAP
008000
07F000
1FFC00
3B8E00
232600
737700
737700
732700
F38F80
727700
727300
72F300
337600
338E00
1FFC00
07F000
01C000
ENDCHAR
STARTCHAR 24F3
ENCODING 9459
SWIDTH 1020 0
DWIDTH 17 0
BBX 17 17 0 -2
BITMAP
008000
07F000
1FFC00
3B8E00
232600
737700
737300
737300
F32380
739300
73F700
737700
332600
338E00
1FFC00
07F000
01C000
ENDCHAR
STARTCHAR 24F4
ENCODING 9460
SWIDTH 1020 0
DWIDTH 17 0
BBX 17 17 0 -2
BITMAP
008000
07F000
1FFC00
39E600
36D200
669B00
6E9B00
7CBB00
FDBB80
7BBB00
779B00
779B00
27D200
20C600
1FFC00
07F000
01C000
ENDCHAR
STARTCHAR 24F5
ENCODING 9461
SWIDTH 1020 0
DWIDTH 17 0
BBX 17 17 0 -2
BITMAP
008000
077000
1BEC00
2C1A00
518600
638500
A08300
A08300
A08280
A08300
A08300
608500
508600
280A00
17F400
0C1800
03E000
ENDCHAR
STARTCHAR 24F6
ENCODING 9462
SWIDTH 1020 0
DWIDTH 17 0
BBX 17 17 0 -2
BITMAP
008000
077000
1BEC00
2C1A00
53E600
623500
A63300
A02300
A0E280
A18300
A30300
620500
57F600
280A00
17F400
0C1800
03E000
ENDCHAR
STARTCHAR 24F7
ENCODING 9463
SWIDTH 1020 0
DWIDTH 17 0
BBX 17 17 0 -2
BITMAP
008000
077000
1BEC00
2C1A00
53E600
622500
A42300
A02300
A1E280
A03300
A01300
663500
53E600
280A00
17F400
0C1800
03E000
ENDCHAR
STARTCHAR 24F8
ENCODING 9464
SWIDTH 1020 0
DWIDTH 17 0
BBX 17 17 0 -2
BITMAP
008000
077000
1BEC00
2C1A00
50C600
60C500
A14300
A34300
A64280
A44300
AFF300
604500
504600
280A00
17F400
0C1800
03E000
ENDCHAR
STARTCHAR 24F9
ENCODING 9465
SWIDTH 1020 0
DWIDTH 17 0
BBX 17 17 0 -2
BITMAP
008000
077000
1BEC00
2C1A00
53E600
620500
A20300
A3E300
A23280
A01300
A01300
663500
53E600
280A00
17F400
0C1800
03E000
ENDCHAR
STARTCHAR 24FA
ENCODING 9466
SWIDTH 1020 0
DWIDTH 17 0
BBX 17 17 0 -2
BITMAP
008000
077000
1BEC00
2C1A00
51E600
622500
A21300
A6C300
A72280
A63300
A23300
622500
51E600
280A00
17F400
0C1800
03E000
ENDCHAR
STARTCHAR 24FB
ENCODING 9467
SWIDTH 1020 0
DWIDTH 17 0
BBX 17 17 0 -2
BITMAP
008000
077000
1BEC00
2C1A00
53F600
63F500
A02300
A06300
A04280
A0C300
A08300
608500
518600
280A00
17F400
0C1800
03E000
ENDCHAR
STARTCHAR 24FC
ENCODING 9468
SWIDTH 1020 0
DWIDTH 17 0
BBX 17 17 0 -2
BITMAP
008000
077000
1BEC00
2C1A00
53E600
662500
A63300
A22300
A1C280
A63300
A41300
663500
53E600
280A00
17F400
0C1800
03E000
ENDCHAR
STARTCHAR 24FD
ENCODING 9469
SWIDTH 1020 0
DWIDTH 17 0
BBX 17 17 0 -2
BITMAP
008000
077000
1BEC00
2C1A00
51E600
622500
A23300
A23300
A23280
A1D300
A03300
622500
53E600
280A00
17F400
0C1800
03E000
ENDCHAR
STARTCHAR 24FE
ENCODING 9470
SWIDTH 1020 0
DWIDTH 17 0
BBX 17 17 0 -2
BITMAP
008000
077000
1BEC00
2C1A00
526600
6ED500
A69B00
A69B00
A68A80
A69B00
A69B00
66D500
567600
280A00
17F400
0C1800
03E000
ENDCHAR
STARTCHAR 2500
ENCODING 9472
SWIDTH 1020 0
DWIDTH 17 0
BBX 17 1 0 5
BITMAP
FFFF80
ENDCHAR
STARTCHAR 2501
ENCODING 9473
SWIDTH 1020 0
DWIDTH 17 0
BBX 17 2 0 6
BITMAP
FFFF80
FFFF80
ENDCHAR
STARTCHAR 2502
ENCODING 9474
SWIDTH 1020 0
DWIDTH 17 0
BBX 1 17 8 -3
BITMAP
80
80
80
80
80
80
80
80
80
80
80
80
80
80
80
80
80
ENDCHAR
STARTCHAR 2503
ENCODING 9475
SWIDTH 1020 0
DWIDTH 17 0
BBX 3 17 7 -3
BITMAP
E0
E0
E0
E0
E0
E0
E0
E0
E0
E0
E0
E0
E0
E0
E0
E0
E0
ENDCHAR
STARTCHAR 250C
ENCODING 9484
SWIDTH 1020 0
DWIDTH 17 0
BBX 9 9 8 -3
BITMAP
FF80
8000
8000
8000
8000
8000
8000
8000
8000
ENDCHAR
STARTCHAR 250F
ENCODING 9487
SWIDTH 1020 0
DWIDTH 17 0
BBX 10 9 7 -2
BITMAP
FFC0
FFC0
E000
E000
E000
E000
E000
E000
E000
ENDCHAR
STARTCHAR 2510
ENCODING 9488
SWIDTH 1020 0
DWIDTH 17 0
BBX 9 9 0 -3
BITMAP
FF80
0080
0080
0080
0080
0080
0080
0080
0080
ENDCHAR
STARTCHAR 2513
ENCODING 9491
SWIDTH 1020 0
DWIDTH 17 0
BBX 10 9 0 -2
BITMAP
FFC0
FFC0
01C0
01C0
01C0
01C0
01C0
01C0
01C0
ENDCHAR
STARTCHAR 2514
ENCODING 9492
SWIDTH 1020 0
DWIDTH 17 0
BBX 9 9 8 5
BITMAP
8000
8000
8000
8000
8000
8000
8000
8000
FF80
ENDCHAR
STARTCHAR 2517
ENCODING 9495
SWIDTH 1020 0
DWIDTH 17 0
BBX 10 10 7 5
BITMAP
E000
E000
E000
E000
E000
E000
E000
E000
FFC0
FFC0
ENDCHAR
STARTCHAR 2518
ENCODING 9496
SWIDTH 1020 0
DWIDTH 17 0
BBX 9 9 0 5
BITMAP
0080
0080
0080
0080
0080
0080
0080
0080
FF80
ENDCHAR
STARTCHAR 251B
ENCODING 9499
SWIDTH 1020 0
DWIDTH 17 0
BBX 10 10 0 5
BITMAP
01C0
01C0
01C0
01C0
01C0
01C0
01C0
01C0
FFC0
FFC0
ENDCHAR
STARTCHAR 251C
ENCODING 9500
SWIDTH 1020 0
DWIDTH 17 0
BBX 9 17 8 -3
BITMAP
8000
8000
8000
8000
8000
8000
8000
8000
FF80
8000
8000
8000
8000
8000
8000
8000
8000
ENDCHAR
STARTCHAR 251D
ENCODING 9501
SWIDTH 1020 0
DWIDTH 17 0
BBX 9 17 8 -3
BITMAP
8000
8000
8000
8000
8000
8000
8000
8000
FF80
FF80
8000
8000
8000
8000
8000
8000
8000
ENDCHAR
STARTCHAR 2520
ENCODING 9504
SWIDTH 1020 0
DWIDTH 17 0
BBX 10 17 7 -3
BITMAP
E000
E000
E000
E000
E000
E000
E000
E000
FFC0
E000
E000
E000
E000
E000
E000
E000
E000
ENDCHAR
STARTCHAR 2523
ENCODING 9507
SWIDTH 1020 0
DWIDTH 17 0
BBX 10 17 7 -3
BITMAP
E000
E000
E000
E000
E000
E000
E000
E000
FFC0
FFC0
E000
E000
E000
E000
E000
E000
E000
ENDCHAR
STARTCHAR 2524
ENCODING 9508
SWIDTH 1020 0
DWIDTH 17 0
BBX 9 17 0 -3
BITMAP
0080
0080
0080
0080
0080
0080
0080
0080
FF80
0080
0080
0080
0080
0080
0080
0080
0080
ENDCHAR
STARTCHAR 2525
ENCODING 9509
SWIDTH 1020 0
DWIDTH 17 0
BBX 9 17 0 -3
BITMAP
0080
0080
0080
0080
0080
0080
0080
0080
FF80
FF80
0080
0080
0080
0080
0080
0080
0080
ENDCHAR
STARTCHAR 2528
ENCODING 9512
SWIDTH 1020 0
DWIDTH 17 0
BBX 10 17 0 -3
BITMAP
01C0
01C0
01C0
01C0
01C0
01C0
01C0
01C0
FFC0
01C0
01C0
01C0
01C0
01C0
01C0
01C0
01C0
ENDCHAR
STARTCHAR 252B
ENCODING 9515
SWIDTH 1020 0
DWIDTH 17 0
BBX 10 17 0 -3
BITMAP
01C0
01C0
01C0
01C0
01C0
01C0
01C0
01C0
FFC0
FFC0
01C0
01C0
01C0
01C0
01C0
01C0
01C0
ENDCHAR
STARTCHAR 252C
ENCODING 9516
SWIDTH 1020 0
DWIDTH 17 0
BBX 17 9 0 -3
BITMAP
FFFF80
008000
008000
008000
008000
008000
008000
008000
008000
ENDCHAR
STARTCHAR 252F
ENCODING 9519
SWIDTH 1020 0
DWIDTH 17 0
BBX 17 9 0 -2
BITMAP
FFFF80
FFFF80
008000
008000
008000
008000
008000
008000
008000
ENDCHAR
STARTCHAR 2530
ENCODING 9520
SWIDTH 1020 0
DWIDTH 17 0
BBX 17 9 0 -3
BITMAP
FFFF80
01C000
01C000
01C000
01C000
01C000
01C000
01C000
01C000
ENDCHAR
STARTCHAR 2533
ENCODING 9523
SWIDTH 1020 0
DWIDTH 17 0
BBX 17 9 0 -2
BITMAP
FFFF80
FFFF80
01C000
01C000
01C000
01C000
01C000
01C000
01C000
ENDCHAR
STARTCHAR 2534
ENCODING 9524
SWIDTH 1020 0
DWIDTH 17 0
BBX 17 9 0 5
BITMAP
008000
008000
008000
008000
008000
008000
008000
008000
FFFF80
ENDCHAR
STARTCHAR 2537
ENCODING 9527
SWIDTH 1020 0
DWIDTH 17 0
BBX 17 10 0 5
BITMAP
008000
008000
008000
008000
008000
008000
008000
008000
FFFF80
FFFF80
ENDCHAR
STARTCHAR 2538
ENCODING 9528
SWIDTH 1020 0
DWIDTH 17 0
BBX 17 9 0 6
BITMAP
01C000
01C000
01C000
01C000
01C000
01C000
01C000
01C000
FFFF80
ENDCHAR
STARTCHAR 253B
ENCODING 9531
SWIDTH 1020 0
DWIDTH 17 0
BBX 17 10 0 5
BITMAP
01C000
01C000
01C000
01C000
01C000
01C000
01C000
01C000
FFFF80
FFFF80
ENDCHAR
STARTCHAR 253C
ENCODING 9532
SWIDTH 1020 0
DWIDTH 17 0
BBX 17 17 0 -3
BITMAP
008000
008000
008000
008000
008000
008000
008000
008000
FFFF80
008000
008000
008000
008000
008000
008000
008000
008000
ENDCHAR
STARTCHAR 253F
ENCODING 9535
SWIDTH 1020 0
DWIDTH 17 0
BBX 17 17 0 -3
BITMAP
008000
008000
008000
008000
008000
008000
008000
008000
FFFF80
FFFF80
008000
008000
008000
008000
008000
008000
008000
ENDCHAR
STARTCHAR 2542
ENCODING 9538
SWIDTH 1020 0
DWIDTH 17 0
BBX 17 17 0 -3
BITMAP
01C000
01C000
01C000
01C000
01C000
01C000
01C000
01C000
FFFF80
01C000
01C000
01C000
01C000
01C000
01C000
01C000
01C000
ENDCHAR
STARTCHAR 254B
ENCODING 9547
SWIDTH 1020 0
DWIDTH 17 0
BBX 17 17 0 -3
BITMAP
01C000
01C000
01C000
01C000
01C000
01C000
01C000
01C000
FFFF80
FFFF80
01C000
01C000
01C000
01C000
01C000
01C000
01C000
ENDCHAR
STARTCHAR 2550
ENCODING 9552
SWIDTH 1020 0
DWIDTH 17 0
BBX 17 6 0 3
BITMAP
FFFF80
000000
000000
000000
000000
FFFF80
ENDCHAR
STARTCHAR 2551
ENCODING 9553
SWIDTH 1020 0
DWIDTH 17 0
BBX 5 17 6 -3
BITMAP
88
88
88
88
88
88
88
88
88
88
88
88
88
88
88
88
88
ENDCHAR
STARTCHAR 2552
ENCODING 9554
SWIDTH 1020 0
DWIDTH 17 0
BBX 9 11 8 -3
BITMAP
FF80
8000
8000
8000
8000
FF80
8000
8000
8000
8000
8000
ENDCHAR
STARTCHAR 2553
ENCODING 9555
SWIDTH 1020 0
DWIDTH 17 0
BBX 11 9 6 -3
BITMAP
FFE0
8800
8800
8800
8800
8800
8800
8800
8800
ENDCHAR
STARTCHAR 2554
ENCODING 9556
SWIDTH 1020 0
DWIDTH 17 0
BBX 11 11 6 -3
BITMAP
FFE0
8000
8000
8000
8000
8FE0
8800
8800
8800
8800
8800
ENDCHAR
STARTCHAR 2555
ENCODING 9557
SWIDTH 1020 0
DWIDTH 17 0
BBX 9 11 0 -3
BITMAP
FF80
0080
0080
0080
0080
FF80
0080
0080
0080
0080
0080
ENDCHAR
STARTCHAR 2556
ENCODING 9558
SWIDTH 1020 0
DWIDTH 17 0
BBX 11 9 0 -3
BITMAP
FFE0
0220
0220
0220
0220
0220
0220
0220
0220
ENDCHAR
STARTCHAR 2557
ENCODING 9559
SWIDTH 1020 0
DWIDTH 17 0
BBX 11 11 0 -3
BITMAP
FFE0
0020
0020
0020
0020
FE20
0220
0220
0220
0220
0220
ENDCHAR
STARTCHAR 2558
ENCODING 9560
SWIDTH 1020 0
DWIDTH 17 0
BBX 9 12 8 3
BITMAP
8000
8000
8000
8000
8000
8000
FF80
8000
8000
8000
8000
7F80
ENDCHAR
STARTCHAR 2559
ENCODING 9561
SWIDTH 1020 0
DWIDTH 17 0
BBX 11 9 6 5
BITMAP
8800
8800
8800
8800
8800
8800
8800
8800
FFE0
ENDCHAR
STARTCHAR 255A
ENCODING 9562
SWIDTH 1020 0
DWIDTH 17 0
BBX 11 12 6 3
BITMAP
8800
8800
8800
8800
8800
8800
8FE0
8000
8000
8000
8000
7FE0
ENDCHAR
STARTCHAR 255B
ENCODING 9563
SWIDTH 1020 0
DWIDTH 17 0
BBX 9 12 0 3
BITMAP
0080
0080
0080
0080
0080
0080
FF80
0080
0080
0080
0080
FF00
ENDCHAR
STARTCHAR 255C
ENCODING 9564
SWIDTH 1020 0
DWIDTH 17 0
BBX 11 9 0 5
BITMAP
0220
0220
0220
0220
0220
0220
0220
0220
FFE0
ENDCHAR
STARTCHAR 255D
ENCODING 9565
SWIDTH 1020 0
DWIDTH 17 0
BBX 11 12 0 3
BITMAP
0220
0220
0220
0220
0220
0220
FE20
0020
0020
0020
0020
FFC0
ENDCHAR
STARTCHAR 255E
ENCODING 9566
SWIDTH 1020 0
DWIDTH 17 0
BBX 9 17 8 -3
BITMAP
8000
8000
8000
8000
8000
8000
FF80
8000
8000
8000
8000
FF80
8000
8000
8000
8000
8000
ENDCHAR
STARTCHAR 255F
ENCODING 9567
SWIDTH 1020 0
DWIDTH 17 0
BBX 11 17 6 -3
BITMAP
8800
8800
8800
8800
8800
8800
8800
8800
8FE0
8800
8800
8800
8800
8800
8800
8800
8800
ENDCHAR
STARTCHAR 2560
ENCODING 9568
SWIDTH 1020 0
DWIDTH 17 0
BBX 11 17 6 -3
BITMAP
8800
8800
8800
8800
8800
8800
8FE0
8000
8000
8000
8000
8FE0
8800
8800
8800
8800
8800
ENDCHAR
ENDFONT
